<svg xmlns="http://www.w3.org/2000/svg" viewBox="0 0 159.15 42.75"><defs><style>.cls-1{fill:#e81d31;fill-rule:evenodd;}</style></defs><title>auspost</title><g id="Layer_2" data-name="Layer 2"><g id="Layer_1-2" data-name="Layer 1"><path class="cls-1" d="M60.83,25.43c3.29,0,4.93-.22,4.93-2.74s-1.64-3-4.93-3H48.56V12.5H60.5c4.5,0,7.67.32,10.09,2,2.74,1.75,3.94,4.38,3.94,8,0,6.47-3.83,10-11.07,10H57.87v8.88H48.56V25.43Z"/><path class="cls-1" d="M90.64,11.73c9.32,0,15,5.81,15,15.23s-5.7,15.13-15,15.13S75.52,36.28,75.52,27s5.81-15.23,15.12-15.23Zm0,23.12c4,0,5.59-2.52,5.59-7.89s-1.64-8-5.59-8-5.7,2.52-5.7,8,1.76,7.89,5.7,7.89Z"/><path class="cls-1" d="M116.4,31.79c.22,2.52,1.76,3.39,4.28,3.39,2.3,0,3.5-.76,3.5-2.08,0-1.75-1.64-1.86-5-2.74-4-1.1-6.68-2-7.89-2.85A7.31,7.31,0,0,1,108,20.93c0-5.58,4.39-9.2,12.06-9.2s12.17,3.4,12.49,9.64h-8.76c-.11-2.3-1.54-3.07-3.84-3.07-2,0-3,.55-3,2s1.53,1.75,4.27,2.52c3.62.87,6.47,1.42,8.33,2.63a7.67,7.67,0,0,1,3.73,6.79c0,6.25-4.49,9.87-12.93,9.87-7.78,0-12.72-3.62-12.94-10.3Z"/><polygon class="cls-1" points="141.72 20.06 133.39 20.06 133.39 12.49 159.15 12.49 159.15 20.06 151.04 20.06 151.04 41.32 141.72 41.32 141.72 20.06 141.72 20.06"/><path class="cls-1" d="M12.6,8.11A17.68,17.68,0,0,0,12.6,42V8.11Z"/><path class="cls-1" d="M17.76,7.34H16.55V9.21h.77a11.08,11.08,0,0,1,11.07,11,11.16,11.16,0,0,1-11,11.07V42.75h.33a17.71,17.71,0,1,0,0-35.41Z"/><path class="cls-1" d="M50.2,6.36l-.55,2H48.34L51,.22h1.42L54.8,8.33H53.49l-.55-2Zm1.42-4.61L50.53,5.26h2.08l-1-3.51Z"/><path class="cls-1" d="M56.34.22V5.37a3.57,3.57,0,0,0,.44,2.19,2.43,2.43,0,0,0,2.08.88,2.67,2.67,0,0,0,1.86-.55,3.42,3.42,0,0,0,.77-2.63v-5H60.28V5.48a2.38,2.38,0,0,1-.22,1.32,1.15,1.15,0,0,1-1.2.65,1.11,1.11,0,0,1-1.1-.65,2.6,2.6,0,0,1-.22-1.43V.22Z"/><path class="cls-1" d="M63.46,5.92v.22A2.77,2.77,0,0,0,64,7.89a2.9,2.9,0,0,0,1.86.55,2.69,2.69,0,0,0,2-.66,2.29,2.29,0,0,0,.54-1.64c0-1-.65-1.43-1.64-2.08l-.44-.33c-1-.55-1.53-1-1.53-1.65a1,1,0,0,1,.33-.76A1.6,1.6,0,0,1,66,1a1,1,0,0,1,.77.33,1.3,1.3,0,0,1,.33,1v.22h1.2V2.19A1.79,1.79,0,0,0,67.74.66,2.17,2.17,0,0,0,66,0a2.2,2.2,0,0,0-2.41,2.19c0,1.21.55,1.65,1.76,2.41l.32.22c1,.55,1.54.88,1.54,1.54s-.55,1.09-1.32,1.09a1.55,1.55,0,0,1-.76-.22,1.43,1.43,0,0,1-.33-1.09V5.92Z"/><polygon class="cls-1" points="72.34 1.21 72.34 8.33 71.13 8.33 71.13 1.21 69.16 1.21 69.16 0.22 74.31 0.22 74.31 1.21 72.34 1.21 72.34 1.21"/><path class="cls-1" d="M79.36,4.17c.76.1,1,.76,1,1.64v.77a6.64,6.64,0,0,0,.22,1.64v.11H79.25a10,10,0,0,1-.11-1.86V5.81c0-.88-.22-1.1-.88-1.1H77.05V8.33h-1.2V.22H78c1,0,1.64.11,2,.55a1.88,1.88,0,0,1,.55,1.42,2,2,0,0,1-1.2,2ZM79,1.42a1.82,1.82,0,0,0-.88-.21h-1.1V3.62h.66c1.1,0,1.65-.33,1.65-1.32A1.25,1.25,0,0,0,79,1.42Z"/><path class="cls-1" d="M86.59,6.36H83.85l-.55,2H82L84.62.22h1.31l2.52,8.11H87.14l-.55-2ZM85.27,1.75,84.18,5.26h2.08l-1-3.51Z"/><polygon class="cls-1" points="91.3 7.23 91.3 0.22 90.1 0.22 90.1 8.33 94.04 8.33 94.04 7.23 91.3 7.23 91.3 7.23"/><polygon class="cls-1" points="95.36 8.33 96.56 8.33 96.56 0.22 95.36 0.22 95.36 8.33 95.36 8.33 95.36 8.33"/><path class="cls-1" d="M102.81,6.36h-2.74l-.55,2H98.21L100.73.22h1.42l2.52,8.11h-1.31l-.55-2Zm-1.42-4.61-1,3.51h2.08l-1.09-3.51Z"/></g></g></svg>