<svg xmlns="http://www.w3.org/2000/svg" viewBox="0 0 484.62 112.66"><defs><style>.cls-1{fill:#f46800;}.cls-2{fill:#004b92;}</style></defs><title>kforce</title><g id="Layer_2" data-name="Layer 2"><g id="Layer_1-2" data-name="Layer 1"><g id="Layer_1-2-2" data-name="Layer 1-2"><path class="cls-1" d="M302.05,48.7c5.28,8.13,10.14,15.84,15.25,23.39,2.43,3.57,5.29,6.87,8.06,10.2,2.34,2.8,4.93,5.31,8.53,6.58.66.23,1,1.27,1.54,1.94-.75.41-1.5,1.2-2.25,1.19-9.81-.13-18.67-2.49-24.33-11.39-4.47-7-8.81-14.12-13.09-21.26-3.95-6.61-7.64-8.51-15.11-7.15a3.08,3.08,0,0,0-2,2.17c0,8.55-.12,17.12.31,25.66.23,4.71,2.16,6.21,6.87,7,.46.08.94.1,1.4.19,1.38.3,3.55-.11,3.1,2.2-.13.65-2.19,1.31-3.38,1.33-9.38.1-18.76.06-28.14.06a3.66,3.66,0,0,1-1.4,0,29.09,29.09,0,0,1-2.67-1.51,11.92,11.92,0,0,1,2.38-1.86,12.3,12.3,0,0,1,2.76-.43c4.44-.83,6-2.41,6.66-6.91a43,43,0,0,0,.36-6V19.57a42.37,42.37,0,0,0-.47-6.66c-.72-4.41-2.55-5.95-6.92-6.63C257.89,6,255,7,255.26,4.09c.23-2.48,2.86-1.33,4.39-1.35,10.2-.11,20.4-.19,30.6,0a65.43,65.43,0,0,1,13.24,1.41c18.2,4.2,20.35,23.6,11.9,34.37-2.53,3.22-6.31,5.47-9.58,8.08A30.06,30.06,0,0,1,302.05,48.7ZM278.54,27.79h0V45c0,2,.7,3,2.86,3,2.93-.1,5.87.1,8.79-.1,6.14-.42,11.08-3.18,14.15-8.55,4.36-7.64,5-15.74.68-23.5-4.17-7.54-11.6-9.29-19.61-9.25a21.9,21.9,0,0,0-2.8.25c-3.52.46-4,.9-4,4.42C278.51,16.77,278.54,22.28,278.54,27.79Z"/><path class="cls-1" d="M210.28.71c23.22,0,41.56,17.51,42.92,41.18.81,14.3-2.68,27.26-12.94,37.77-9.63,9.85-21.67,13.84-35.15,13.08C184.71,91.58,170,79,165.06,59.15c-5.43-21.95,5.49-45.39,25.38-54.5A46.07,46.07,0,0,1,210.28.71Zm29.53,49.11c0-2.23.18-4.47,0-6.67-.94-9.71-3.45-18.87-9.57-26.75C218.67,1.55,192.68,0,182.09,20.67c-5.18,10.13-5.72,20.91-4.45,31.89,1,8.86,3.81,17.16,9.52,24.2,7.43,9.16,17.16,12.95,28.71,11,11-1.88,17.6-9.15,21.37-19.26A44.8,44.8,0,0,0,239.81,49.82Z"/><path class="cls-1" d="M440.85,42.07c6.91,0,13.24.21,19.55-.07,4.47-.2,5.85-1.79,6.76-6.21a7,7,0,0,1,.51-2.39,9.45,9.45,0,0,1,2.16-1.78c.54.75,1.53,1.49,1.54,2.25q.17,11.09,0,22.16c0,.74-1.08,1.45-1.65,2.18-.7-.63-1.41-1.26-2.09-1.91-.07-.06-.07-.22-.08-.34-.44-7.85-4.28-8.55-10.94-8.66-4.34-.07-8.68,0-13,0-1.88,0-2.84.66-2.81,2.65.14,9-.07,18.07.44,27.07.4,7.12,2.37,8.73,9.48,9,4.91.19,9.83,0,14.75-.1,6.57-.17,11-3.43,13.4-9.55a45.86,45.86,0,0,1,2.27-5.53c.39-.72,1.56-1,2.38-1.5.38.82,1.22,1.74,1.08,2.45C483.49,77.43,482.17,83,481,88.64c-.46,2.17-2,2.26-3.75,2.25h-56.7a9.74,9.74,0,0,1-2.8-.13c-.61-.19-1.46-1-1.46-1.47a2.21,2.21,0,0,1,1.33-1.66c1.81-.45,3.7-.54,5.55-.87a6.24,6.24,0,0,0,5.52-5.57,44.13,44.13,0,0,0,.65-6.28q.07-28,0-55.95a35.45,35.45,0,0,0-.48-6c-.76-4.45-2.47-5.92-6.92-6.65-1.63-.27-4.53.62-4.23-2.24.26-2.39,2.89-1.31,4.43-1.32,16.89-.09,33.78-.07,50.67-.07,4.19,0,4.16,0,4.43,4.32s.64,8.42.94,12.63c.09,1.24.56,2.75-1.42,3-1.79.2-2-1.21-2.38-2.45C473.54,17.72,473,15,471.61,13s-3.44-4.21-5.43-4.43c-7.54-.85-15.17-1-22.76-1.18A3.47,3.47,0,0,0,441,9.73C440.8,20.37,440.85,31,440.85,42.07Z"/><path class="cls-1" d="M382.12,0c7,1.16,14.06,2.36,21.09,3.46,2.25.36,3.12,1.59,3.33,3.77.43,4.55,1.13,9.07,1.56,13.62.12,1.33,1.09,3.3-1.18,3.8s-2.33-1.48-2.8-2.86C401.47,14,396.89,8,388.43,6.26a47.27,47.27,0,0,0-10.81-1c-19.51.49-30.16,13.06-32.91,29.62-2.24,13.44-1,26.5,6.4,38.33,5.47,8.8,13.61,13.61,24,14.75,14,1.55,24.16-3.83,30.53-16.39a15,15,0,0,1,1.91-3.35c.57-.64,1.7-.79,2.58-1.16.25.79.89,1.7.7,2.36-1.75,6-3.58,11.89-5.58,17.77a3.92,3.92,0,0,1-2.42,2.17c-12.74,3-25.49,4.85-38.59,1.78-21.64-5.07-35.6-24.43-33.89-46.61C332.35,18.76,352,2.72,376.42.79c1.86-.14,3.75,0,5.62,0Z"/><path class="cls-1" d="M121.38,48.8c0,10.64-.3,20.61.12,30.53.23,5.4,2.16,6.77,7.48,7.64,1.5.25,3.06.24,4.52.63a2.21,2.21,0,0,1,1.34,1.62c0,.52-.84,1.22-1.45,1.5a5.44,5.44,0,0,1-2.09.11H101.39a5.65,5.65,0,0,1-2.09-.12c-.62-.29-1.45-1-1.47-1.5a2.25,2.25,0,0,1,1.29-1.68,26.45,26.45,0,0,1,4.15-.7c3.37-.51,5.2-2.56,5.67-5.82a46.26,46.26,0,0,0,.57-6.65q.06-27.79,0-55.6a38.56,38.56,0,0,0-.4-5.26c-.65-4.81-2.42-6.46-7.19-7.19-1.56-.24-4.23.38-4-2.14s2.81-1.41,4.32-1.42c16.77-.09,33.55-.07,50.32-.07,4.12,0,4.08,0,4.32,4,.26,4.33.67,8.65.82,13,0,.93-.61,2.47-1.3,2.72-1.7.61-2.09-1-2.39-2.25C150.77,7,146.4,8,137.14,7.27c-4.2-.33-8.44,0-12.66-.06-2.29,0-3.47,1-3.46,3.39V40.86c0,2.15.86,2.9,2.93,2.86,5.74-.11,11.5,0,17.24-.17,4.73-.16,6.26-1.76,7.34-6.48.34-1.52-.24-4.13,2.42-3.91s1.6,2.73,1.63,4.24c.14,6,.07,12,.06,17.94a8.44,8.44,0,0,1-.17,2.79,2.56,2.56,0,0,1-1.67,1.36c-.46.09-1.18-.52-1.61-1-.28-.29-.27-.88-.34-1.34-1.11-8.33-4.09-8-10.13-8.31C133,48.59,127.26,48.8,121.38,48.8Z"/><path class="cls-2" d="M.44,2.62H23.7c3,0,6.1-.1,9.13.07.94.06,2.46.73,2.62,1.38C35.91,6,34.08,6,32.91,6c-7.53.43-9.06,3.56-9.11,10.59-.12,19.68-.06,39.37-.06,59.06a26.33,26.33,0,0,0,.18,2.81c.58,5.65,2.48,7.46,8.16,8.22,1.52.2,4.18-.67,4.16,1.9,0,2.83-2.71,1.53-4.15,1.55-9.25.14-18.51.07-27.77.07a8.33,8.33,0,0,1-2.44-.12A2,2,0,0,1,.63,88.84a2.21,2.21,0,0,1,.84-1.64,3,3,0,0,1,1.68-.4c7.65-.31,8.8-4.14,8.83-9.66.1-20.27.23-40.54,0-60.81-.09-8-1.42-9-9.39-10.25C.83,5.8-.81,5.54.44,2.62Z"/><path class="cls-2" d="M41.63,40.74c3.43,4,6.5,7.64,9.71,11.19C59.52,61,67.7,70,76,78.94c3.44,3.7,7.15,7.14,12.53,7.9,1.76.25,1.86,1.48,1.1,3.28-6.16,0-12.46.14-18.75-.13-1.18,0-2.42-1.66-3.4-2.77Q51.34,68.88,35.27,50.46c-1.46-1.67-3-3.3-4.69-5.22,1-1.13,1.87-2.18,2.81-3.17Q47,27.79,60.53,13.52A8.47,8.47,0,0,0,62,12c.71-1.27,1.27-2.62,1.9-3.94l-4-1.69c-1.52-.64-4.5.63-4.21-2.3C55.93,1.56,58.53,2.73,60,2.7c7.85-.13,15.71-.05,23.57-.05a6.11,6.11,0,0,1,2.09.06A12.69,12.69,0,0,1,88,4.15c-.67.61-1.32,1.71-2,1.76-7.8.5-13.55,4.77-18.88,9.92l-22.75,22A37.09,37.09,0,0,0,41.63,40.74Z"/><path class="cls-1" d="M0,112.63V104c1.38-.1,2.63-.27,3.87-.28h83c3.77,0,3.85.11,3.87,4v2.81c0,1.44-.66,2.17-2.14,2.13H0Z"/></g></g></g></svg>