<svg xmlns="http://www.w3.org/2000/svg" viewBox="0 0 481.71 123.43"><defs><style>.cls-1{fill:#ff7b00;}.cls-1,.cls-2{fill-rule:evenodd;}.cls-2{fill:#040607;}</style></defs><title>naspers</title><g id="Layer_2" data-name="Layer 2"><g id="Layer_1-2" data-name="Layer 1"><g id="Layer_1-2-2" data-name="Layer 1-2"><path class="cls-1" d="M18.75,17.41l22.64,24C43,42.81,47,46.52,44,50.56c0,0-1.09,4.15-7.86,2.19L2.93,42.89A61.68,61.68,0,0,1,7.58,32.06L39.75,49.8c3.28.32,2.18-2.84.87-3.28L11.25,26.17A63.3,63.3,0,0,1,18.75,17.41Z"/><path class="cls-1" d="M33.53,6.79l14,28.05s4.48,7.64,2,13.76a17,17,0,0,1-11.9,12.23S18.89,61.91,0,61.81V61.7A62.42,62.42,0,0,1,1.22,49.43L36,56.24s5.35.11,8.41-4.15c0,0,4.15-4.59.65-12l-21.35-27a62.27,62.27,0,0,1,9.78-6.27Z"/><path class="cls-1" d="M50.76,1c5.18,30.08,5.59,35.5,5.59,35.5s3.17,22.8-22.61,33.61c0,0-10.92,4.65-30.94,10.08-.34-1.1-.65-2.22-.93-3.34L.51,69.67q-.1-.77-.18-1.53c3.89,0,29.05-3,29.05-3s11.35-1.42,15.94-6.55c0,0,13.32-7.86,3.6-31.78,0,0-1.81-4.72-9.46-22.72A61.36,61.36,0,0,1,50.76,1Z"/><path class="cls-1" d="M106.5,19.18l-23,22.75c-1.75,1.31-5.68,4.92-3,9.07,0,0,1,4.15,7.76,2.4l32.84-8.5A60.76,60.76,0,0,0,117,34.07L84.85,50.34c-3.27.22-2.07-2.84-.76-3.27l29.5-18.92a62.11,62.11,0,0,0-7.09-9Z"/><path class="cls-1" d="M92.26,8.05,77.53,35.16S73,42.59,75.24,48.81A16.86,16.86,0,0,0,86.6,61.48s18.32,1.69,36.87,2.26v-2a62.58,62.58,0,0,0-.85-10.23L88.35,56.89s-5.36-.1-8.3-4.36c0,0-3.93-4.81-.22-12.12L101.7,14.65A61.2,61.2,0,0,0,92.26,8.05Z"/><path class="cls-1" d="M75.42,1.53c-6,29.56-6.62,34.94-6.62,34.94s-4,22.72,21.4,34.4c0,0,10.51,4.89,30,11A61.27,61.27,0,0,0,123,70.08c-5.47-.4-28.26-4-28.26-4s-11.25-1.75-15.73-7c0,0-13-8.41-2.4-32,0,0,2-4.54,10-21.91A61.87,61.87,0,0,0,75.5,1.53Z"/><path class="cls-1" d="M62.46,43.24C60.06,57,47.18,70.33,47.18,70.33c10.15-3.61,29.81,0,29.81,0A58.73,58.73,0,0,1,62.46,43.24ZM57,.18C58.58.06,60.13,0,61.7,0a62,62,0,0,1,6.39.33C63.68,31.38,66,40,66,40c2.51,27,28.61,37.13,28.61,37.13,18.18,9.32,22,11.23,22.76,11.6a61.53,61.53,0,0,1-6.22,10.17L92.82,85.07a70.39,70.39,0,0,0-14.74-9.5,46,46,0,0,0-17.14-3.06c-6.67,0-12.78.22-21.3,5.24-8.2,4.76-26.27,17.13-28.85,18.9-.82-1.21-1.61-2.44-2.35-3.71L5.6,87.48,5,86.13,34,73.82c1.53-.65,12.56-7.53,17.48-14.41a50,50,0,0,0,8.19-22.17c.54-5.55-1.8-29.3-2.59-37.06Z"/><path class="cls-1" d="M76.64,121.69,68,90.86c-.32-2.08-1.63-7.32-6.55-7,0,0-4-1.09-5.9,5.57L47.24,121.8a61.45,61.45,0,0,0,11.38,1.63l1.44-35.52c1.31-3,3.39-.33,3.17,1l2.23,34.5a61.27,61.27,0,0,0,11.18-1.7Z"/><path class="cls-1" d="M93.29,114.85,76.77,89s-4.26-7.75-10.7-8.74a17.2,17.2,0,0,0-16.71,3.83S39.3,98.87,29.93,114.7a61.57,61.57,0,0,0,10.94,5.2L52.53,87.8s2.73-4.59,7.86-5c0,0,6.11-1.2,10.7,5.57L83,119.77a60.83,60.83,0,0,0,10.34-4.92Z"/><path class="cls-1" d="M107.27,103.48c-23-19.73-27.33-22.89-27.33-22.89S62,66.07,39.42,82.67c0,0-9.21,6.72-23.6,20.38a62.28,62.28,0,0,0,8.8,8.07c3.72-5.38,16.88-22.23,16.88-22.23s7-9,13.76-10.26c0,0,13.65-7.43,29.15,13.32,0,0,3,4,14.23,19.34A60.89,60.89,0,0,0,107.27,103.48Z"/><path class="cls-2" d="M141.22,28.88a43.63,43.63,0,0,1,8.95,9v40c0,1.2-.11,10.59-2.18,17.47h14.08C160,90,159.34,81.7,159.34,75.91V49.63l28.29,36.15a32.2,32.2,0,0,1,5.68,9.5h12.34c-1-2.73-2.19-6.23-2.19-16.49V43.08a51.86,51.86,0,0,1,1.64-14.2H192.32c1.1,3.83,1.86,6.88,1.86,19.11V78.24l-30-38.11c-5.24-6.66-5.9-8.3-7.1-11.25Z"/><path class="cls-2" d="M242.78,28.56h-.55L216.57,79.44c-5.46,10.93-7.43,13.33-9.61,15.84h16.16c-.33-5.24,2.29-10.92,3.38-13.43l3.39-7.21h23.37l3.82,9c2.4,5.46,2.73,8.85,2.73,11.69l15.84-.11c-2.52-3.39-5.57-7.64-10.38-18ZM242,49.09l7.75,17.8H233.6Z"/><path class="cls-2" d="M309.61,31.29a32.9,32.9,0,0,0-13.54-3.17c-10.81,0-19.66,8.73-19.66,19.22,0,10.15,5.68,13.65,19.88,22.49,2,1.32,5.56,4.26,5.56,8.85S297.7,88,291.92,88c-6.12,0-9.94-4.58-13-8.08V94a37.21,37.21,0,0,0,11.47,1.75c13.87,0,22.49-8,22.49-18.9,0-6.44-2.73-11.68-12.23-17.14-8.41-4.81-14-8.08-14-14.31,0-5.24,4.58-8.95,10.37-8.95s9.61,2.84,12.56,5.24V31.29Z"/><path class="cls-2" d="M317.36,73.66a74.57,74.57,0,0,1-2.95,21.62h15.51A93,93,0,0,1,327.3,76.5V65.68l2.62.11c8.41.66,21.73-3.82,21.73-18.34,0-11.25-9.06-18.57-22.39-18.57H314.85c1,2.41,2.51,6,2.51,17.8v27Zm9.94-33c0-2.19.22-5.14.33-7.43,3.16.44,6.55.88,9.28,3.82a15.85,15.85,0,0,1,4.26,11c0,11.91-9.61,13.76-13.87,14.42V40.66Z"/><path class="cls-2" d="M353.4,28.88a58.08,58.08,0,0,1,2.51,16.82V78.24a54.46,54.46,0,0,1-2.51,17h34.83l4.81-11C379,89,374.26,89,365.85,89V64.7c5,.44,7.53.77,15.07,3l5.68-9.28H365.85V35.11c7-.22,10.81.65,18.34,4l5-10.27Z"/><path class="cls-2" d="M397.52,78.13a74.32,74.32,0,0,1-1.75,17.15H409.2c-1.75-7.1-1.86-9.17-1.86-14.31V64.59c13.76,18.24,17.91,23,26.87,30.69h9.06c-7.86-9.39-16-19.33-21.95-29.7,2.95-1.64,12.56-7,12.56-17.8,0-9-8.08-19.22-25.12-18.9l-13,.11c.76,2.3,1.75,6,1.75,13.76V78.13Zm9.82-43.57c13.33,1.31,16.49,9.28,16.49,14.2,0,10.26-10.15,13.1-16.49,14.85v-29Z"/><path class="cls-2" d="M478.44,31.29A32.76,32.76,0,0,0,465,28.12a19.49,19.49,0,0,0-19.65,19.22c0,10.15,5.57,13.65,19.76,22.49,2,1.32,5.57,4.26,5.57,8.85A9.68,9.68,0,0,1,460.86,88c-6.12,0-10.05-4.58-13.11-8.08V94a37.82,37.82,0,0,0,11.47,1.75c13.87,0,22.49-8,22.49-18.9,0-6.44-2.62-11.68-12.23-17.14-8.3-4.81-13.87-8.08-13.87-14.31,0-5.24,4.48-8.95,10.27-8.95s9.61,2.84,12.56,5.24V31.29Z"/></g></g></g></svg>