<svg xmlns="http://www.w3.org/2000/svg" height="50" viewBox="0 0 188.91 186.59"><title>nonibrands</title><g id="Layer_2" data-name="Layer 2"><g id="Layer_1-2" data-name="Layer 1"><g id="SzVN2Z.tif"><path d="M172.77,186.59,162,182l3-4.15a6.74,6.74,0,0,1,1.66.44,17.25,17.25,0,0,0,11,2.45c3.67-.38,5.75-2.14,5.88-4.93.12-2.6-1.59-4.4-5-5.18-1.46-.34-2.94-.58-4.42-.83-6.38-1.09-10.25-4.95-10.32-10.31-.07-5.6,4-10,10.45-10.69a18.07,18.07,0,0,1,13.27,3.86l-2.5,3.75a55.32,55.32,0,0,0-6.91-1.92,14.25,14.25,0,0,0-5.36.29,4.46,4.46,0,0,0-3.37,4.47,4.34,4.34,0,0,0,3.19,4.55,32.44,32.44,0,0,0,3.37.82,59.62,59.62,0,0,1,5.86,1.2,10.42,10.42,0,0,1,.21,19.69l-3.23,1.12Z"/><path d="M185.43,81.15H1.06C3.35,47.46,33.15,6.37,81.65.68,136.67-5.77,179.75,34.47,185.43,81.15Z"/><path d="M13.45,139.14H0V94.68c2.11-.08,4.2-.2,6.29-.24s4.31,0,6.78,0l1.12,5.6c1.51-1.21,2.74-2.3,4.07-3.24,11-7.75,25.42-1.51,26.33,11.82.68,9.94.14,20,.14,30.39H31c-.1-1.7-.26-3.32-.27-4.93,0-7,0-14-.05-21a20,20,0,0,0-.78-5.88A6.4,6.4,0,0,0,22,103a11.36,11.36,0,0,0-8.26,10.55c0,6.83,0,13.65,0,20.48C13.7,135.61,13.55,137.23,13.45,139.14Z"/><path d="M105.07,116.69c.5,14.5-10.29,21.67-20.31,23s-19.33-.49-25.83-9.22a22.75,22.75,0,0,1,8.13-34,28.2,28.2,0,0,1,25.49-.13C101,100.34,105.15,107.29,105.07,116.69Zm-35.88.24c.58,3.09.81,6.11,1.74,8.9a8.77,8.77,0,0,0,9.24,6.2c4.2-.22,7.27-2.19,8.69-6.3a27.1,27.1,0,0,0,.33-17.14c-1.41-4.58-4.28-6.71-8.71-6.85s-7.82,1.82-9.36,6C70.07,110.68,69.8,113.88,69.19,116.93Z"/><path d="M146.35,139.33c0-8.12,0-15.42,0-22.72a47.88,47.88,0,0,0-.59-8c-.94-5.17-5.55-7.51-10.08-5-4,2.27-7.06,5.27-6.78,10.65.32,6.48.07,13,.07,19.48v5.26H115.77c-1.14-3.9-1.24-39.6-.09-44.4h12.57l1.27,4.94c1.78-1.22,3.33-2.38,5-3.39,9.77-6,21.79-1.91,24.84,8.39a8.92,8.92,0,0,1,.46,2.43c0,10.47,0,20.94,0,31.71C155.53,140.14,151.32,139.25,146.35,139.33Z"/><path d="M172.17,93.74h14.2v45.52h-14.2Z"/><path d="M.7,185.68V149.1c6.34-.17,12.49-.93,18.49.69,6.19,1.68,8.39,9.65,4.24,14.58a27.86,27.86,0,0,1-2.82,2.52c4.52,2.57,5.89,6.24,5.22,10.76-.59,4-3.78,7.68-7.82,7.94C12.42,186,6.79,185.68.7,185.68Zm5.38-5c3.47,0,6.59.22,9.67-.06,3.33-.31,5-2.54,4.86-5.72a5.11,5.11,0,0,0-4.95-5.21c-3.09-.22-6.2,0-9.58,0ZM6,164.57c2.19,0,3.83,0,5.47,0a33.87,33.87,0,0,0,3.49,0c3.26-.35,4.9-2.07,5-5.09s-1.37-5.14-4.57-5.48A88.8,88.8,0,0,0,6,153.88Z"/><path d="M123.72,185.27c-3.48,1.37-5.39.11-7-2.52-3.74-6.1-7.64-12.11-11.5-18.14-.86-1.35-1.81-2.66-3.44-5v25.84l-5,.45c0-12.31,0-24.21,0-36.12,4.18-1.06,4.26-1.09,6.45,2.29,3.89,6,7.69,12.07,11.56,18.1.84,1.3,1.81,2.53,2.72,3.79l1-.4V149.38h5.2Z"/><path d="M132.29,185.68V149.31c6-.64,11.86-1.14,17.43.59,5,1.55,7.92,5.51,8.2,10.85a123.7,123.7,0,0,1,0,13.48,11.91,11.91,0,0,1-10.68,11.37C142.47,186,137.63,185.68,132.29,185.68Zm5.62-5.07c2.05.1,3.53.23,5,.23a21.15,21.15,0,0,0,3.47-.22c3.59-.58,6.06-3,6.26-6.66a114.72,114.72,0,0,0,0-12.44,7.19,7.19,0,0,0-6.41-7.17c-2.66-.42-5.45-.08-8.3-.08Z"/><path d="M50.87,169.86c2.65,5.25,5.18,10.25,7.74,15.34-5.5,1.09-5.62,1.05-7.74-3.2-1.18-2.38-2.28-4.8-3.44-7.19-2.53-5.19-2.54-5.19-9.39-4.44-.08,2.3-.2,4.71-.24,7.13s0,4.95,0,7.84l-5.21.66c-.3-12.32-.09-24.19-.14-36.86,6.71-.15,13.15-1.3,19.33,1,6.83,2.56,8.21,11.86,2.78,17A42.07,42.07,0,0,1,50.87,169.86Zm-12.7-16.07v11.38c3.48,0,6.66.32,9.73-.09,3.23-.42,4.93-2.94,4.81-6s-2-5-5.55-5.23C44.35,153.64,41.52,153.79,38.17,153.79Z"/><path d="M60.8,185.23c4.14-11.45,8.13-22.53,12.15-33.59.52-1.43,1.15-2.72,3.09-2.69a3.22,3.22,0,0,1,3.27,2.48c4,11.22,8.13,22.43,12.36,34.11H86.3c-1-2.5-2-4.93-3.06-7.56H69.13c-.55,1.38-1.11,2.74-1.63,4.11C66,186.07,66,186.07,60.8,185.23Zm15.89-27.8-1,.07c-1.6,4.83-3.19,9.67-4.93,14.94H81.67C79.9,167.11,78.3,162.27,76.69,157.43Z"/></g></g></g></svg>