<svg xmlns="http://www.w3.org/2000/svg" viewBox="0 0 280.44 89.19"><defs><style>.cls-1{fill:#1392d1;}.cls-2{fill:#1a2f59;}</style></defs><title>orica</title><g id="Layer_2" data-name="Layer 2"><g id="Layer_1-2" data-name="Layer 1"><path class="cls-1" d="M170.06,30.6c11.31,0,16.25,6.25,16.06,10.59s-4.94,8.22-11.79,9.21v.09c2.39.83,3.37,2.17,4.54,4.14l6.39,11.22H174.1l-3.95-7.14c-3-5.84-3.43-7.14-5.78-7.13h-2l-3.08,14.27H147.07l7.68-35.25h15.31m-6.51,15.5h3c6.41,0,7.72-2.48,8.26-5.11s-1.51-4.5-6.22-4.5h-3Z"/><path class="cls-1" d="M245,39.12a19.8,19.8,0,0,0-10.53-2.75c-13.76,0-15.68,8.65-15.68,14.41,0,6.1,2.11,10,9.65,10,4.91,0,9.18-1.17,13.6-7.62l2.91,8.81C236.82,67.26,232.66,67,227.57,67c-12.44,0-20.82-6.26-20.82-16.38,0-12.46,11.43-21,27.92-19.95a29.33,29.33,0,0,1,11.66,3L245,39.12"/><path class="cls-1" d="M280.44,66.18H268.56l-1.81-8.6h-16.1l-5.71,4.35-13,4.25L258.6,31.35h12.28l9.56,34.83M254.76,51.72h10.8l-2.49-13.16h-.17Z"/><path class="cls-1" d="M127.2,29.45c-13,0-24.6,8.55-25.89,19.11s8.2,19.12,21.21,19.12,24.6-8.56,25.89-19.12S140.2,29.45,127.2,29.45m7.54,19.11c-.85,6.92-6,12.54-11.42,12.54s-9.18-5.62-8.33-12.54,6-12.54,11.4-12.54S135.59,41.64,134.74,48.56Z"/><polyline class="cls-1" points="199.31 65.65 187.4 65.65 194.41 31.21 206.31 31.21 199.31 65.65"/><path class="cls-1" d="M21.88,2.61C34.24-4.7,52.66,5.28,58.39,9c10.81,7.1,30.08,27.09,32.45,44.28,2.7,19.61-1.69,28.74-9.47,32.46a39.1,39.1,0,0,1-37.52-3C29.31,73.26,25.26,64.81,25.26,64.81L38.11,52.64S54,69.54,64.47,69.54,83.4,64.13,81.37,52,73.59,25.6,59.06,16.47s-22.65-6.76-26.7-3.38S25.59,26.27,27,30.67a49.87,49.87,0,0,0,3.37,8.11,86.32,86.32,0,0,0-8,6.35c-2.36,2.37-6.88,6.59-6.88,6.59s-9.08-19-7-29.5S14.44,7,21.88,2.61"/><path class="cls-2" d="M32.67,73.73,25.29,65,39.21,52.21a61,61,0,0,0,5.41,4.73c2.5,1.85,4.56,3.27,4.56,3.27s10.89-11.29,13.1-17.29c1.28-3.52,4.57-16.1-7-14S33.44,37.81,25.16,45.1,3.94,66.54,1.21,74.38.12,88.85,8.4,87.88s13.05-4.47,16.54-7.08a77.06,77.06,0,0,0,7.73-7.07"/></g></g></svg>