<?xml version="1.0" encoding="UTF-8"?>
<svg xmlns="http://www.w3.org/2000/svg" width="33" height="31" viewBox="0 0 33 31">
    <g fill="none" fill-rule="evenodd" stroke="#00A0FC" stroke-linejoin="round" stroke-width="1.3">
        <path stroke-linecap="round" d="M17.146 18.913v-3.657M10.688 15.255v3.658l-6.47 2.333a3.912 3.912 0 0 0-2.572 3.685v3.112h15.5"/>
        <path d="M20.375 8.478c0 4.322-2.892 7.826-6.458 7.826-3.568 0-6.459-3.504-6.459-7.826 0-4.321 2.891-7.826 6.459-7.826 3.566 0 6.458 3.505 6.458 7.826z"/>
        <path d="M20.314 7.765c-.217.027-.366.018-.585.061-2.2.428-3.612-.377-4.823-2.517-.727 1.406-2.999 2.517-4.864 2.517a5.15 5.15 0 0 1-2.5-.608"/>
        <path stroke-linecap="round" d="M19.73 26.74h3.874V30l3.23-3.26h4.52v-7.827H19.73zM21.667 21.522h7.75M21.667 24.13h5.812"/>
    </g>
</svg>
