<?xml version="1.0" encoding="UTF-8"?>
<svg xmlns="http://www.w3.org/2000/svg" width="26" height="32" viewBox="0 0 26 32">
    <g fill="none" fill-rule="evenodd" stroke="#00A0FC" stroke-linejoin="round" stroke-width="1.3">
        <path stroke-linecap="round" d="M7.15 23.604h11.7v-9.041H7.15zM13 21.02v-2.582"/>
        <path stroke-linecap="round" d="M9.1 14.563V13.27c0-2.14 1.747-3.875 3.9-3.875 2.153 0 3.9 1.735 3.9 3.875v1.291"/>
        <path d="M13.65 17.792a.648.648 0 0 1-.65.645.648.648 0 0 1-.65-.645c0-.357.291-.646.65-.646.359 0 .65.29.65.646z"/>
        <path d="M.65 1.646h24.7v9.385c0 8.526-4.754 16.353-12.35 20.323C5.404 27.384.65 19.557.65 11.031V1.646zM.65 5.52h24.7"/>
    </g>
</svg>
