<?xml version="1.0" encoding="UTF-8"?>
<!DOCTYPE svg PUBLIC "-//W3C//DTD SVG 1.1//EN" "http://www.w3.org/Graphics/SVG/1.1/DTD/svg11.dtd">
<!-- Creator: CorelDRAW 2017 -->
<svg xmlns="http://www.w3.org/2000/svg" xml:space="preserve" width="1.61458in" height="0.276882in" version="1.1" style="shape-rendering:geometricPrecision; text-rendering:geometricPrecision; image-rendering:optimizeQuality; fill-rule:evenodd; clip-rule:evenodd"
viewBox="0 0 1592.73 273.13"
 xmlns:xlink="http://www.w3.org/1999/xlink">
 <defs>
  <style type="text/css">
   <![CDATA[
    .fil0 {fill:#00283F}
   ]]>
  </style>
 </defs>
 <g id="Layer_x0020_1">
  <metadata id="CorelCorpID_0Corel-Layer"/>
  <path class="fil0" d="M465.97 107.94c-1.32,-30.27 -21.72,-57.26 -64.5,-57.26 -39.49,0 -61.86,29.61 -63.84,57.26l128.34 0zm59.24 83.58c-13.82,44.76 -55.28,80.97 -118.48,80.97 -71.08,0 -133.58,-50.69 -133.58,-137.57 -0.02,-80.95 61.18,-134.92 127.65,-134.92 80.3,0 127.67,52 127.67,133.6 0,9.86 -1.3,18.42 -1.3,19.75l-191.54 0c1.34,38.82 32.92,67.13 71.76,67.13 37.5,0 57.26,-19.75 65.82,-44.76l52 15.83 0.02 -0.02 -0.01 -0.01zm714.74 -55.28c0,-53.31 -34.22,-80.95 -73.06,-80.95 -38.23,0 -73.06,27.64 -73.06,80.95 0,53.31 34.83,81.61 73.06,81.61 38.84,0 73.06,-28.3 73.06,-81.61zm63.11 0c0,78.98 -57.26,136.9 -136.23,136.9 -77.69,0 -135.59,-57.23 -135.59,-136.87 0,-78.3 57.27,-136.26 135.59,-136.26 78.32,0 136.23,57.31 136.23,136.26l0 -0.03 0 0zm226.4 -28.3c-1.32,-30.27 -21.71,-57.26 -64.5,-57.26 -39.49,0 -61.86,29.61 -63.81,57.26l128.34 0 -0.03 0zm59.91 83.58c-13.83,44.76 -55.28,80.97 -118.48,80.97 -71.09,0 -133.58,-50.69 -133.58,-137.57 0.01,-80.95 61.2,-134.92 127.68,-134.92 80.36,0 127.73,52 127.73,133.6 0,9.86 -1.32,18.42 -1.32,19.75l-191.54 0c1.34,38.82 32.92,67.13 71.76,67.13 37.5,0 57.26,-19.75 65.82,-44.76l52 15.83 -0.05 -0.02 -0.01 -0.01zm-935.19 -183.63c-52.66,0 -80.3,30.28 -80.3,86.88l0 169.8 61.24 0 0 -159.93c0,-33.57 4.6,-38.17 34.22,-38.17l55.28 0 0 -59.28 -70.42 0 0 0.66 -0.03 0.04 0.01 0zm-506.12 256.71l-26.97 0 -121.1 -256.71 68.43 0 66.49 146.78 65.15 -146.76 65.83 0 -117.82 256.65 0 0.03zm758.86 0l-26.98 0 -121.09 -256.71 68.43 0 66.49 146.78 65.15 -146.76 65.15 0 -117.14 256.67 0 0.02z"/>
 </g>
</svg>
