<?xml version="1.0" encoding="UTF-8"?>
<svg width="60px" height="61px" viewBox="0 0 60 61" version="1.1" xmlns="http://www.w3.org/2000/svg" xmlns:xlink="http://www.w3.org/1999/xlink">
    <!-- Generator: Sketch 46.2 (44496) - http://www.bohemiancoding.com/sketch -->
    <title>startup</title>
    <desc>Created with Sketch.</desc>
    <defs></defs>
    <g id="Pricing" stroke="none" stroke-width="1" fill="none" fill-rule="evenodd">
        <g id="Pricing-Page" transform="translate(-1158.000000, -476.000000)" fill-rule="nonzero" fill="#00A0FC">
            <g id="Group" transform="translate(1022.000000, 359.000000)">
                <g id="startup" transform="translate(136.000000, 117.000000)">
                    <ellipse id="Oval" cx="1" cy="59.5" rx="1" ry="1.5"></ellipse>
                    <circle id="Oval" cx="31.5" cy="28.5" r="1.5"></circle>
                    <path d="M46.5372,13.4648191 C45.592378,12.5201067 44.3361663,12 43,12 C41.6638337,12 40.407505,12.5203408 39.4628,13.4648191 C37.5124,15.4148682 37.5124,18.5877066 39.4628,20.5376387 C40.4381757,21.5126633 41.7188537,22 43,22 C44.2807951,22 45.5620584,21.5124292 46.5372,20.5376387 C48.4876,18.5875895 48.4876,15.4147512 46.5372,13.4648191 Z M44.8752451,18.8758485 C43.8412205,19.909508 42.1586624,19.909508 41.124872,18.8758485 C40.0908474,17.842189 40.0908474,16.1601517 41.124872,15.1263752 C41.625788,14.6255793 42.2916469,14.3498432 43,14.3498432 C43.7083531,14.3498432 44.374212,14.6255793 44.875128,15.1263752 C45.9091526,16.1601517 45.9091526,17.842189 44.8752451,18.8758485 Z" id="Shape"></path>
                    <path d="M14.3791944,47.7516558 C13.8255418,47.4508798 13.1534406,47.6967813 12.8777297,48.3006451 L11.5440115,51.2226256 C10.964037,52.4930149 9.79761913,53.3425368 8.49959166,53.4393887 L6.94838303,53.5552215 C6.68616765,53.5743242 6.51373678,53.4318449 6.43399029,53.3448486 C6.3542438,53.2578523 6.22330341,53.0693806 6.24114878,52.7835704 L6.34732872,51.091462 C6.43622096,49.6755516 7.21494822,48.4029722 8.37935849,47.7702718 L11.0577252,46.3153044 C11.6113777,46.0145284 11.8366755,45.2812043 11.5609646,44.6773405 C11.2853652,44.0734767 10.6131525,43.8275752 10.0594999,44.1283513 L7.38113321,45.5833187 C5.50826181,46.6007496 4.2559631,48.6472919 4.11297708,50.9245264 L4.00679714,52.6166349 C3.9494689,53.5300352 4.25685537,54.4250628 4.85021386,55.0723639 C5.39650519,55.668319 6.13541497,56 6.90276581,56 C6.96868213,56 7.0350446,55.9975665 7.10129553,55.9925779 L8.65250416,55.8767451 C10.7399661,55.7208818 12.6159604,54.3548574 13.548604,52.3114786 L14.8823222,49.3896197 C15.1580331,48.7856342 14.9327354,48.0524319 14.3791944,47.7516558 Z" id="Shape"></path>
                    <path d="M59.1881894,0.788328115 C58.6360968,0.241251776 57.8755191,-0.0448405056 57.1029878,0.00572957625 L56.0074747,0.0759854475 C46.1845381,0.706755862 36.9916269,5.47602146 30.785946,13.1610236 L28.2072479,16.3542472 L21.4589669,16.1549139 C21.4474821,16.1545603 21.4358801,16.1544424 21.4245124,16.1544424 C16.072577,16.1544424 11.0409281,18.2508021 7.25643893,22.0573501 L0.344674782,29.0097344 C0.0159505382,29.3403849 -0.0884677508,29.8348872 0.0784140041,30.2712752 C0.245295759,30.7077811 0.651952845,31.0046003 1.11626851,31.0284119 L15.747017,31.7844877 L15.1505085,32.5232352 C14.8499104,32.8956149 14.8023303,33.4135752 15.0302692,33.8348746 C15.2594972,34.2587674 15.4997413,34.6759411 15.7502984,35.0863957 L12.2807048,39.2294882 C11.9840912,39.5837145 11.9202215,40.0795135 12.1169872,40.4982197 C12.8748695,42.1090359 13.8807305,43.556354 15.1070301,44.7999772 C16.3630966,46.0740132 17.831867,47.1158276 19.472324,47.8967759 C19.632643,47.9731614 19.804564,48.0105291 19.9754303,48.0105291 C20.240402,48.0105291 20.503147,47.9204695 20.7169056,47.7461265 C21.4643578,47.1362207 22.3260723,46.4127974 23.1595436,45.7133035 C23.7535911,45.2146755 24.36135,44.7046131 24.9293808,44.234276 C25.268418,44.4395033 25.6116741,44.638483 25.9600866,44.8290933 C26.1363438,44.9255183 26.3295938,44.9730236 26.5221406,44.9730236 C26.7783229,44.9730236 27.0328644,44.8890937 27.2435761,44.7245347 L28.0455226,44.0985973 L28.800475,58.8770848 C28.8243823,59.3441214 29.1193551,59.7531614 29.5532008,59.9210211 C29.6905501,59.9740666 29.8332903,60 29.9750929,60 C30.2815506,60 30.5825003,59.8794098 30.807275,59.6532 L37.7191564,52.7008158 C41.5036455,48.8941499 43.5876752,43.8331338 43.5876752,38.4497188 L43.5876752,31.9669643 L46.3143871,29.8386594 C54.486085,23.4602278 59.4628881,13.8420105 59.9686898,3.45003545 L59.9966987,2.87407876 C60.0349034,2.09560599 59.7400477,1.33552233 59.1881894,0.788328115 Z M3.87966162,28.8013244 L8.9203344,23.7311137 C12.2562116,20.3756886 16.6905317,18.5259317 21.4075195,18.5213344 L26.3395551,18.6670328 L17.5841226,29.5095413 L3.87966162,28.8013244 Z M21.6519826,43.8959633 C21.037778,44.4113302 20.4081041,44.9398996 19.8237836,45.4233213 C18.6935816,44.8076394 17.6711964,44.039422 16.7777228,43.1331685 C15.9123752,42.2555595 15.175822,41.2562994 14.5818917,40.1555455 L17.1221508,37.1221657 C17.8902287,38.1586756 18.7309659,39.1404896 19.6392058,40.0602992 C19.6399089,40.0610065 19.6406121,40.0615959 19.6413152,40.0623032 C19.6415496,40.0625389 19.641784,40.0628926 19.6420184,40.0631283 C19.64237,40.063482 19.6427215,40.0637177 19.6430731,40.0640714 C20.6501061,41.0834888 21.733314,42.0189764 22.8823839,42.8649938 C22.4766644,43.203778 22.0609835,43.5526997 21.6519826,43.8959633 Z M41.2349237,38.4497188 C41.2349237,43.200831 39.3955914,47.6675013 36.0554953,51.02717 L31.0148225,56.0973807 L30.3114346,42.330059 L41.2348065,33.8038725 L41.2348065,38.4497188 L41.2349237,38.4497188 Z M57.6187509,3.33439618 C57.1465834,13.0354825 52.5006141,22.0143243 44.8721021,27.9687451 L26.4190115,42.3722597 C24.8887151,41.472843 23.4623683,40.4108713 22.1569639,39.2076806 L28.3782314,32.9499571 C28.837625,32.4878715 28.837625,31.738397 28.3782314,31.2761935 C27.9187206,30.81399 27.1737295,30.81399 26.7142187,31.2761935 L20.4988109,37.528023 C19.3560693,36.2555195 18.3439971,34.870913 17.4822825,33.3899994 L32.6125043,14.6532536 C38.4055513,7.47925682 46.9873049,3.0269678 56.1572464,2.43828018 L57.2527595,2.36802431 C57.39632,2.35906551 57.4924177,2.43073592 57.5367163,2.47458691 C57.5808978,2.51832001 57.6539086,2.61344834 57.646877,2.75855736 L57.6187509,3.33439618 Z" id="Shape"></path>
                </g>
            </g>
        </g>
    </g>
</svg>