<svg xmlns="http://www.w3.org/2000/svg" width="109" height="49" viewBox="0 0 109 49">
    <g fill="#00A0FC" fill-rule="nonzero">
        <path d="M27.541 9.763H2.204a1.922 1.922 0 1 0 0 3.846H27.54a1.922 1.922 0 1 0 0-3.846zM27.541 22.935H7.019a1.922 1.922 0 1 0 0 3.846h20.523a1.922 1.922 0 1 0-.001-3.846zM27.541 37.888H12.086a1.923 1.923 0 1 0 0 3.847H27.54a1.923 1.923 0 1 0 0-3.847zM103.98.641H38.777a4.803 4.803 0 0 0-4.797 4.797v38.725c0 1.396.609 2.643 1.564 3.52.055.048.109.098.168.138.833.7 1.893 1.138 3.065 1.138h65.203c1.168 0 2.227-.437 3.06-1.136.067-.045.126-.1.187-.154a4.772 4.772 0 0 0 1.548-3.506V5.438a4.804 4.804 0 0 0-4.797-4.797zM37.825 6.858L57.92 24.8 37.826 42.744V6.858zm33.55 24.801L40.947 4.487h60.867L71.377 31.66zm-10.567-4.28l9.287 8.293c.016.014.035.018.051.03.162.135.338.243.525.317.03.013.061.02.092.03.196.066.401.109.608.11h.01a1.94 1.94 0 0 0 .608-.11c.03-.01.061-.018.092-.03.187-.074.363-.182.524-.316.017-.015.036-.018.052-.031l9.29-8.294 19.862 17.735H40.946L60.81 27.379zM84.835 24.8l20.093-17.938V42.74L84.835 24.8z"/>
    </g>
</svg>
