<?xml version="1.0" encoding="UTF-8"?>
<svg width="165px" height="66px" viewBox="0 0 165 66" version="1.1" xmlns="http://www.w3.org/2000/svg" xmlns:xlink="http://www.w3.org/1999/xlink">
    <!-- Generator: Sketch 47.1 (45422) - http://www.bohemiancoding.com/sketch -->
    <title>business-insider</title>
    <desc>Created with Sketch.</desc>
    <defs></defs>
    <g id="Homepage" stroke="none" stroke-width="1" fill="none" fill-rule="evenodd">
        <g transform="translate(-233.000000, -5674.000000)" id="business-insider" fill-rule="nonzero" fill="#19636A">
            <g transform="translate(233.000000, 5674.000000)">
                <path d="M12.7593863,13.9183105 C12.000431,13.3787845 11.1688945,13.1268665 9.75922616,13.0548602 C9.10851319,13.0189613 8.74728568,13.0189613 8.20502487,13.0189613 C8.06049191,13.0189613 7.98833032,13.0909677 7.98833032,13.2706706 L7.98833032,21.7939295 C7.98833032,24.1676353 8.09678248,24.7791677 9.25325592,25.2464787 C10.2291156,25.6422007 11.0604423,25.6780995 11.8917691,25.6780995 C13.5185515,25.6780995 16.2655168,24.8146491 16.2655168,21.0744919 C16.2655168,18.8447989 15.5065614,15.8240792 12.7593863,13.9183105 L12.7593863,13.9183105 Z M7.98833032,11.0411862 C7.98833032,11.329003 8.09678248,11.4008007 8.24131544,11.4366995 C8.56667192,11.5089146 9.10872296,11.5446047 9.94025946,11.5446047 C11.1330235,11.5446047 11.9282694,11.4010094 12.542482,10.8614834 C13.4822609,10.1061469 14.0245217,8.81170188 14.0245217,7.04952848 C14.0245217,4.63971512 12.6148534,1.47498276 9.50624104,1.47498276 C9.0002708,1.47498276 8.67491431,1.47498276 8.31347703,1.54698914 C8.06028214,1.61899551 7.98812054,1.76279955 7.98812054,2.15831282 L7.98812054,11.0411862 L7.98833032,11.0411862 Z M3.65066339,10.4296538 C3.65066339,4.96322203 3.65066339,3.95617635 3.57829202,2.80532663 C3.50592066,1.58288797 3.21685474,1.00725439 2.02409073,0.755545153 C1.73502482,0.683747492 1.12039264,0.647639947 0.614422402,0.647639947 C0.216904324,0.647639947 0,0.575633572 0,0.323924331 C0,0.0722150892 0.25298512,0.000417428261 0.795245929,0 C2.7108845,0 4.98817013,0.10811392 5.71104469,0.10811392 C7.4821503,0.10811392 8.89202841,3.62061302e-19 10.1208732,0.000417428261 C16.6632446,0.000417428261 17.8199278,3.48865669 17.8199278,5.39484285 C17.8199278,8.3437648 16.1209838,10.1057295 14.1329739,11.6884087 C17.0970533,12.695037 20.7114261,15.2488631 20.7114261,19.45654 C20.7114261,23.3048111 17.7112659,27.2964689 11.0604423,27.2964689 C10.6268435,27.2964689 9.5786124,27.2244625 8.53017158,27.1883549 C7.44585973,27.1165573 6.36154789,27.0804497 5.81928708,27.0804497 C5.42155923,27.0804497 4.6263133,27.0804497 3.75890578,27.1165573 C2.92757905,27.1165573 1.98800994,27.1883549 1.2649256,27.1883549 C0.795036157,27.1883549 0.541841265,27.0804497 0.541841265,26.8287405 C0.541841265,26.6490376 0.686583995,26.5409237 1.12039264,26.5409237 C1.66244368,26.5409237 2.09625233,26.469126 2.42160881,26.3973284 C3.14448338,26.2533156 3.3253069,25.4622891 3.46983986,24.4191359 C3.65045362,22.9088804 3.65045362,20.0674462 3.65045362,16.7589098 L3.65045362,10.4296538 L3.65066339,10.4296538 Z M25.5896757,12.9112648 C25.5896757,8.27196714 25.6259662,7.4087255 25.5535949,6.43757865 C25.4812235,5.3587353 25.1921576,5.07112723 24.1800073,4.78331045 C23.9270222,4.71109536 23.3847614,4.67540524 22.9511625,4.67540524 C22.5895155,4.67540524 22.4091115,4.56729132 22.4091115,4.35168962 C22.4091115,4.13587921 22.625806,4.06387284 23.0956955,4.06387284 C24.7946395,4.06387284 26.9271824,4.13587921 27.8667515,4.13587921 C28.6622072,4.13587921 30.7947501,4.06387284 31.9514333,4.06387284 C32.4213228,4.06387284 32.6380173,4.13587921 32.6380173,4.35168962 C32.6380173,4.56729132 32.4574036,4.67540524 32.1322568,4.67540524 C31.7706098,4.67540524 31.589996,4.71130407 31.1926877,4.78331045 C30.3611512,4.92711448 30.1081661,5.3587353 30.035585,6.43757865 C29.9634234,7.40851678 29.9634234,8.27196714 29.9634234,12.9112648 L29.9634234,17.1909481 C29.9634234,21.6503342 30.8308309,23.3766088 32.3850322,24.5992562 C33.7947005,25.7144158 35.3130308,25.8219035 36.3975524,25.8219035 C37.7707204,25.8219035 39.3975028,25.4263903 40.6624284,24.2035342 C42.433534,22.549266 42.5059054,19.8879521 42.5059054,16.7591185 L42.5059054,12.9112648 C42.5059054,8.27196714 42.4698246,7.4087255 42.433534,6.43757865 C42.3611627,5.39484285 42.1081776,5.07112723 41.0962371,4.78331045 C40.843252,4.71109536 40.3009911,4.67540524 39.9393441,4.67540524 C39.5779068,4.67540524 39.3972931,4.56729132 39.3972931,4.35168962 C39.3972931,4.13587921 39.6141974,4.06387284 40.048006,4.06387284 C41.6745787,4.06387284 43.8071216,4.13587921 43.8432024,4.13587921 C44.2050592,4.13587921 46.3376021,4.06387284 47.5662371,4.06387284 C48.0000458,4.06387284 48.2171599,4.13587921 48.2171599,4.35168962 C48.2171599,4.56729132 48.0363363,4.67540524 47.6748991,4.67540524 C47.3134618,4.67540524 47.1326382,4.71130407 46.7351202,4.78331045 C45.8675029,4.92711448 45.6510181,5.3587353 45.578437,6.43757865 C45.5423562,7.40851678 45.5060656,8.27196714 45.5060656,12.9112648 L45.5060656,16.1839024 C45.5060656,19.600344 45.1446283,23.1969059 42.4698246,25.3904914 C40.2286198,27.26057 37.807011,27.5840769 35.7466297,27.5840769 C34.0837664,27.5840769 30.7947501,27.5122793 28.4813837,25.4983966 C26.854811,24.095629 25.5894659,21.8302458 25.5894659,17.4067585 L25.5894659,12.9112648 L25.5896757,12.9112648 Z M51.1799806,26.7928417 C50.6738006,26.57724 50.5655582,26.4330185 50.5655582,25.7498972 C50.5655582,24.0954202 50.7098814,22.1896515 50.7459622,21.686233 C50.7459622,21.2187134 50.8904952,20.894789 51.1436901,20.894789 C51.4329657,20.894789 51.4690465,21.1826058 51.4690465,21.3984162 C51.4690465,21.7939295 51.5774987,22.441152 51.7583222,22.9806781 C52.445116,25.24627 54.830644,26.0018151 56.8188637,26.0018151 C59.565829,26.0018151 61.2284825,24.2755405 61.2284825,22.1178539 C61.2284825,20.7870926 60.9029162,19.45654 58.0837893,17.8020631 L56.2403123,16.723011 C52.4811968,14.5294255 51.252352,12.4792266 51.252352,9.78222259 C51.252352,6.04206537 54.8669346,3.63246073 59.2765533,3.63246073 C61.3367249,3.63246073 62.9637171,3.92027752 63.794834,4.13587921 C64.0841097,4.20767687 64.2284329,4.31558208 64.2284329,4.5316012 C64.2284329,4.9273232 64.1201905,5.79035613 64.1201905,8.19996076 C64.1201905,8.84718328 63.9754478,9.17069019 63.7224626,9.17069019 C63.5055583,9.17069019 63.3973159,8.99098732 63.3973159,8.63137287 C63.3973159,8.34355609 63.2525732,7.40851678 62.5657794,6.61728151 C62.09589,6.04206537 61.0841593,5.17903244 59.0233584,5.17903244 C56.7464924,5.17903244 54.6859013,6.36557227 54.6859013,8.45146129 C54.6859013,9.81833013 55.1918715,10.8969648 58.047289,12.4794353 L59.3487149,13.1984555 C63.5414293,15.5003636 64.8428553,17.8379619 64.8428553,20.607181 C64.8428553,22.8725641 63.9750282,24.7071614 61.6618716,26.325322 C60.1437511,27.4043741 58.047289,27.5836595 56.3485547,27.5836595 C54.5054973,27.5838682 52.5533584,27.4045828 51.1799806,26.7928417 L51.1799806,26.7928417 Z M70.1920432,12.9112648 C70.1920432,8.27196714 70.1920432,7.4087255 70.1561721,6.43757865 C70.0838008,5.39484285 69.7584443,5.03501969 69.0716505,4.81920928 C68.7102132,4.71109536 68.3124854,4.67561395 67.9149673,4.67561395 C67.5898206,4.67561395 67.4087873,4.60360758 67.4087873,4.31579079 C67.4087873,4.13608793 67.6617724,4.06408155 68.1679524,4.06408155 C69.3609262,4.06408155 71.5293401,4.13608793 72.4330382,4.13608793 C73.2284939,4.13608793 75.2886654,4.06408155 76.51772,4.06408155 C76.9152381,4.06408155 77.168433,4.13608793 77.168433,4.31579079 C77.168433,4.60360758 76.9878192,4.67561395 76.662253,4.67561395 C76.3371063,4.67561395 76.0841211,4.71130407 75.7226839,4.78351916 C74.8550666,4.9273232 74.6020814,5.35894402 74.5297101,6.43778736 C74.4575485,7.4087255 74.4575485,8.27217585 74.4575485,12.9114735 L74.4575485,18.305899 C74.4575485,21.2548209 74.4575485,23.7005331 74.6018717,24.9953956 C74.7103238,25.822321 74.9274379,26.2898406 75.867007,26.4336446 C76.3006059,26.5058597 77.0236903,26.5417586 77.4935797,26.5417586 C77.855017,26.5417586 77.9995499,26.7214614 77.9995499,26.8656829 C77.9995499,27.0812846 77.7465648,27.1891898 77.3849178,27.1891898 C75.2886654,27.1891898 73.119832,27.0812846 72.2522147,27.0812846 C71.5293401,27.0812846 69.3607164,27.1891898 68.0955811,27.1891898 C67.6978532,27.1891898 67.4811587,27.0812846 67.4811587,26.8656829 C67.4811587,26.7216701 67.5896108,26.5417586 67.9871289,26.5417586 C68.4570183,26.5417586 68.8184556,26.5058597 69.1075215,26.4336446 C69.7582345,26.2900493 69.939058,25.8584285 70.0473004,24.9594967 C70.1916236,23.7007418 70.1916236,21.2550296 70.1916236,18.3061077 L70.1916236,12.9112648 L70.1920432,12.9112648 Z M85.3730383,23.0167856 C85.4451999,25.3902827 85.8429278,26.1095116 86.4573502,26.3255307 C86.999611,26.5052336 87.6140334,26.5411324 88.1200036,26.5411324 C88.4814409,26.5411324 88.6622644,26.6851452 88.6622644,26.8650568 C88.6622644,27.116766 88.3729887,27.1885637 87.9393899,27.1885637 C85.8792183,27.1885637 84.3967591,27.0806585 83.8186273,27.0806585 C83.5295613,27.0806585 82.0114408,27.1885637 80.3848682,27.1885637 C79.9510595,27.1885637 79.6619936,27.1528735 79.6619936,26.8650568 C79.6619936,26.6853539 79.8788979,26.5411324 80.1679639,26.5411324 C80.6017725,26.5411324 81.1799043,26.5052336 81.6141325,26.3975371 C82.4452495,26.1817267 82.5537017,25.3543839 82.5897824,22.69307 L82.8790581,4.56750003 C82.8790581,3.95617635 83.0957527,3.52455552 83.4213189,3.52455552 C83.818837,3.52455552 84.2526457,3.99207518 84.7946967,4.5316012 C85.1924246,4.9273232 89.9636904,9.78222259 94.5900037,14.2777162 C96.7590469,16.3995041 100.988052,20.7152949 101.457941,21.146707 L101.602474,21.146707 L101.276698,7.55232082 C101.241037,5.68224221 100.951761,5.14271618 100.193016,4.85510811 C99.7231263,4.67540524 98.9635416,4.67540524 98.5299427,4.67540524 C98.1324247,4.67540524 98.0237627,4.5316012 98.0237627,4.35168962 C98.0237627,4.09998038 98.3491192,4.06387284 98.8190087,4.06387284 C100.481872,4.06387284 102.180606,4.13587921 102.86761,4.13587921 C103.229047,4.13587921 104.421601,4.06387284 105.976012,4.06387284 C106.409821,4.06387284 106.698677,4.09977167 106.698677,4.35168962 C106.698677,4.53139249 106.518063,4.67540524 106.156626,4.67540524 C105.83106,4.67540524 105.578284,4.67540524 105.180557,4.78331045 C104.312939,5.03501969 104.060164,5.57454572 104.023873,7.30082029 L103.662436,26.57724 C103.662436,27.2603613 103.409451,27.5481781 103.156256,27.5481781 C102.614205,27.5481781 102.180606,27.2244625 101.85504,26.9005382 C99.8668202,25.0665671 95.8908003,21.290511 92.5659129,18.0896711 C89.0958633,14.780926 85.7342658,11.0764589 85.1194239,10.5371416 L85.0111815,10.5371416 L85.3730383,23.0167856 L85.3730383,23.0167856 Z M112.26435,12.9112648 C112.26435,8.27196714 112.26435,7.4087255 112.227849,6.43757865 C112.155688,5.39484285 111.866622,5.07112723 110.854262,4.78331045 C110.601486,4.71109536 110.059435,4.67540524 109.589546,4.67540524 C109.26398,4.67540524 109.047285,4.56729132 109.047285,4.35168962 C109.047285,4.13587921 109.30027,4.06387284 109.77016,4.06387284 C111.432813,4.06387284 113.457114,4.13587921 114.360602,4.13587921 C115.372542,4.13587921 122.420884,4.17156933 123.035516,4.13587921 C123.613858,4.09977167 124.120038,3.99207518 124.372813,3.95617635 C124.553637,3.92027752 124.734251,3.81237231 124.878784,3.81237231 C125.059607,3.81237231 125.095688,3.95617635 125.095688,4.09998038 C125.095688,4.31579079 124.915074,4.67561395 124.842493,6.07817291 C124.806622,6.40188853 124.734041,7.73264983 124.662089,8.09205556 C124.625798,8.23565088 124.553637,8.59547404 124.300652,8.59547404 C124.083747,8.59547404 124.047247,8.45167001 124.047247,8.19996076 C124.047247,7.98415035 124.011376,7.44462433 123.830762,7.08480116 C123.577358,6.54548385 123.324582,6.11407174 121.73409,5.97005899 C121.192039,5.8978439 117.396843,5.82625496 116.74613,5.82625496 C116.601807,5.82625496 116.529226,5.93416016 116.529226,6.11407174 L116.529226,13.6661838 C116.529226,13.8460954 116.565516,13.9901082 116.74613,13.9901082 C117.469005,13.9901082 121.589767,13.9901082 122.312642,13.9183105 C123.071807,13.8460954 123.541487,13.7742978 123.830762,13.4507909 C124.083747,13.2347717 124.1922,13.0550689 124.336942,13.0550689 C124.481265,13.0550689 124.589927,13.1988729 124.589927,13.3789932 C124.589927,13.5586961 124.517136,14.0621146 124.336942,15.6086863 C124.264151,16.2202187 124.1922,17.442866 124.1922,17.6584677 C124.1922,17.910177 124.155909,18.3417978 123.867053,18.3417978 C123.650148,18.3417978 123.577358,18.2336839 123.577358,18.0900886 C123.541487,17.7661642 123.541487,17.3708597 123.469115,16.974929 C123.288501,16.3636053 122.890564,15.8960856 121.69801,15.7883891 C121.119668,15.716174 117.505085,15.6443764 116.710259,15.6443764 C116.565516,15.6443764 116.529226,15.7883891 116.529226,15.9683007 L116.529226,18.4138042 C116.529226,19.4567487 116.493355,22.0460562 116.529226,22.944988 C116.601807,25.030877 117.577247,25.4983966 120.830812,25.4983966 C121.662139,25.4983966 122.999436,25.4624978 123.830972,25.1026746 C124.626008,24.7430602 124.987445,24.0958377 125.20414,22.8372915 C125.276931,22.5133671 125.348883,22.3697718 125.565997,22.3697718 C125.818982,22.3697718 125.855273,22.7654938 125.855273,23.088792 C125.855273,23.7721221 125.602078,25.8582198 125.421254,26.4695435 C125.20435,27.26057 124.915494,27.26057 123.72252,27.26057 C121.336992,27.26057 119.421143,27.2246712 117.867152,27.1528735 C116.312741,27.116766 115.119767,27.0806585 114.180198,27.0806585 C113.818341,27.0806585 113.131757,27.116766 112.373012,27.116766 C111.613846,27.1528735 110.818601,27.1885637 110.167888,27.1885637 C109.77037,27.1885637 109.553465,27.0806585 109.553465,26.8650568 C109.553465,26.721044 109.661917,26.5411324 110.059645,26.5411324 C110.529325,26.5411324 110.890762,26.5052336 111.180038,26.4330185 C111.830751,26.2894232 112.011155,25.714207 112.119607,24.8146491 C112.26435,23.5202041 112.26435,21.1105995 112.26435,18.3052728 L112.26435,12.9112648 L112.26435,12.9112648 Z M129.829824,26.7928417 C129.323854,26.57724 129.215192,26.4330185 129.215192,25.7498972 C129.215192,24.0954202 129.359725,22.1896515 129.396015,21.686233 C129.396015,21.2187134 129.540339,20.894789 129.793533,20.894789 C130.082809,20.894789 130.11889,21.1826058 130.11889,21.3984162 C130.11889,21.7939295 130.227762,22.441152 130.408375,22.9806781 C131.09475,25.24627 133.480697,26.0018151 135.468497,26.0018151 C138.215672,26.0018151 139.878116,24.2755405 139.878116,22.1178539 C139.878116,20.7870926 139.552969,19.45654 136.733633,17.8020631 L134.890365,16.723011 C131.13125,14.5294255 129.901986,12.4792266 129.901986,9.78222259 C129.901986,6.04206537 133.516778,3.63246073 137.926606,3.63246073 C139.986778,3.63246073 141.613351,3.92027752 142.444677,4.13587921 C142.733953,4.20767687 142.878486,4.31558208 142.878486,4.5316012 C142.878486,4.9273232 142.770034,5.79035613 142.770034,8.19996076 C142.770034,8.84718328 142.625291,9.17069019 142.372306,9.17069019 C142.155611,9.17069019 142.047159,8.99098732 142.047159,8.63137287 C142.047159,8.34355609 141.902626,7.40851678 141.215623,6.61728151 C140.745943,6.04206537 139.733793,5.17903244 137.673412,5.17903244 C135.396126,5.17903244 133.335745,6.36557227 133.335745,8.45146129 C133.335745,9.81833013 133.841715,10.8969648 136.697342,12.4794353 L137.998349,13.1984555 C142.191482,15.5003636 143.492489,17.8379619 143.492489,20.607181 C143.492489,22.8725641 142.624872,24.7071614 140.311715,26.325322 C138.793594,27.4043741 136.697342,27.5836595 134.998188,27.5836595 C133.155131,27.5838682 131.203412,27.4045828 129.829824,26.7928417 L129.829824,26.7928417 Z M147.829736,26.7928417 C147.323976,26.57724 147.215314,26.4330185 147.215314,25.7498972 C147.215314,24.0954202 147.359637,22.1896515 147.395928,21.686233 C147.395928,21.2187134 147.540461,20.894789 147.793655,20.894789 C148.082721,20.894789 148.118802,21.1826058 148.118802,21.3984162 C148.118802,21.7939295 148.227464,22.441152 148.408078,22.9806781 C149.094662,25.24627 151.4804,26.0018151 153.46841,26.0018151 C156.215585,26.0018151 157.878238,24.2755405 157.878238,22.1178539 C157.878238,20.7870926 157.553091,19.45654 154.733755,17.8020631 L152.890278,16.723011 C149.130952,14.5294255 147.902108,12.4792266 147.902108,9.78222259 C147.902108,6.04206537 151.51669,3.63246073 155.926309,3.63246073 C157.9869,3.63246073 159.613263,3.92027752 160.445009,4.13587921 C160.733865,4.20767687 160.878189,4.31558208 160.878189,4.5316012 C160.878189,4.9273232 160.769736,5.79035613 160.769736,8.19996076 C160.769736,8.84718328 160.625203,9.17069019 160.372009,9.17069019 C160.155104,9.17069019 160.046862,8.99098732 160.046862,8.63137287 C160.046862,8.34355609 159.902119,7.40851678 159.215325,6.61728151 C158.745436,6.04206537 157.733705,5.17903244 155.673114,5.17903244 C153.396038,5.17903244 151.335657,6.36557227 151.335657,8.45146129 C151.335657,9.81833013 151.841417,10.8969648 154.697045,12.4794353 L155.998261,13.1984555 C160.190975,15.5003636 161.492401,17.8379619 161.492401,20.607181 C161.492401,22.8725641 160.624574,24.7071614 158.311417,26.325322 C156.793507,27.4043741 154.697045,27.5836595 152.997891,27.5836595 C151.155043,27.5838682 149.203114,27.4045828 147.829736,26.7928417 L147.829736,26.7928417 Z M5.13207377,48.8455767 C5.13207377,43.3789362 5.13207377,42.3720992 5.0597024,41.2214582 C4.98733104,39.9983934 4.62589376,39.3872784 3.8308576,39.2073669 C3.43312975,39.0992529 2.9632403,39.0633541 2.52964143,39.0633541 C2.16799438,39.0633541 1.95129982,38.9915565 1.95129982,38.7041571 C1.95129982,38.488138 2.24036574,38.4161316 2.81870735,38.4161316 C4.19229488,38.4161316 6.46937073,38.5242455 7.51760178,38.5242455 C8.42129987,38.5242455 10.5538428,38.4161316 11.9272205,38.4161316 C12.39711,38.4161316 12.6863857,38.488138 12.6863857,38.7041571 C12.6863857,38.9915565 12.4694813,39.0633541 12.1080441,39.0633541 C11.746397,39.0633541 11.4573311,39.0994617 11.0235224,39.1718855 C10.0476628,39.3511709 9.75838707,39.962912 9.68622548,41.2216669 C9.61385411,42.3725167 9.61385411,43.3791449 9.61385411,48.8457854 L9.61385411,55.1750414 C9.61385411,58.6634894 9.61385411,61.5049236 9.7581773,63.0510779 C9.86683923,64.022016 10.1198244,64.6692385 11.204346,64.8132513 C11.7103162,64.8850489 12.5055621,64.9568466 13.0476132,64.9568466 C13.445341,64.9568466 13.6259548,65.0649605 13.6259548,65.2446634 C13.6259548,65.4963726 13.3368889,65.6042778 12.9393708,65.6042778 C10.553633,65.6042778 8.27655714,65.4963726 7.30048769,65.4963726 C6.46916096,65.4963726 4.19208511,65.6042778 2.74612621,65.6042778 C2.27644654,65.6042778 2.02325165,65.4963726 2.02325165,65.2446634 C2.02325165,65.0649605 2.1677846,64.9568466 2.60159325,64.9568466 C3.14385406,64.9568466 3.57766271,64.8848402 3.90301919,64.8132513 C4.62568398,64.6692385 4.84258831,64.0579148 4.95125024,63.0149703 C5.131864,61.5049236 5.131864,58.6632807 5.131864,55.1750414 L5.131864,48.8455767 L5.13207377,48.8455767 Z M23.5297139,61.4327085 C23.6020853,63.8062056 23.9996033,64.5254345 24.6142355,64.7414536 C25.1562866,64.9211565 25.7709187,64.9570553 26.276889,64.9570553 C26.6383262,64.9570553 26.8191498,65.1008593 26.8191498,65.2809796 C26.8191498,65.5326889 26.5300839,65.6044865 26.0962752,65.6044865 C24.0361037,65.6044865 22.554064,65.4965813 21.9755126,65.4965813 C21.6864467,65.4965813 20.1683262,65.6044865 18.5417535,65.6044865 C18.1079449,65.6044865 17.818879,65.568379 17.818879,65.2809796 C17.818879,65.1010681 18.0357833,64.9570553 18.3248492,64.9570553 C18.7586579,64.9570553 19.3369995,64.9211565 19.7708081,64.81346 C20.6021348,64.5976496 20.710587,63.7707242 20.7466678,61.1092016 L21.0359435,42.9836316 C21.0359435,42.3723079 21.252638,41.9408958 21.5779945,41.9408958 C21.9757224,41.9408958 22.4093213,42.4082068 22.9515821,42.9475241 C23.3493099,43.3432461 28.1205757,48.1981455 32.7470988,52.6936391 C34.9159323,54.815427 39.1449372,59.1310091 39.6148267,59.5626299 L39.7591499,59.5626299 L39.4340032,45.9682437 C39.3977126,44.0981651 39.1086467,43.5588478 38.3494815,43.2708223 C37.8795921,43.0915368 37.1206367,43.0915368 36.6866183,43.0915368 C36.2891002,43.0915368 36.1806481,42.9475241 36.1806481,42.7676125 C36.1806481,42.5159033 36.5062143,42.4797957 36.975894,42.4797957 C38.6387572,42.4797957 40.3374915,42.5520108 41.0242852,42.5520108 C41.3859323,42.5520108 42.5784865,42.4797957 44.1331074,42.4797957 C44.5667062,42.4797957 44.8557722,42.5159033 44.8557722,42.7676125 C44.8557722,42.9473154 44.6749486,43.0915368 44.3135114,43.0915368 C43.9879451,43.0915368 43.7351698,43.0915368 43.3374419,43.1992333 C42.4700344,43.4511513 42.2170493,43.9906773 42.1807587,45.7167432 L41.8191116,64.9931629 C41.8191116,65.6762842 41.5663363,65.964101 41.3133512,65.964101 C40.7710904,65.964101 40.3374915,65.6405941 40.0119252,65.316461 C38.0241251,63.48249 34.0478954,59.7064339 30.7225885,56.505594 C27.2527486,53.1970576 23.8911512,49.4925905 23.276519,48.9532732 L23.1680668,48.9532732 L23.5297139,61.4327085 L23.5297139,61.4327085 Z M51.7218219,65.2089733 C51.2160614,64.9931629 51.1073995,64.8489414 51.1073995,64.16582 C51.1073995,62.5115518 51.2519324,60.6057831 51.2880132,60.1021559 C51.2880132,59.634845 51.4325462,59.3109206 51.6857411,59.3109206 C51.974807,59.3109206 52.0110976,59.5985287 52.0110976,59.8143391 C52.0110976,60.2100611 52.1195497,60.8574924 52.3001635,61.3968097 C52.9867475,63.6624016 55.3724853,64.4175293 57.360705,64.4175293 C60.1076703,64.4175293 61.7703237,62.6914634 61.7703237,60.533568 C61.7703237,59.2032242 61.4449673,57.8724629 58.6258404,56.2181947 L56.7821536,55.1393513 C53.0230381,52.9451397 51.7941933,50.8955669 51.7941933,48.1981455 C51.7941933,44.4579883 55.4085661,42.0483836 59.8183946,42.0483836 C61.8787759,42.0483836 63.5053486,42.3359917 64.3366753,42.5520108 C64.625951,42.6240172 64.7704839,42.7317137 64.7704839,42.9475241 C64.7704839,43.3432461 64.661822,44.2060703 64.661822,46.6158836 C64.661822,47.2633149 64.5174988,47.5866131 64.2640941,47.5866131 C64.0473996,47.5866131 63.9387377,47.4069102 63.9387377,47.0472958 C63.9387377,46.7596877 63.7944145,45.8248571 63.1074109,45.0334131 C62.6375215,44.4579883 61.625581,43.5949553 59.5651997,43.5949553 C57.2881238,43.5949553 55.2277425,44.7817039 55.2277425,46.8675929 C55.2277425,48.234253 55.7337128,49.3133051 58.5889205,50.8955669 L59.8903464,51.6147958 C64.0832706,53.9162865 65.384277,56.2540935 65.384277,59.0231039 C65.384277,61.2889045 64.5168695,63.1230842 62.2037128,64.7412449 C60.6855923,65.8200882 58.5889205,65.9999998 56.8901862,65.9999998 C55.0477581,66.0002085 53.0956192,65.820297 51.7218219,65.2089733 L51.7218219,65.2089733 Z M73.7703352,51.3267703 C73.7703352,46.6874726 73.7703352,45.8248571 73.7344642,44.8535015 C73.6620928,43.8107657 73.3367363,43.4509426 72.6499425,43.2351322 C72.2885053,43.127227 71.8907774,43.0915368 71.4932593,43.0915368 C71.1676931,43.0915368 70.9870793,43.0193218 70.9870793,42.7317137 C70.9870793,42.5520108 71.2400644,42.4797957 71.7462444,42.4797957 C72.9392182,42.4797957 75.1076321,42.5520108 76.0113302,42.5520108 C76.8067859,42.5520108 78.8667477,42.4797957 80.096012,42.4797957 C80.4935301,42.4797957 80.746725,42.5520108 80.746725,42.7317137 C80.746725,43.0193218 80.5661113,43.0915368 80.240545,43.0915368 C79.9153983,43.0915368 79.6624132,43.1274357 79.3009759,43.1992333 C78.4333586,43.3432461 78.1803735,43.7748669 78.1080021,44.8537102 C78.0358405,45.8248571 78.0358405,46.6876813 78.0358405,51.326979 L78.0358405,56.7218219 C78.0358405,59.6709525 78.0358405,62.116456 78.1801637,63.4111097 C78.2886159,64.2384526 78.50573,64.7057635 79.4452991,64.8493588 C79.8788979,64.9215739 80.6019823,64.9574727 81.0718717,64.9574727 C81.433309,64.9574727 81.5776322,65.1371756 81.5776322,65.2813971 C81.5776322,65.4969988 81.3248568,65.604904 80.9632098,65.604904 C78.8667477,65.604904 76.698124,65.4969988 75.8305067,65.4969988 C75.1076321,65.4969988 72.9390085,65.604904 71.6738731,65.604904 C71.2761452,65.604904 71.0592409,65.4969988 71.0592409,65.2813971 C71.0592409,65.1373843 71.1676931,64.9574727 71.5654209,64.9574727 C72.0353104,64.9574727 72.3965379,64.9215739 72.6858136,64.8493588 C73.3365265,64.7057635 73.5173501,64.2741427 73.6255924,63.3752109 C73.7699156,62.1166647 73.7699156,59.6711612 73.7699156,56.7220306 L73.7699156,51.3267703 L73.7703352,51.3267703 Z M94.2646472,54.7073131 C94.2646472,57.9442605 94.300728,60.2818588 94.3370185,60.8931825 C94.3728896,61.6485189 94.4458902,62.7273623 94.6984558,63.0510779 C95.0961837,63.6265027 96.3611093,64.2737252 98.8550895,64.2737252 C101.746588,64.2737252 103.87934,63.7705155 105.795189,62.1878362 C107.85536,60.4976692 108.506283,57.7643489 108.506283,54.5998253 C108.506283,50.715864 106.951872,48.1981455 105.542204,46.9757068 C102.614205,44.3861906 99.1443651,44.0626837 96.650385,44.0626837 C95.9992524,44.0626837 94.9512312,44.1344814 94.6982461,44.2782854 C94.4091801,44.3861906 94.3005182,44.5302033 94.3005182,44.8896091 C94.2644374,45.9327623 94.2644374,48.4502721 94.2644374,50.8594594 L94.2644374,54.7073131 L94.2646472,54.7073131 Z M89.9995614,51.3267703 C89.9995614,46.6874726 89.9995614,45.8248571 89.963061,44.8535015 C89.8906897,43.8107657 89.6016238,43.4868414 88.5896833,43.1990246 C88.3364884,43.127227 87.7942276,43.0913281 87.3245479,43.0913281 C86.9991914,43.0913281 86.7824969,42.9832142 86.7824969,42.7674038 C86.7824969,42.5518021 87.035482,42.479587 87.5053714,42.479587 C89.1682347,42.479587 91.1921156,42.5518021 92.0960235,42.5518021 C93.0716734,42.5518021 95.3491688,42.479587 97.2650171,42.479587 C101.240827,42.479587 106.590225,42.479587 110.060275,45.968035 C111.650766,47.5507142 113.060435,50.1039142 113.060435,53.7365836 C113.060435,57.5848548 111.397781,60.4976692 109.590385,62.2598426 C108.144636,63.6980917 104.782829,65.8559871 98.927251,65.8559871 C97.7705678,65.8559871 96.3971901,65.7480819 95.1322645,65.6760755 C93.8671291,65.5679616 92.7102361,65.4963726 91.9152,65.4963726 C91.5535529,65.4963726 90.8667591,65.5324802 90.1080135,65.5324802 C89.3490582,65.5681703 88.5536025,65.6042778 87.9026797,65.6042778 C87.5053714,65.6042778 87.2884671,65.4963726 87.2884671,65.2807709 C87.2884671,65.1367582 87.3969193,64.9568466 87.7942276,64.9568466 C88.264117,64.9568466 88.6257641,64.9209478 88.9150398,64.8487327 C89.5657527,64.7051374 89.7463665,64.1299212 89.8548187,63.230572 C89.9993516,61.936127 89.9993516,59.5265223 89.9993516,56.7211957 L89.9993516,51.3267703 L89.9995614,51.3267703 Z M121.19183,51.3267703 C121.19183,46.6874726 121.19183,45.8248571 121.155749,44.8535015 C121.083377,43.8107657 120.794521,43.4868414 119.782161,43.1990246 C119.529386,43.127227 118.986915,43.0913281 118.517026,43.0913281 C118.192089,43.0913281 117.974975,42.9832142 117.974975,42.7674038 C117.974975,42.5518021 118.22817,42.479587 118.697849,42.479587 C120.360713,42.479587 122.384594,42.5518021 123.288501,42.5518021 C124.300442,42.5518021 131.348784,42.5874922 131.963416,42.5518021 C132.541967,42.5156946 133.047728,42.4079981 133.300713,42.3720992 C133.481746,42.335783 133.66215,42.2280865 133.806893,42.2280865 C133.987506,42.2280865 134.023797,42.3720992 134.023797,42.5159033 C134.023797,42.7317137 133.843183,43.0915368 133.770602,44.4940958 C133.734731,44.8176027 133.66194,46.148364 133.589988,46.5077697 C133.553908,46.6515738 133.481746,47.0113969 133.228551,47.0113969 C133.011857,47.0113969 132.975356,46.8675929 132.975356,46.6156749 C132.975356,46.4000732 132.939066,45.8605472 132.758662,45.500724 C132.505467,44.9614067 132.252482,44.5299946 130.6622,44.3857732 C130.119939,44.3137668 126.324742,44.2421778 125.674029,44.2421778 C125.529706,44.2421778 125.457335,44.3498743 125.457335,44.5299946 L125.457335,52.0823154 C125.457335,52.2620183 125.493416,52.4058223 125.674029,52.4058223 C126.396904,52.4058223 130.517667,52.4058223 131.240751,52.3340247 C131.999497,52.2620183 132.469386,52.1902207 132.758662,51.8667137 C133.011857,51.6509033 133.120099,51.4709918 133.265051,51.4709918 C133.409375,51.4709918 133.517827,51.6147958 133.517827,51.7944987 C133.517827,51.9744102 133.445246,52.47762 133.265051,54.0244004 C133.192051,54.6359328 133.120099,55.8585802 133.120099,56.0743906 C133.120099,56.3258911 133.084018,56.7577207 132.795162,56.7577207 C132.578048,56.7577207 132.505467,56.6498155 132.505467,56.5058027 C132.469386,56.1822958 132.469386,55.7867826 132.397224,55.3910606 C132.216611,54.7795282 131.818673,54.3120085 130.626119,54.2041033 C130.047987,54.1320969 126.433195,54.0602993 125.638368,54.0602993 C125.493416,54.0602993 125.457335,54.2041033 125.457335,54.3840149 L125.457335,56.8295183 C125.457335,57.8724629 125.421254,60.4617704 125.457335,61.3609108 C125.529916,63.4465911 126.505356,63.9141108 129.758921,63.9141108 C130.589828,63.9141108 131.927545,63.878212 132.758871,63.5183888 C133.554117,63.1591918 133.915974,62.5115518 134.132249,61.2530056 C134.20483,60.92929 134.276782,60.7856947 134.494106,60.7856947 C134.746881,60.7856947 134.783382,61.181208 134.783382,61.5049236 C134.783382,62.1876275 134.530187,64.2737252 134.349154,64.8848402 C134.132459,65.6760755 133.843603,65.6760755 132.650839,65.6760755 C130.265101,65.6760755 128.349253,65.6403854 126.795261,65.5679616 C125.24085,65.5322715 124.047667,65.4961639 123.108307,65.4961639 C122.74645,65.4961639 122.059866,65.5322715 121.301121,65.5322715 C120.542165,65.5679616 119.74692,65.6040691 119.095577,65.6040691 C118.698479,65.6040691 118.481784,65.4961639 118.481784,65.2805622 C118.481784,65.1365495 118.590027,64.9566379 118.987335,64.9566379 C119.457224,64.9566379 119.819081,64.920739 120.107937,64.848524 C120.75865,64.7049286 120.939264,64.1297125 121.047716,63.2303633 C121.192249,61.936127 121.192249,59.5265223 121.192249,56.7211957 L121.19183,51.3267703 L121.19183,51.3267703 Z M146.854925,53.7006848 C146.854925,54.0241917 146.927087,54.1320969 147.143991,54.2400021 C147.830575,54.4560213 148.770354,54.5278189 149.56602,54.5278189 C150.830945,54.5278189 151.264544,54.4199137 151.806595,54.0241917 C152.782874,53.3410704 153.867186,52.0103091 153.867186,49.4927992 C153.867186,45.1772171 150.903107,44.062475 149.023339,44.062475 C148.228513,44.062475 147.469348,44.0981651 147.143991,44.1703802 C146.927087,44.2423866 146.854925,44.3498743 146.854925,44.6017923 L146.854925,53.7006848 L146.854925,53.7006848 Z M142.806534,51.3267703 C142.806534,46.6874726 142.806534,45.8248571 142.770244,44.8535015 C142.697872,43.8107657 142.408806,43.4868414 141.396446,43.1990246 C141.143461,43.127227 140.60162,43.0913281 140.131731,43.0913281 C139.806374,43.0913281 139.589679,42.9832142 139.589679,42.7674038 C139.589679,42.5518021 139.842665,42.479587 140.312344,42.479587 C141.974998,42.479587 143.999298,42.5518021 144.649801,42.5518021 C145.734113,42.5518021 148.626031,42.479587 149.601681,42.479587 C151.625981,42.479587 153.939348,42.6597073 155.638082,43.7744495 C156.54178,44.3857732 157.879287,45.9323449 157.879287,47.9821263 C157.879287,50.247927 156.577861,52.2618096 153.469458,54.7432119 C156.288795,58.1955523 158.52979,60.9651888 160.445639,62.8709576 C162.216744,64.6329223 163.337137,64.776935 163.843317,64.8846315 C164.168673,64.9566379 164.349287,64.9566379 164.602272,64.9566379 C164.855257,64.9566379 165,65.1363407 165,65.2805622 C165,65.5322715 164.783096,65.6040691 164.385368,65.6040691 L161.349337,65.6040691 C159.578021,65.6040691 158.710614,65.4243662 157.879287,64.9927454 C156.50549,64.3096241 155.313145,62.8709576 153.54183,60.4974605 C152.276275,58.8429836 150.939397,56.7929934 150.54146,56.3254737 C150.360846,56.1457709 150.179603,56.109872 149.962908,56.109872 L147.107701,56.0380744 C146.963168,56.0380744 146.854716,56.109872 146.854716,56.2897836 L146.854716,56.7211957 C146.854716,59.5622125 146.890587,61.9359183 147.035329,63.230572 C147.143782,64.1299212 147.288315,64.7051374 148.264174,64.8487327 C148.734064,64.9209478 149.420857,64.9568466 149.818376,64.9568466 C150.071361,64.9568466 150.216103,65.1365495 150.216103,65.2807709 C150.216103,65.4963726 149.962908,65.6042778 149.5656,65.6042778 C147.721913,65.6042778 145.083191,65.4963726 144.613511,65.4963726 C143.999088,65.4963726 141.974788,65.6042778 140.709653,65.6042778 C140.312134,65.6042778 140.09523,65.4963726 140.09523,65.2807709 C140.09523,65.1367582 140.203682,64.9568466 140.60141,64.9568466 C141.07109,64.9568466 141.432737,64.9209478 141.721803,64.8487327 C142.372726,64.7051374 142.55292,64.1299212 142.661372,63.230572 C142.806115,61.936127 142.806115,59.5265223 142.806115,56.7211957 L142.806115,51.3267703 L142.806534,51.3267703 Z" id="Shape"></path>
            </g>
        </g>
    </g>
</svg>