<?xml version="1.0" encoding="UTF-8"?>
<svg width="200px" height="48px" viewBox="0 0 200 48" version="1.1" xmlns="http://www.w3.org/2000/svg" xmlns:xlink="http://www.w3.org/1999/xlink">
    <!-- Generator: Sketch 47.1 (45422) - http://www.bohemiancoding.com/sketch -->
    <title>entrepreneur</title>
    <desc>Created with Sketch.</desc>
    <defs></defs>
    <g id="Homepage" stroke="none" stroke-width="1" fill="none" fill-rule="evenodd">
        <g transform="translate(-312.000000, -5798.000000)" id="entrepreneur" fill-rule="nonzero">
            <g transform="translate(314.000000, 5800.000000)">
                <path d="M22.4341637,23.534093 L20.5557967,34.2222222 L1.94556853e-15,34.2222222 L1.94556853e-15,33.3577412 L0.608963287,33.3577412 C1.53445605,33.3577412 2.22337315,33.0680839 2.61876119,32.4629472 C3.01524448,31.8881234 3.09519829,31.3121769 3.09519829,29.0925938 L3.09519829,5.07012517 C3.09519829,2.880855 3.01524448,2.27571827 2.61876119,1.69977181 C2.2222779,1.12382535 1.53445605,0.835290773 0.608963287,0.835290773 L0,0.835290773 L0,0 L19.0213407,0 L19.0213407,9.59237145 L18.2809465,9.59237145 C18.0695617,7.25827264 17.3280723,4.8680387 16.1375271,3.62969767 C14.7093111,2.13201234 13.7038645,1.64139128 9.57693343,1.64139128 L8.7565854,1.64139128 L8.7565854,16.3892133 C12.0642637,16.2455074 13.3073812,14.6613739 13.6250059,9.50480065 L14.445354,9.50480065 L14.445354,24.8005016 L13.6250059,24.8005016 C13.4399074,19.8460148 12.0905499,18.1754332 8.7565854,18.1473657 L8.7565854,28.7198565 C8.7565854,31.9453812 9.15306869,32.550518 11.3227742,32.550518 C16.825349,32.550518 19.9468334,29.5832149 21.5612433,23.6216638 L21.6138157,23.534093 L22.4341637,23.534093 L22.4341637,23.534093 Z" id="Shape" stroke="#000000" stroke-width="2.851" fill="#000000" stroke-linecap="square"></path>
                <path d="M28.7038481,15.916767 C30.8255301,13.3262421 32.3962592,12.3372151 34.3525413,12.3372151 C35.950647,12.3372151 37.3285996,13.1810638 38.0164352,14.4320923 C38.4293647,15.2475859 38.7054115,16.0619453 38.7875411,16.9352834 C38.8708114,18.2158012 38.9255645,19.9908324 38.9255645,22.1446883 L38.9255645,31.2228675 C38.9255645,33.6092355 39.283741,33.98806 40.3582702,34.0765281 L40.3582702,34.9498661 L32.0095656,34.9498661 L32.0095656,34.0765281 C33.1399886,33.9302156 33.4148947,33.639859 33.4148947,31.2228675 L33.4148947,20.922015 C33.4148947,19.6120079 33.3601417,18.0116442 33.3042479,17.4592862 C33.1662245,16.120924 32.7259184,15.4506086 31.8167891,15.4506086 C30.9076598,15.4506086 29.9985304,16.1492791 28.7038481,17.9243104 L28.7038481,31.2228675 C28.7038481,33.6092355 29.0072715,33.9302156 30.0544242,34.0765281 L30.0544242,34.9498661 L21.7330961,34.9498661 L21.7330961,34.0765281 C22.8623784,33.98806 23.1658018,33.639859 23.1658018,31.2228675 L23.1658018,16.8184602 C23.1658018,14.3447585 22.8076254,13.9092236 21.7330961,13.7629112 L21.7330961,12.9190624 L28.7038481,12.9190624 L28.7038481,15.916767 L28.7038481,15.916767 Z M53.1157388,14.1428699 L48.3773157,14.1428699 L48.3773157,28.5484114 C48.3773157,30.9631345 48.4320688,31.546116 48.5974687,31.9816509 C48.7902452,32.3604754 49.3138216,32.7971445 49.7278918,32.7971445 C50.3335978,32.7971445 51.9317034,32.1574527 52.6480563,30.5843099 L53.2811388,31.0516025 C52.2625033,33.7271928 49.892151,35.6190473 47.2468926,35.6190473 C45.4405978,35.6197869 43.8439449,34.451856 43.306952,32.7370316 C43.0779672,31.8410912 42.9396362,30.9246332 42.8940224,30.0013284 C42.8666459,28.7809235 42.8666459,27.1499363 42.8666459,25.3465499 L42.8666459,14.1428699 L40.194011,14.1428699 L40.194011,12.9791753 C42.8940224,10.8264536 46.3936571,8.08961624 47.6871987,4.88888889 L48.376175,4.88888889 L48.376175,12.9213308 L53.1145982,12.9213308 L53.1145982,14.1428699 L53.1157388,14.1428699 L53.1157388,14.1428699 Z" id="Shape" stroke="#000000" stroke-width="2.851" fill="#000000" stroke-linecap="square"></path>
                <path d="M59.9104089,16.2910631 L59.9924817,16.2910631 C60.9425024,13.4794769 62.40857,11.9311481 64.0118003,11.9311481 C65.4239022,11.9311481 66.3199572,13.1932876 66.3199572,15.1720182 C66.3199572,17.0087722 65.4778678,18.2418456 64.0938731,18.2418456 C63.4687707,18.2418456 63.1157452,18.0417367 62.4096943,17.2949615 C61.8666647,16.7784792 61.5676049,16.5772524 61.2426865,16.5772524 C60.7536226,16.5772524 60.4005971,17.0937346 60.210593,18.0406187 C59.993606,18.9863849 59.9115332,21.7689051 59.9115332,24.6956378 L59.9115332,30.3467584 C59.9115332,32.983948 60.0745545,33.3014393 61.7317505,33.3014393 L62.0847759,33.3014393 L62.0847759,34.162243 L52.5800712,34.162243 L52.5800712,33.3014393 L52.8521481,33.3014393 C54.2912328,33.3014393 54.4542541,33.0130141 54.4542541,30.4887351 L54.4542541,16.5202381 C54.4542541,13.9959591 54.2912328,13.6527555 52.8521481,13.6527555 L52.5800712,13.6527555 L52.5800712,12.4476303 L59.9115332,12.4476303 L59.9115332,16.2910631 L59.9104089,16.2910631 L59.9104089,16.2910631 Z M81.2009925,28.0796026 C80.1419161,32.3243711 77.426768,34.7044376 73.8155648,34.7044376 C69.1171781,34.7044376 65.7769276,30.0583333 65.7769276,23.5475268 C65.7769276,16.9226918 69.3352894,11.8741338 74.0325518,11.8741338 C78.2958403,11.8741338 81.2021168,16.0037559 81.2021168,22.1422927 L81.2021168,22.5145623 L71.480425,22.5145623 C71.6164635,27.8794937 73.5446122,31.2634585 76.4227816,31.2634585 C78.0518704,31.2634585 79.3020753,30.2025458 80.4960659,27.6503186 L81.2009925,28.0796026 L81.2009925,28.0796026 Z M76.041649,20.9662335 C76.041649,20.4497513 76.0686318,20.2205763 76.0686318,19.7901744 C76.0686318,18.9014225 76.041649,17.7544295 75.9325933,16.95064 C75.7156064,14.5705736 75.0905039,13.4805948 73.8953891,13.4805948 C72.2381931,13.4805948 71.3961037,15.6896184 71.3961037,20.0774816 L71.3961037,20.9662335 L76.041649,20.9662335 L76.041649,20.9662335 Z M88.8315143,14.9719093 L88.9135871,14.9719093 C89.8096422,12.9641126 91.276834,11.8741338 93.095927,11.8741338 C97.0331728,11.8741338 99.831518,16.2049827 99.831518,22.8600017 C99.831518,29.8291582 96.8431687,34.7055555 93.0149785,34.7055555 C91.6298595,34.7055555 90.5707831,34.1029929 88.9416942,32.3534372 L88.9147114,32.1812765 L88.8326386,32.1812765 L88.8326386,40.1833975 C88.8326386,42.851889 88.9956599,43.1380783 90.6528559,43.1380783 L91.1419198,43.1380783 L91.1419198,44 L81.4741937,44 L81.4741937,43.1380783 L81.7732535,43.1380783 C83.2123382,43.1380783 83.3753595,42.851889 83.3753595,40.32761 L83.3753595,16.1479685 C83.3753595,13.6236894 83.2123382,13.279368 81.7732535,13.279368 L81.4741937,13.279368 L81.4741937,12.4476303 L88.8337629,12.4476303 L88.8337629,14.9719093 L88.8315143,14.9719093 L88.8315143,14.9719093 Z M88.8315143,30.0583333 C89.0485013,30.4887351 89.2654883,30.7458583 89.619638,31.178496 C90.4347446,32.1242622 90.9226842,32.4685837 91.5477867,32.4104515 C92.1998719,32.3534372 92.7417772,31.7508746 93.0138542,30.7469762 C93.5029181,28.9694724 93.9368921,26.7034345 93.9368921,23.2624554 C93.9368921,17.6113348 92.7957429,14.5716915 91.2206197,14.686838 C90.3245647,14.7438522 89.4824753,15.6907363 88.8315143,17.3251455 L88.8315143,30.0583333 L88.8315143,30.0583333 Z M107.134873,16.2910631 L107.245053,16.2910631 C108.166966,13.4794769 109.634158,11.9311481 111.237389,11.9311481 C112.675349,11.9311481 113.571404,13.1932876 113.571404,15.1720182 C113.571404,17.0087722 112.730439,18.2418456 111.34532,18.2418456 C110.721342,18.2418456 110.341333,18.0417367 109.635283,17.2949615 C109.119236,16.7784792 108.794317,16.5772524 108.495258,16.5772524 C107.979211,16.5772524 107.626185,17.0937346 107.463164,18.0406187 C107.246177,18.9863849 107.135997,21.7689051 107.135997,24.6956378 L107.135997,30.3467584 C107.135997,32.983948 107.327126,33.3014393 108.985446,33.3014393 L109.336223,33.3014393 L109.336223,34.162243 L99.8326423,34.162243 L99.8326423,33.3014393 L100.102471,33.3014393 C101.514573,33.3014393 101.705701,33.0130141 101.705701,30.4887351 L101.705701,16.1479685 C101.705701,13.6236894 101.514573,13.279368 100.102471,13.279368 L99.8326423,13.279368 L99.8326423,12.4476303 L107.135997,12.4476303 L107.135997,16.2910631 L107.134873,16.2910631 L107.134873,16.2910631 Z M128.453564,28.0796026 C127.36638,32.3243711 124.650108,34.7044376 121.03778,34.7044376 C116.367501,34.7044376 113.001392,30.0583333 113.001392,23.5475268 C113.001392,16.9226918 116.585612,11.8741338 121.255892,11.8741338 C125.546163,11.8741338 128.453564,16.0037559 128.453564,22.1422927 L128.453564,22.5145623 L118.730748,22.5145623 C118.866786,27.8794937 120.767952,31.2634585 123.673104,31.2634585 C125.276334,31.2634585 126.525415,30.2025458 127.72053,27.6503186 L128.453564,28.0796026 L128.453564,28.0796026 Z M123.267237,20.9662335 C123.267237,20.4497513 123.320079,20.2205763 123.320079,19.7901744 C123.320079,18.9014225 123.267237,17.7544295 123.18404,16.95064 C122.969302,14.5705736 122.343075,13.4805948 121.122102,13.4805948 C119.463781,13.4805948 118.622816,15.6896184 118.622816,20.0774816 L118.622816,20.9662335 L123.267237,20.9662335 L123.267237,20.9662335 Z M135.84124,15.4011933 C137.931286,12.8478482 139.506409,11.8730159 141.407574,11.8730159 C142.981573,11.8730159 144.367817,12.7047535 145.019902,13.9378269 C145.425769,14.7416164 145.69897,15.5442879 145.779919,16.4050916 C145.88785,17.6672312 145.915957,19.4167868 145.915957,21.53973 L145.915957,30.4876172 C145.915957,32.8397355 146.266734,33.213123 147.353917,33.3003213 L147.353917,34.1611251 L139.099418,34.1611251 L139.099418,33.3003213 C140.21246,33.1561088 140.482288,32.8699195 140.482288,30.4876172 L140.482288,20.3346048 C140.478836,19.1964964 140.451848,18.0585789 140.401339,16.9215739 C140.265301,15.6024201 139.804344,14.9417253 138.908289,14.9417253 C138.039217,14.9417253 137.143162,15.6303683 135.840116,17.3799239 L135.840116,30.4876172 C135.840116,32.8397355 136.139175,33.1561088 137.16902,33.3003213 L137.16902,34.1611251 L128.96961,34.1611251 L128.96961,33.3003213 C130.082652,33.213123 130.407571,32.8699195 130.407571,30.4876172 L130.407571,16.2899452 C130.407571,13.8517465 130.054545,13.4224626 128.96961,13.27825 L128.96961,12.4465124 L135.840116,12.4465124 L135.840116,15.4011933 L135.84124,15.4011933 L135.84124,15.4011933 Z M163.458175,28.0796026 C162.400223,32.3243711 159.654719,34.7044376 156.04464,34.7044376 C151.372112,34.7044376 148.031861,30.0583333 148.031861,23.5475268 C148.031861,16.9226918 151.589099,11.8741338 156.28861,11.8741338 C160.553022,11.8741338 163.458175,16.0037559 163.458175,22.1422927 L163.458175,22.5145623 L153.735359,22.5145623 C153.871397,27.8794937 155.772563,31.2634585 158.677715,31.2634585 C160.280946,31.2634585 161.530026,30.2025458 162.751,27.6503186 L163.458175,28.0796026 L163.458175,28.0796026 Z M158.271848,20.9662335 C158.271848,20.4497513 158.32469,20.2205763 158.32469,19.7901744 C158.32469,18.9014225 158.271848,17.7544295 158.1909,16.95064 C157.973913,14.5705736 157.347686,13.4805948 156.153696,13.4805948 C154.497624,13.4805948 153.65441,15.6896184 153.65441,20.0774816 L153.65441,20.9662335 L158.271848,20.9662335 L158.271848,20.9662335 Z M180.54056,30.4887351 C180.54056,32.983948 180.975658,33.2421891 182.27758,33.3014393 L182.27758,34.162243 L175.108015,34.162243 L175.108015,31.3808408 L175.000084,31.3808408 C173.370995,33.6737089 171.930786,34.7066734 170.002637,34.7066734 C168.10372,34.7066734 166.4454,33.5887465 165.766332,31.8962051 C165.224426,30.5189191 165.142354,29.4009922 165.142354,25.5296113 L165.142354,16.1502043 C165.142354,13.7690199 165.006315,13.5107788 163.893273,13.2816038 L163.893273,12.4498662 L170.546791,12.4498662 L170.546791,25.442413 C170.546791,27.2221526 170.599633,29.0555528 170.62774,29.573153 C170.763778,30.9482031 171.224735,31.6670301 172.094932,31.6670301 C173.179866,31.6670301 174.428947,30.5770513 175.108015,29.1718172 L175.108015,16.293299 C175.108015,13.6259253 174.919135,13.2816038 173.260815,13.2816038 L172.961755,13.2816038 L172.961755,12.4498662 L180.539436,12.4498662 L180.539436,30.4887351 L180.54056,30.4887351 L180.54056,30.4887351 Z" id="Shape" stroke="#000000" stroke-width="2.851" fill="#000000" stroke-linecap="square"></path>
                <path d="M189.895084,16.3930659 L190.004704,16.3930659 C190.921937,13.4782131 192.381679,11.8730159 193.976768,11.8730159 C195.407427,11.8730159 196.298932,13.1815124 196.298932,15.2329197 C196.298932,17.1371356 195.462237,18.4154985 194.084152,18.4154985 C193.463342,18.4154985 193.112109,18.2080398 192.382797,17.4338364 C191.869371,16.8983843 191.546102,16.6897666 191.248561,16.6897666 C190.760862,16.6897666 190.383902,17.2252187 190.221708,18.2068808 C190.005823,19.187384 189.896202,22.0721031 189.896202,25.1063315 L189.896202,30.9650117 C189.896202,33.6990624 190.08636,34.0282148 191.734023,34.0282148 L192.085256,34.0282148 L192.085256,34.9206349 L182.27758,34.9206349 L182.27758,34.0282148 L182.89839,34.0282148 C184.303322,34.0282148 184.493479,33.7291961 184.493479,31.112203 L184.493479,16.2447155 C184.493479,13.6277225 184.303322,13.2707544 182.89839,13.2707544 L182.629932,13.2707544 L182.629932,12.4084679 L189.896202,12.4084679 L189.896202,16.3930659 L189.895084,16.3930659 Z" id="Shape" stroke="#000000" stroke-width="2.851" fill="#000000" stroke-linecap="square"></path>
                <path d="M22.4341637,23.534093 L20.5557967,34.2222222 L1.94556853e-15,34.2222222 L1.94556853e-15,33.3577412 L0.608963287,33.3577412 C1.53445605,33.3577412 2.2222779,33.0680839 2.61876119,32.4629472 C3.01524448,31.8881234 3.09519829,31.3121769 3.09519829,29.0925938 L3.09519829,5.07012517 C3.09519829,2.880855 3.01524448,2.27571827 2.61876119,1.69977181 C2.2222779,1.12382535 1.53445605,0.835290773 0.608963287,0.835290773 L0,0.835290773 L0,0 L19.0213407,0 L19.0213407,9.59237145 L18.2809465,9.59237145 C18.0695617,7.25827264 17.3280723,4.8680387 16.1375271,3.62969767 C14.7093111,2.13201234 13.7038645,1.64139128 9.57693343,1.64139128 L8.7565854,1.64139128 L8.7565854,16.3892133 C12.0642637,16.2455074 13.3073812,14.6613739 13.6250059,9.50480065 L14.445354,9.50480065 L14.445354,24.8005016 L13.6250059,24.8005016 C13.4399074,19.8460148 12.0905499,18.1754332 8.7565854,18.1473657 L8.7565854,28.7198565 C8.7565854,31.9453812 9.15306869,32.550518 11.3227742,32.550518 C16.825349,32.550518 19.9468334,29.5832149 21.5612433,23.6216638 L21.6138157,23.534093 L22.4341637,23.534093 L22.4341637,23.534093 Z" id="Shape" stroke="#FFFFFF" stroke-width="2.357" fill="#FFFFFF"></path>
                <path d="M28.7038481,15.916767 C30.8255301,13.3262421 32.3962592,12.3372151 34.3525413,12.3372151 C35.950647,12.3372151 37.3285996,13.1810638 38.0164352,14.4320923 C38.4293647,15.2475859 38.7054115,16.0619453 38.7875411,16.9352834 C38.8708114,18.2158012 38.9255645,19.9908324 38.9255645,22.1446883 L38.9255645,31.2228675 C38.9255645,33.6092355 39.283741,33.98806 40.3582702,34.0765281 L40.3582702,34.9498661 L32.0095656,34.9498661 L32.0095656,34.0765281 C33.1399886,33.9302156 33.4148947,33.639859 33.4148947,31.2228675 L33.4148947,20.922015 C33.4148947,19.6120079 33.3601417,18.0116442 33.3042479,17.4592862 C33.1662245,16.120924 32.7259184,15.4506086 31.8167891,15.4506086 C30.9076598,15.4506086 29.9985304,16.1492791 28.7038481,17.9243104 L28.7038481,31.2228675 C28.7038481,33.6092355 29.0072715,33.9302156 30.0544242,34.0765281 L30.0544242,34.9498661 L21.7330961,34.9498661 L21.7330961,34.0765281 C22.8623784,33.98806 23.1658018,33.639859 23.1658018,31.2228675 L23.1658018,16.8184602 C23.1658018,14.3447585 22.8076254,13.9092236 21.7330961,13.7629112 L21.7330961,12.9190624 L28.7038481,12.9190624 L28.7038481,15.916767 L28.7038481,15.916767 Z M53.1157388,14.1428699 L48.3773157,14.1428699 L48.3773157,28.5484114 C48.3773157,30.9631345 48.4320688,31.546116 48.5974687,31.9816509 C48.7902452,32.3604754 49.3138216,32.7971445 49.7267511,32.7971445 C50.3335978,32.7971445 51.9317034,32.1574527 52.6480563,30.5843099 L53.2811388,31.0516025 C52.2625033,33.7271928 49.892151,35.6190473 47.2468926,35.6190473 C45.4405978,35.6197869 43.8439449,34.451856 43.306952,32.7370316 C43.0779672,31.8410912 42.9396362,30.9246332 42.8940224,30.0013284 C42.8666459,28.7809235 42.8666459,27.1499363 42.8666459,25.3465499 L42.8666459,14.1428699 L40.194011,14.1428699 L40.194011,12.9791753 C42.8940224,10.8264536 46.3936571,8.08961624 47.6871987,4.88888889 L48.376175,4.88888889 L48.376175,12.9213308 L53.1145982,12.9213308 L53.1145982,14.1428699 L53.1157388,14.1428699 L53.1157388,14.1428699 Z" id="Shape" stroke="#FFFFFF" stroke-width="2.357" fill="#FFFFFF"></path>
                <path d="M59.9114696,16.2910631 L59.9935417,16.2910631 C60.9435542,13.4794769 62.4096091,11.9311481 64.0128255,11.9311481 C65.4249151,11.9311481 66.3209624,13.1932876 66.3209624,15.1720182 C66.3209624,17.0087722 65.4788803,18.2418456 64.0948976,18.2418456 C63.4698006,18.2418456 63.1167781,18.0417367 62.4107333,17.2949615 C61.8677084,16.7784792 61.5686512,16.5772524 61.2437357,16.5772524 C60.754676,16.5772524 60.4016536,17.0937346 60.2116511,18.0406187 C59.994666,18.9863849 59.9125939,21.7689051 59.9125939,24.6956378 L59.9125939,30.3467584 C59.9125939,32.983948 60.0756138,33.3014393 61.7327954,33.3014393 L62.0846935,33.3014393 L62.0846935,34.162243 L52.5800712,34.162243 L52.5800712,33.3014393 L52.8521458,33.3014393 C54.291218,33.3014393 54.4542379,33.0130141 54.4542379,30.4887351 L54.4542379,16.5202381 C54.4542379,13.9959591 54.291218,13.6527555 52.8521458,13.6527555 L52.5800712,13.6527555 L52.5800712,12.4476303 L59.9114696,12.4476303 L59.9114696,16.2910631 L59.9114696,16.2910631 Z M81.2018687,28.0796026 C80.1428015,32.3243711 77.4276769,34.7044376 73.8153808,34.7044376 C69.1170348,34.7044376 65.7768132,30.0583333 65.7768132,23.5475268 C65.7768132,16.9226918 69.3351442,11.8741338 74.0323659,11.8741338 C78.2956173,11.8741338 81.2018687,16.0037559 81.2018687,22.1422927 L81.2018687,22.5145623 L71.4802612,22.5145623 C71.6162985,27.8794937 73.5444304,31.2634585 76.4225749,31.2634585 C78.0516496,31.2634585 79.3018436,30.2025458 80.4958239,27.6503186 L81.2018687,28.0796026 L81.2018687,28.0796026 Z M76.0425699,20.9662335 C76.0425699,20.4497513 76.0695525,20.2205763 76.0695525,19.7901744 C76.0695525,18.9014225 76.0425699,17.7544295 75.9335152,16.95064 C75.7165301,14.5705736 75.0914331,13.4805948 73.8963286,13.4805948 C72.239147,13.4805948 71.3970648,15.6896184 71.3970648,20.0774816 L71.3970648,20.9662335 L76.0425699,20.9662335 L76.0425699,20.9662335 Z M88.8323243,14.9719093 L88.9132721,14.9719093 C89.8093194,12.9641126 91.2764986,11.8741338 93.0955758,11.8741338 C97.0327875,11.8741338 99.8311084,16.2049827 99.8311084,22.8600017 C99.8311084,29.8291582 96.842785,34.7055555 93.014628,34.7055555 C91.629521,34.7055555 90.5704537,34.1029929 88.941379,32.3534372 L88.9143964,32.1812765 L88.8334486,32.1812765 L88.8334486,40.1833975 C88.8334486,42.851889 88.9964685,43.1380783 90.6536501,43.1380783 L91.1427098,43.1380783 L91.1427098,44 L81.4750675,44 L81.4750675,43.1380783 L81.7741247,43.1380783 C83.213197,43.1380783 83.3762169,42.851889 83.3762169,40.32761 L83.3762169,16.1479685 C83.3762169,13.6236894 83.213197,13.279368 81.7741247,13.279368 L81.4750675,13.279368 L81.4750675,12.4476303 L88.8345729,12.4476303 L88.8345729,14.9719093 L88.8323243,14.9719093 L88.8323243,14.9719093 Z M88.8323243,30.0583333 C89.0493094,30.4887351 89.2662945,30.7458583 89.6204412,31.178496 C90.4355407,32.1242622 90.9234761,32.4685837 91.5485731,32.4104515 C92.2006527,32.3534372 92.7425534,31.7508746 93.014628,30.7469762 C93.5036877,28.9694724 93.9376579,26.7034345 93.9376579,23.2624554 C93.9376579,17.6113348 92.7965186,14.5716915 91.2214091,14.686838 C90.3253618,14.7438522 89.4832796,15.6907363 88.8323243,17.3251455 L88.8323243,30.0583333 L88.8323243,30.0583333 Z M107.135524,16.2910631 L107.245703,16.2910631 C108.167609,13.4794769 109.634788,11.9311481 111.238004,11.9311481 C112.675952,11.9311481 113.572,13.1932876 113.572,15.1720182 C113.572,17.0087722 112.731042,18.2418456 111.345935,18.2418456 C110.721962,18.2418456 110.341957,18.0417367 109.635912,17.2949615 C109.11987,16.7784792 108.794954,16.5772524 108.495897,16.5772524 C107.979855,16.5772524 107.626832,17.0937346 107.463813,18.0406187 C107.246827,18.9863849 107.136648,21.7689051 107.136648,24.6956378 L107.136648,30.3467584 C107.136648,32.983948 107.327775,33.3014393 108.983833,33.3014393 L109.336855,33.3014393 L109.336855,34.162243 L99.8333569,34.162243 L99.8333569,33.3014393 L100.103183,33.3014393 C101.515273,33.3014393 101.706399,33.0130141 101.706399,30.4887351 L101.706399,16.1479685 C101.706399,13.6236894 101.515273,13.279368 100.103183,13.279368 L99.8333569,13.279368 L99.8333569,12.4476303 L107.136648,12.4476303 L107.136648,16.2910631 L107.135524,16.2910631 L107.135524,16.2910631 Z M128.45403,28.0796026 C127.366856,32.3243711 124.650607,34.7044376 121.038311,34.7044376 C116.368072,34.7044376 113.001992,30.0583333 113.001992,23.5475268 C113.001992,16.9226918 116.586181,11.8741338 121.25642,11.8741338 C125.546655,11.8741338 128.45403,16.0037559 128.45403,22.1422927 L128.45403,22.5145623 L118.731298,22.5145623 C118.867336,27.8794937 120.768485,31.2634585 123.673612,31.2634585 C125.276829,31.2634585 126.525898,30.2025458 127.721003,27.6503186 L128.45403,28.0796026 L128.45403,28.0796026 Z M123.267749,20.9662335 C123.267749,20.4497513 123.32059,20.2205763 123.32059,19.7901744 C123.32059,18.9014225 123.267749,17.7544295 123.184552,16.95064 C122.969816,14.5705736 122.343595,13.4805948 121.120383,13.4805948 C119.464326,13.4805948 118.623368,15.6896184 118.623368,20.0774816 L118.623368,20.9662335 L123.267749,20.9662335 L123.267749,20.9662335 Z M135.841642,15.4011933 C137.93167,12.8478482 139.506779,11.8730159 141.407929,11.8730159 C142.981914,11.8730159 144.368145,12.7047535 145.020225,13.9378269 C145.426088,14.7416164 145.699287,15.5442879 145.780235,16.4050916 C145.888165,17.6672312 145.916272,19.4167868 145.916272,21.53973 L145.916272,30.4876172 C145.916272,32.8397355 146.267046,33.213123 147.35422,33.3003213 L147.35422,34.1611251 L139.099792,34.1611251 L139.099792,33.3003213 C140.212824,33.1561088 140.48265,32.8699195 140.48265,30.4876172 L140.48265,20.3346048 C140.479199,19.1964964 140.45221,18.0585789 140.401702,16.9215739 C140.265665,15.6024201 139.804712,14.9417253 138.908665,14.9417253 C138.0396,14.9417253 137.143553,15.6303683 135.840518,17.3799239 L135.840518,30.4876172 C135.840518,32.8397355 136.137327,33.1561088 137.169411,33.3003213 L137.169411,34.1611251 L128.970072,34.1611251 L128.970072,33.3003213 C130.083105,33.213123 130.40802,32.8699195 130.40802,30.4876172 L130.40802,16.2899452 C130.40802,13.8517465 130.054998,13.4224626 128.970072,13.27825 L128.970072,12.4465124 L135.840518,12.4465124 L135.840518,15.4011933 L135.841642,15.4011933 L135.841642,15.4011933 Z M163.458338,28.0796026 C162.400395,32.3243711 159.654915,34.7044376 156.044867,34.7044376 C151.37238,34.7044376 148.032158,30.0583333 148.032158,23.5475268 C148.032158,16.9226918 151.589365,11.8741338 156.288835,11.8741338 C160.553211,11.8741338 163.458338,16.0037559 163.458338,22.1422927 L163.458338,22.5145623 L153.735606,22.5145623 C153.871643,27.8794937 155.772793,31.2634585 158.67792,31.2634585 C160.281136,31.2634585 161.530206,30.2025458 162.751169,27.6503186 L163.458338,28.0796026 L163.458338,28.0796026 Z M158.272056,20.9662335 C158.272056,20.4497513 158.324897,20.2205763 158.324897,19.7901744 C158.324897,18.9014225 158.272056,17.7544295 158.191109,16.95064 C157.974124,14.5705736 157.347902,13.4805948 156.153922,13.4805948 C154.497865,13.4805948 153.654658,15.6896184 153.654658,20.0774816 L153.654658,20.9662335 L158.272056,20.9662335 L158.272056,20.9662335 Z M180.540575,30.4887351 C180.540575,32.983948 180.975669,33.2421891 182.27758,33.3014393 L182.27758,34.162243 L175.108077,34.162243 L175.108077,31.3808408 L175.000147,31.3808408 C173.371072,33.6737089 171.930876,34.7066734 170.002744,34.7066734 C168.103843,34.7066734 166.445537,33.5887465 165.766475,31.8962051 C165.224574,30.5189191 165.142502,29.4009922 165.142502,25.5296113 L165.142502,16.1502043 C165.142502,13.7690199 165.006465,13.5107788 163.893432,13.2816038 L163.893432,12.4498662 L170.546893,12.4498662 L170.546893,25.442413 C170.546893,27.2221526 170.599734,29.0555528 170.627841,29.573153 C170.763878,30.9482031 171.224831,31.6670301 172.09502,31.6670301 C173.179945,31.6670301 174.429015,30.5770513 175.108077,29.1718172 L175.108077,16.293299 C175.108077,13.6259253 174.919199,13.2816038 173.260893,13.2816038 L172.961836,13.2816038 L172.961836,12.4498662 L180.539451,12.4498662 L180.539451,30.4887351 L180.540575,30.4887351 L180.540575,30.4887351 Z" id="Shape" stroke="#FFFFFF" stroke-width="2.357" fill="#FFFFFF"></path>
                <path d="M189.895084,16.3930659 L190.004704,16.3930659 C190.921937,13.4782131 192.381679,11.8730159 193.976768,11.8730159 C195.407427,11.8730159 196.298932,13.1815124 196.298932,15.2329197 C196.298932,17.1371356 195.462237,18.4154985 194.084152,18.4154985 C193.463342,18.4154985 193.112109,18.2080398 192.382797,17.4338364 C191.869371,16.8983843 191.546102,16.6897666 191.248561,16.6897666 C190.760862,16.6897666 190.383902,17.2252187 190.221708,18.2068808 C190.005823,19.187384 189.896202,22.0721031 189.896202,25.1063315 L189.896202,30.9650117 C189.896202,33.6990624 190.08636,34.0282148 191.734023,34.0282148 L192.085256,34.0282148 L192.085256,34.9206349 L182.27758,34.9206349 L182.27758,34.0282148 L182.89839,34.0282148 C184.303322,34.0282148 184.493479,33.7291961 184.493479,31.112203 L184.493479,16.2447155 C184.493479,13.6277225 184.303322,13.2707544 182.89839,13.2707544 L182.629932,13.2707544 L182.629932,12.4084679 L189.896202,12.4084679 L189.896202,16.3930659 L189.895084,16.3930659 Z" id="Shape" stroke="#FFFFFF" stroke-width="2.357" fill="#FFFFFF"></path>
                <path d="M22.4341637,23.534093 L20.5557967,34.2222222 L1.94556853e-15,34.2222222 L1.94556853e-15,33.3577412 L0.608963287,33.3577412 C1.53445605,33.3577412 2.22337315,33.0680839 2.61876119,32.4629472 C3.01524448,31.8881234 3.09519829,31.3121769 3.09519829,29.0925938 L3.09519829,5.07012517 C3.09519829,2.880855 3.01524448,2.27571827 2.61876119,1.69977181 C2.2222779,1.12382535 1.53445605,0.835290773 0.608963287,0.835290773 L0,0.835290773 L0,0 L19.0213407,0 L19.0213407,9.59237145 L18.2809465,9.59237145 C18.0695617,7.25827264 17.3280723,4.8680387 16.1375271,3.62969767 C14.7093111,2.13201234 13.7038645,1.64139128 9.57693343,1.64139128 L8.7565854,1.64139128 L8.7565854,16.3892133 C12.0642637,16.2455074 13.3073812,14.6613739 13.6250059,9.50480065 L14.445354,9.50480065 L14.445354,24.8005016 L13.6250059,24.8005016 C13.4399074,19.8460148 12.0905499,18.1754332 8.7565854,18.1473657 L8.7565854,28.7198565 C8.7565854,31.9453812 9.15306869,32.550518 11.3227742,32.550518 C16.825349,32.550518 19.9468334,29.5832149 21.5612433,23.6216638 L21.6138157,23.534093 L22.4341637,23.534093 L22.4341637,23.534093 Z" id="Shape" fill="#BB262C"></path>
                <path d="M28.7038481,15.9160398 C30.8255301,13.3254193 32.3962592,12.3363558 34.3525413,12.3363558 C35.950647,12.3363558 37.3285996,13.1802356 38.0164352,14.4313103 C38.4293647,15.246834 38.7054115,16.0612234 38.7875411,16.9345938 C38.8708114,18.2151588 38.9255645,19.9902556 38.9255645,22.144191 L38.9255645,31.2227053 C38.9255645,33.6091613 39.283741,33.9879998 40.3582702,34.0764711 L40.3582702,34.9498414 L32.0095656,34.9498414 L32.0095656,34.0764711 C33.1399886,33.9301532 33.4148947,33.639786 33.4148947,31.2227053 L33.4148947,20.9214725 C33.4148947,19.6114171 33.3601417,18.0109943 33.3042479,17.4586159 C33.1662245,16.1202043 32.7259184,15.4498642 31.8167891,15.4498642 C30.9076598,15.4498642 29.9985304,16.1485605 28.7038481,17.9236573 L28.7038481,31.2227053 C28.7038481,33.6091613 29.0072715,33.9301532 30.0544242,34.0764711 L30.0544242,34.9498414 L21.7330961,34.9498414 L21.7330961,34.0764711 C22.8623784,33.9879998 23.1658018,33.639786 23.1658018,31.2227053 L23.1658018,16.8177663 C23.1658018,14.3439732 22.8076254,13.9084223 21.7330961,13.7621044 L21.7330961,12.9182246 L28.7038481,12.9182246 L28.7038481,15.9160398 L28.7038481,15.9160398 Z M53.1157388,14.1420772 L48.3773157,14.1420772 L48.3773157,28.5481505 C48.3773157,30.9629627 48.4320688,31.5459657 48.5974687,31.9815166 C48.7902452,32.3603552 49.3138216,32.7970403 49.7278918,32.7970403 C50.3335978,32.7970403 51.9317034,32.1573249 52.6480563,30.5841241 L53.2811388,31.0514339 C52.2625033,33.727123 49.892151,35.6190473 47.2468926,35.6190473 C45.4405978,35.6197869 43.8439449,34.4518129 43.306952,32.7369252 C43.0781248,31.8416897 42.9397951,30.925966 42.8940224,30.0033896 C42.8666459,28.7806711 42.8666459,27.1496237 42.8666459,25.347305 L42.8666459,14.1432115 L40.194011,14.1432115 L40.194011,12.9794739 C42.8940224,10.8266728 46.3936571,8.08973438 47.6871987,4.88888889 L48.376175,4.88888889 L48.376175,12.9216273 L53.1145982,12.9216273 L53.1145982,14.1420772 L53.1157388,14.1420772 L53.1157388,14.1420772 Z" id="Shape" fill="#BB262C"></path>
                <path d="M59.9104089,16.2910631 L59.9924817,16.2910631 C60.9425024,13.4794769 62.40857,11.9311481 64.0118003,11.9311481 C65.4239022,11.9311481 66.3199572,13.1932876 66.3199572,15.1720182 C66.3199572,17.0087722 65.4778678,18.2418456 64.0938731,18.2418456 C63.4687707,18.2418456 63.1157452,18.0417367 62.4096943,17.2949615 C61.8666647,16.7784792 61.5676049,16.5772524 61.2426865,16.5772524 C60.7536226,16.5772524 60.4005971,17.0937346 60.210593,18.0406187 C59.993606,18.9863849 59.9115332,21.7689051 59.9115332,24.6956378 L59.9115332,30.3467584 C59.9115332,32.983948 60.0745545,33.3014393 61.7317505,33.3014393 L62.0847759,33.3014393 L62.0847759,34.162243 L52.5800712,34.162243 L52.5800712,33.3014393 L52.8521481,33.3014393 C54.2912328,33.3014393 54.4542541,33.0130141 54.4542541,30.4887351 L54.4542541,16.5202381 C54.4542541,13.9959591 54.2912328,13.6527555 52.8521481,13.6527555 L52.5800712,13.6527555 L52.5800712,12.4476303 L59.9115332,12.4476303 L59.9115332,16.2910631 L59.9104089,16.2910631 L59.9104089,16.2910631 Z M81.2009925,28.0796026 C80.1419161,32.3243711 77.426768,34.7044376 73.8155648,34.7044376 C69.1171781,34.7044376 65.7769276,30.0583333 65.7769276,23.5475268 C65.7769276,16.9226918 69.3352894,11.8741338 74.0325518,11.8741338 C78.2958403,11.8741338 81.2021168,16.0037559 81.2021168,22.1434106 L81.2021168,22.5145623 L71.480425,22.5145623 C71.6164635,27.8794937 73.5446122,31.2634585 76.4227816,31.2634585 C78.0518704,31.2634585 79.3020753,30.2025458 80.4960659,27.6503186 L81.2009925,28.0796026 L81.2009925,28.0796026 Z M76.041649,20.9662335 C76.041649,20.4497513 76.0686318,20.2205763 76.0686318,19.7901744 C76.0686318,18.9014225 76.041649,17.7533115 75.9325933,16.9495221 C75.7156064,14.5694556 75.0905039,13.4794769 73.8953891,13.4794769 C72.2381931,13.4794769 71.3961037,15.6885005 71.3961037,20.0763637 L71.3961037,20.9651156 L76.041649,20.9651156 L76.041649,20.9662335 L76.041649,20.9662335 Z M88.8315143,14.9719093 L88.9135871,14.9719093 C89.8096422,12.9641126 91.276834,11.8741338 93.095927,11.8741338 C97.0331728,11.8741338 99.831518,16.2049827 99.831518,22.8600017 C99.831518,29.8291582 96.8431687,34.7055555 93.0149785,34.7055555 C91.6298595,34.7055555 90.5707831,34.1029929 88.9416942,32.3534372 L88.9147114,32.1812765 L88.8326386,32.1812765 L88.8326386,40.1833975 C88.8326386,42.851889 88.9956599,43.1380783 90.6528559,43.1380783 L91.1419198,43.1380783 L91.1419198,44 L81.4741937,44 L81.4741937,43.1380783 L81.7732535,43.1380783 C83.2123382,43.1380783 83.3753595,42.851889 83.3753595,40.32761 L83.3753595,16.1479685 C83.3753595,13.6236894 83.2123382,13.279368 81.7732535,13.279368 L81.4741937,13.279368 L81.4741937,12.4476303 L88.8337629,12.4476303 L88.8337629,14.9719093 L88.8315143,14.9719093 L88.8315143,14.9719093 Z M88.8315143,30.0583333 C89.0485013,30.4887351 89.2654883,30.7458583 89.619638,31.178496 C90.4347446,32.1242622 90.9226842,32.4685837 91.5477867,32.4104515 C92.1998719,32.3534372 92.7417772,31.7508746 93.0138542,30.7469762 C93.5029181,28.9694724 93.9368921,26.7034345 93.9368921,23.2624554 C93.9368921,17.6113348 92.7957429,14.5716915 91.2206197,14.686838 C90.3245647,14.7438522 89.4824753,15.6907363 88.8315143,17.3251455 L88.8315143,30.0583333 L88.8315143,30.0583333 Z M107.134873,16.2910631 L107.245053,16.2910631 C108.166966,13.4794769 109.634158,11.9311481 111.237389,11.9311481 C112.675349,11.9311481 113.571404,13.1932876 113.571404,15.1720182 C113.571404,17.0087722 112.730439,18.2418456 111.34532,18.2418456 C110.721342,18.2418456 110.341333,18.0417367 109.635283,17.2949615 C109.119236,16.7784792 108.794317,16.5772524 108.495258,16.5772524 C107.979211,16.5772524 107.626185,17.0937346 107.463164,18.0406187 C107.246177,18.9863849 107.135997,21.7689051 107.135997,24.6956378 L107.135997,30.3467584 C107.135997,32.983948 107.327126,33.3014393 108.985446,33.3014393 L109.336223,33.3014393 L109.336223,34.162243 L99.8326423,34.162243 L99.8326423,33.3014393 L100.102471,33.3014393 C101.514573,33.3014393 101.705701,33.0130141 101.705701,30.4887351 L101.705701,16.1479685 C101.705701,13.6236894 101.514573,13.279368 100.102471,13.279368 L99.8326423,13.279368 L99.8326423,12.4476303 L107.135997,12.4476303 L107.135997,16.2910631 L107.134873,16.2910631 L107.134873,16.2910631 Z M128.453564,28.0796026 C127.36638,32.3243711 124.650108,34.7044376 121.03778,34.7044376 C116.367501,34.7044376 113.001392,30.0583333 113.001392,23.5475268 C113.001392,16.9226918 116.585612,11.8741338 121.255892,11.8741338 C125.546163,11.8741338 128.453564,16.0037559 128.453564,22.1434106 L128.453564,22.5145623 L118.730748,22.5145623 C118.866786,27.8794937 120.767952,31.2634585 123.673104,31.2634585 C125.276334,31.2634585 126.525415,30.2025458 127.72053,27.6503186 L128.453564,28.0796026 L128.453564,28.0796026 Z M123.267237,20.9662335 C123.267237,20.4497513 123.320079,20.2205763 123.320079,19.7901744 C123.320079,18.9014225 123.267237,17.7533115 123.18404,16.9495221 C122.969302,14.5694556 122.343075,13.4794769 121.122102,13.4794769 C119.463781,13.4794769 118.622816,15.6885005 118.622816,20.0763637 L118.622816,20.9651156 L123.267237,20.9651156 L123.267237,20.9662335 Z M135.84124,15.4011933 C137.931286,12.8478482 139.506409,11.8730159 141.407574,11.8730159 C142.981573,11.8730159 144.367817,12.7047535 145.019902,13.9378269 C145.425769,14.7416164 145.69897,15.5442879 145.779919,16.4050916 C145.88785,17.6672312 145.915957,19.4167868 145.915957,21.53973 L145.915957,30.4876172 C145.915957,32.8397355 146.266734,33.213123 147.353917,33.3003213 L147.353917,34.1611251 L139.099418,34.1611251 L139.099418,33.3003213 C140.21246,33.1561088 140.482288,32.8699195 140.482288,30.4876172 L140.482288,20.3346048 C140.478836,19.1964964 140.451848,18.0585789 140.401339,16.9215739 C140.265301,15.6024201 139.804344,14.9417253 138.908289,14.9417253 C138.039217,14.9417253 137.143162,15.6303683 135.840116,17.3799239 L135.840116,30.4876172 C135.840116,32.8397355 136.139175,33.1561088 137.16902,33.3003213 L137.16902,34.1611251 L128.96961,34.1611251 L128.96961,33.3003213 C130.082652,33.213123 130.407571,32.8699195 130.407571,30.4876172 L130.407571,16.2899452 C130.407571,13.8517465 130.054545,13.4224626 128.96961,13.27825 L128.96961,12.4465124 L135.840116,12.4465124 L135.840116,15.4011933 L135.84124,15.4011933 L135.84124,15.4011933 Z M163.458175,28.0796026 C162.400223,32.3243711 159.656967,34.7044376 156.04464,34.7044376 C151.372112,34.7044376 148.031861,30.0583333 148.031861,23.5475268 C148.031861,16.9226918 151.589099,11.8741338 156.28861,11.8741338 C160.553022,11.8741338 163.458175,16.0037559 163.458175,22.1434106 L163.458175,22.5145623 L153.735359,22.5145623 C153.871397,27.8794937 155.772563,31.2634585 158.677715,31.2634585 C160.280946,31.2634585 161.530026,30.2025458 162.751,27.6503186 L163.458175,28.0796026 L163.458175,28.0796026 Z M158.271848,20.9662335 C158.271848,20.4497513 158.32469,20.2205763 158.32469,19.7901744 C158.32469,18.9014225 158.271848,17.7533115 158.1909,16.9495221 C157.973913,14.5694556 157.347686,13.4794769 156.153696,13.4794769 C154.497624,13.4794769 153.65441,15.6885005 153.65441,20.0763637 L153.65441,20.9651156 L158.271848,20.9651156 L158.271848,20.9662335 L158.271848,20.9662335 Z M180.54056,30.4887351 C180.54056,32.983948 180.975658,33.2421891 182.27758,33.3014393 L182.27758,34.162243 L175.108015,34.162243 L175.108015,31.3808408 L175.000084,31.3808408 C173.370995,33.6737089 171.930786,34.7066734 170.002637,34.7066734 C168.10372,34.7066734 166.4454,33.5887465 165.766332,31.8962051 C165.224426,30.5189191 165.142354,29.4009922 165.142354,25.5296113 L165.142354,16.1502043 C165.142354,13.7690199 165.006315,13.5107788 163.893273,13.2816038 L163.893273,12.4498662 L170.546791,12.4498662 L170.546791,25.442413 C170.546791,27.2221526 170.599633,29.0555528 170.62774,29.573153 C170.763778,30.9482031 171.224735,31.6670301 172.094932,31.6670301 C173.179866,31.6670301 174.428947,30.5770513 175.108015,29.1718172 L175.108015,16.293299 C175.108015,13.6259253 174.919135,13.2816038 173.260815,13.2816038 L172.961755,13.2816038 L172.961755,12.4498662 L180.539436,12.4498662 L180.539436,30.4887351 L180.54056,30.4887351 L180.54056,30.4887351 Z" id="Shape" fill="#BB262C"></path>
                <path d="M189.895084,16.3930659 L190.004704,16.3930659 C190.921937,13.4782131 192.381679,11.8730159 193.976768,11.8730159 C195.407427,11.8730159 196.298932,13.1815124 196.298932,15.2329197 C196.298932,17.1371356 195.462237,18.4154985 194.084152,18.4154985 C193.463342,18.4154985 193.112109,18.2080398 192.382797,17.4338364 C191.869371,16.8983843 191.546102,16.6897666 191.248561,16.6897666 C190.760862,16.6897666 190.383902,17.2252187 190.221708,18.2068808 C190.005823,19.187384 189.896202,22.0721031 189.896202,25.1063315 L189.896202,30.9650117 C189.896202,33.6990624 190.08636,34.0282148 191.734023,34.0282148 L192.085256,34.0282148 L192.085256,34.9206349 L182.27758,34.9206349 L182.27758,34.0282148 L182.89839,34.0282148 C184.303322,34.0282148 184.493479,33.7291961 184.493479,31.112203 L184.493479,16.2447155 C184.493479,13.6277225 184.303322,13.2707544 182.89839,13.2707544 L182.629932,13.2707544 L182.629932,12.4084679 L189.896202,12.4084679 L189.896202,16.3930659 L189.895084,16.3930659 Z" id="Shape" fill="#BB262C"></path>
                <path d="M195.39742,34.0291841 C195.39742,34.1024541 195.445215,34.1268774 195.515444,34.1503613 L195.585672,34.1503613 L195.585672,34.2480546 L194.974097,34.2480546 L194.974097,34.1503613 L195.044326,34.1503613 C195.137964,34.1268774 195.162349,34.1268774 195.162349,34.0057002 L195.162349,32.945165 C195.162349,32.8493505 195.114555,32.8239878 195.044326,32.8239878 L194.974097,32.8239878 L194.974097,32.7281733 L195.585672,32.7281733 C195.821719,32.7281733 196.174813,32.7516572 196.174813,33.0898261 C196.174813,33.3303018 195.963151,33.4749629 195.75149,33.4993862 C195.937791,33.5228702 196.03338,33.7154386 196.103609,33.8610391 C196.199198,34.1268774 196.221632,34.1513007 196.31527,34.1513007 L196.339655,34.1513007 L196.339655,34.2489939 L196.244066,34.2489939 C195.962176,34.2489939 195.962176,34.199208 195.820743,33.9117644 C195.70272,33.5745349 195.70272,33.5501115 195.466674,33.5501115 L195.396445,33.5501115 L195.396445,34.0291841 L195.39742,34.0291841 L195.39742,34.0291841 Z M195.39742,33.451479 L195.493009,33.451479 C195.704671,33.451479 195.892923,33.4035717 195.892923,33.1142494 C195.892923,32.8737738 195.704671,32.8239878 195.493009,32.8239878 C195.422781,32.8239878 195.39742,32.8972577 195.39742,32.921681 L195.39742,33.451479 Z M194.19573,33.5228702 C194.19573,32.7525966 194.809255,32.1269841 195.586648,32.1269841 C196.388425,32.1269841 197,32.7525966 197,33.5228702 C197,34.2950225 196.388425,34.9206349 195.586648,34.9206349 C194.809255,34.9206349 194.19573,34.2950225 194.19573,33.5228702 Z M196.763954,33.5228702 C196.763954,32.8737738 196.246017,32.3195525 195.586648,32.3195525 C194.950688,32.3195525 194.431776,32.8737738 194.431776,33.5228702 C194.431776,34.1738453 194.949713,34.7280665 195.586648,34.7280665 C196.246017,34.7280665 196.763954,34.1738453 196.763954,33.5228702 Z" id="Shape" fill="#000000"></path>
            </g>
        </g>
    </g>
</svg>