<?xml version="1.0" encoding="UTF-8"?>
<svg width="203px" height="30px" viewBox="0 0 203 30" version="1.1" xmlns="http://www.w3.org/2000/svg" xmlns:xlink="http://www.w3.org/1999/xlink">
    <!-- Generator: Sketch 47.1 (45422) - http://www.bohemiancoding.com/sketch -->
    <title>fast-company</title>
    <desc>Created with Sketch.</desc>
    <defs></defs>
    <g id="Homepage" stroke="none" stroke-width="1" fill="none" fill-rule="evenodd">
        <g transform="translate(-723.000000, -5692.000000)" id="fast-company" fill-rule="nonzero" fill="#000000">
            <g transform="translate(723.000000, 5692.000000)">
                <path d="M96.3963072,7.86298386 C96.3963072,11.8612263 95.9876204,24.2553253 95.9876204,24.2553253 C95.9876204,26.6538182 96.804994,27.7195637 99.1239732,27.7195637 L99.1239732,28.7853091 L89.9869866,28.7853091 L89.9869866,27.7195637 C92.3048081,27.7195637 93.5320263,26.6538182 93.5320263,24.2553253 L94.3505577,3.99824244 C93.6686411,2.39849292 92.9867246,1.8656202 91.2142048,1.73325054 L91.2142048,0.801006125 L98.168827,0.801006125 L105.533294,19.7253415 L113.034375,0.801006125 L119.307081,0.801006125 L119.307081,1.73325054 C117.534561,1.73325054 116.580573,2.5331253 116.580573,4.3987455 L117.399104,23.9894546 C117.399104,26.9219516 117.944406,27.720695 120.4,27.720695 L120.4,28.7864405 L109.89918,28.7864405 L109.89918,27.720695 C111.943772,27.720695 112.900076,27.0543213 112.762304,23.9894546 C112.762304,23.9894546 112.352459,10.2626081 112.217002,7.86411522 L107.172672,21.4574607 C106.41503,23.3724929 105.777092,25.3307177 105.26238,27.3213233 L103.627632,27.4548243 C103.217788,25.9885758 102.127185,23.3242123 102.127185,23.3242123 C102.127185,23.3242123 97.8955973,11.7277253 96.3963072,7.86298386 L96.3963072,7.86298386 Z M87.8046222,28.9188101 C87.2593206,28.7853091 86.7140189,28.7853091 86.1675595,28.7853091 C85.0769562,28.7853091 83.1666637,29.3181818 80.8488422,29.3181818 C71.9839276,29.3181818 65.4379922,24.1206929 65.4379922,14.5255899 C65.4379922,6.39673536 71.5752408,0.133501021 80.9842993,0.133501021 C83.165506,0.133501021 85.6211001,0.534004083 87.6668496,1.33274748 C88.0755364,0.932244417 88.2121513,0.66637374 88.6208381,0.267002042 L89.4393695,0.267002042 C89.3027546,1.73325054 88.7574529,6.53023638 88.7574529,6.53023638 L87.9389216,6.53023638 C87.3936199,3.73237176 85.893172,1.8656202 81.1197564,1.8656202 C75.3923524,1.8656202 70.21025,6.26323433 70.21025,14.3932202 C70.21025,23.5889516 75.5289672,27.5860626 81.3929862,27.5860626 C85.2124133,27.5860626 87.5302348,25.4545718 89.0306826,22.7890768 L89.9858289,23.1895799 L87.8046222,28.9188101 Z M62.0284096,5.99736366 L61.0744211,5.99736366 C60.9378063,3.46536972 60.1192749,2.66549496 58.0735254,2.66549496 L54.1186411,2.66549496 L54.1186411,23.5889516 C54.1186411,27.0531899 54.8005577,27.7195637 57.1195369,27.7195637 L57.1195369,28.7853091 L46.8907892,28.7853091 L46.8907892,27.7195637 C49.2097684,27.7195637 49.891685,27.0531899 49.891685,23.4543192 L49.891685,2.66549496 L45.9368007,2.66549496 C43.3457495,2.66549496 42.935905,3.3318687 42.2539885,5.99736366 L41.3,5.99736366 L41.9819165,0 L42.663833,0.133501021 C42.935905,0.799874761 43.4823644,0.799874761 45.1182694,0.799874761 L58.3467551,0.799874761 C60.8023492,0.799874761 61.3476508,0.799874761 61.8929525,0 L62.7114839,0 L62.0284096,5.99736366 Z" id="Shape"></path>
                <path d="M33.3337715,30 C31.4290835,30 29.9321305,29.7304015 28.8440674,29.324283 C27.7560043,29.0546845 26.9393795,28.648566 26.5316446,28.3789675 C25.987613,28.9193117 25.5787231,29.5950287 25.5787231,29.5950287 L24.7620982,29.3254302 L25.4424264,22.9743786 L26.3953479,23.1097514 C26.9393795,26.082218 28.980364,28.2447419 33.1986299,28.2447419 C36.4639742,28.2447419 38.6412554,25.543021 38.6412554,22.5694073 C38.6412554,20.1372849 37.6883339,18.9200765 34.4229896,16.4879541 C33.3349265,15.8122371 32.382005,15.2718929 31.5653802,14.5961759 C28.5726291,12.7055449 26.6667862,10.543021 26.6667862,7.0290631 C26.6667862,2.97476099 30.0684271,0.271892925 34.5581312,0.271892925 C37.1431473,0.271892925 38.776397,1.08298279 39.3204286,1.35258126 L40.272195,0.271892925 L40.9525232,0.407265774 L40.272195,6.21797323 L39.3204286,6.08260038 C39.3204286,3.38087954 37.6871789,2.16367113 34.9658661,2.16367113 C32.38085,2.16367113 30.476162,3.51510516 30.476162,6.08260038 C30.476162,8.38049713 32.2445533,9.86615679 34.2855379,11.218738 C35.373601,11.8944551 36.1902258,12.4347992 37.0056956,12.9751434 C41.767993,16.3525813 42.8560561,18.5151052 42.8560561,21.7583174 C42.8583662,26.4871893 39.1841319,30 33.3337715,30 L33.3337715,30 Z M17.8236747,6.216826 L16.7356116,6.216826 C16.7356116,3.78355641 15.6475485,2.83824092 13.4702673,2.83824092 L7.3473135,2.83824092 L7.3473135,13.5143403 L11.292986,13.5143403 C13.3339706,13.5143403 13.7428606,12.433652 14.0142988,10.6760994 L14.9660652,10.6760994 L14.9660652,18.2443595 L14.0142988,18.2443595 C13.7428606,16.2172084 13.3339706,15.4061185 11.1566894,15.4061185 L7.3473135,15.4061185 L7.3473135,24.4611855 C7.3473135,27.8386233 8.16393834,28.2447419 10.3412196,28.2447419 L10.3412196,29.3254302 L2.05179226e-15,29.3254302 L2.05179226e-15,28.2447419 C2.58501613,28.2447419 2.99275103,27.5690249 2.99275103,24.4611855 L2.99275103,4.59464627 C2.99275103,2.70286807 2.17612618,1.8917782 0,1.8917782 L0,0.946462715 L14.1494404,0.946462715 C16.5981599,0.946462715 17.1421914,0.811089866 17.5510814,0 L18.5040029,0 L17.8236747,6.216826 L17.8236747,6.216826 Z M164.631338,7.83785851 L164.631338,24.0539197 C164.631338,27.5667304 165.445653,28.2424474 167.622934,28.2424474 L167.622934,29.3231358 L151.569961,29.3231358 L151.569961,28.2424474 C152.795475,28.2424474 153.882383,27.8363289 153.882383,27.0263862 C153.882383,26.4848948 153.747242,25.5395793 153.473493,24.5931166 L152.247979,20.6741874 L143.269726,20.6741874 C143.132274,21.2156788 141.501334,25.673805 141.501334,26.8910134 C141.501334,27.9717017 142.726849,28.2424474 143.541164,28.2424474 L143.541164,29.3231358 L136.057554,29.3231358 L136.057554,28.2424474 C137.41821,28.2424474 138.507428,28.1070746 139.459195,25.2699809 L146.398773,3.24206501 C145.989883,2.29674952 145.447007,2.02600382 144.49524,1.89063098 L144.49524,0.945315488 L150.618194,0.945315488 L157.963198,24.0539197 C158.644681,26.4860421 159.323854,27.7032505 160.413072,28.2424474 C162.046322,27.7021033 162.455212,27.1617591 162.455212,24.0539197 L162.455212,4.59464627 C161.229697,2.97246654 161.092245,1.8917782 158.779822,1.8917782 L158.779822,0.946462715 L165.719401,0.946462715 L177.148684,20.2703633 L177.148684,5.54110899 C177.148684,2.56749522 176.46951,1.8917782 174.154778,1.8917782 L174.154778,0.946462715 L189.393436,0.946462715 L189.393436,1.8917782 C188.44167,1.8917782 187.625045,2.29789675 187.625045,3.24321224 C187.625045,3.91892925 187.897638,4.59464627 188.169076,5.40573614 L192.523639,14.7304015 L196.741905,5.67648184 C197.421078,4.46042065 197.558529,3.78470363 197.558529,3.10898662 C197.558529,2.29789675 197.012188,1.8917782 195.790138,1.8917782 L195.790138,0.946462715 L203,0.946462715 L203,1.8917782 C201.231609,1.8917782 200.141236,3.51395793 199.326921,5.40458891 L193.747999,16.7564054 L193.747999,24.1892925 C193.747999,27.433652 194.564623,28.2435946 196.741905,28.2435946 L196.741905,29.324283 L186.400685,29.324283 L186.400685,28.2435946 C188.577966,28.2435946 189.394591,27.433652 189.394591,24.1892925 L189.394591,17.8382409 L183.406779,5.27036329 C182.319871,2.83824092 181.910981,2.29789675 181.229498,1.8917782 C179.868841,2.43212237 179.461106,3.37858509 179.461106,5.54110899 L179.461106,26.3518164 C179.461106,26.3518164 179.598558,27.9739962 179.7337,29.8646272 L177.965308,30 L164.631338,7.83785851 L164.631338,7.83785851 Z M147.624288,6.48642447 L143.813757,18.7847036 L151.705102,18.7847036 L147.624288,6.48642447 Z" id="Shape"></path>
                <path d="M130.772729,18.2535697 L128.729869,18.2535697 L128.729869,23.9767076 C128.729869,26.9060863 129.545394,27.5717515 131.863566,27.5717515 L131.863566,28.6363636 L121.371638,28.6363636 L121.371638,27.5717515 C123.552154,27.5717515 124.369993,26.7738574 124.369993,23.8444787 L124.369993,5.07362589 C124.369993,2.14537736 123.552154,1.61307128 121.371638,1.61307128 L121.371638,0.681818182 L129.274709,0.681818182 C136.904781,0.681818182 141.4,2.94440157 141.4,9.06761674 C141.401157,15.45755 135.951601,18.2535697 130.772729,18.2535697 L130.772729,18.2535697 Z M129.410051,2.54432438 L128.729869,2.54432438 L128.729869,16.2554441 L129.954891,16.2554441 C134.45358,16.2554441 136.769439,14.2584486 136.769439,9.19984564 C136.769439,4.14124263 134.724265,2.54432438 129.410051,2.54432438 L129.410051,2.54432438 Z M83.2178055,23.3110425 C78.0400911,23.3110425 74.4968964,19.7159987 74.4968964,14.5251668 C74.4968964,9.59992282 78.1765902,5.73929103 83.2178055,5.73929103 C88.1236783,5.73929103 91.8022154,9.46656376 91.8022154,14.5251668 C91.8033721,19.4504107 87.9871791,23.3110425 83.2178055,23.3110425 Z M83.2178055,7.33620927 C79.6757676,7.33620927 78.4484318,10.664535 78.4484318,14.5251668 C78.4484318,18.1202106 79.5392684,21.7141243 83.2178055,21.7141243 C86.7610001,21.7141243 87.85068,18.1190804 87.85068,14.3918077 C87.8518367,10.797894 86.4891586,7.33620927 83.2178055,7.33620927 L83.2178055,7.33620927 Z M23.2645922,21.7141243 L23.2645922,20.781741 C24.6272704,20.781741 24.9002687,20.382794 24.9002687,19.983847 C24.9002687,19.4504107 24.7637696,19.0514637 24.6272704,18.6525167 C24.6272704,18.6525167 24.3542721,17.5867744 24.0824305,16.7888803 L18.7682169,16.7888803 L18.223377,18.5191576 C18.0880346,18.9192348 17.9515354,19.3181818 17.9515354,19.8504879 C17.9515354,20.3839241 18.4963753,20.781741 19.3142136,20.781741 L19.3142136,21.7141243 L14,21.7141243 L14,20.781741 C15.3626782,20.781741 15.9075181,20.382794 16.452358,18.9192348 L20.5403926,6.93726225 C20.4038934,6.40382601 19.9943959,6.00487899 19.1777144,6.00487899 L19.1777144,5.07249573 L23.5364338,5.07249573 C25.0233435,9.33680915 26.5221408,13.5971572 28.0328091,17.8534925 C28.7141482,20.1160759 29.3954873,20.781741 30.4851671,20.781741 L30.4851671,21.7141243 L23.2645922,21.7141243 L23.2645922,21.7141243 Z M21.3559173,8.80089862 L19.3119,15.324191 L23.5364338,15.324191 L21.3559173,8.80089862 L21.3559173,8.80089862 Z" id="Shape"></path>
            </g>
        </g>
    </g>
</svg>