<?xml version="1.0" encoding="UTF-8"?>
<svg width="138px" height="48px" viewBox="0 0 138 48" version="1.1" xmlns="http://www.w3.org/2000/svg" xmlns:xlink="http://www.w3.org/1999/xlink">
    <!-- Generator: Sketch 47.1 (45422) - http://www.bohemiancoding.com/sketch -->
    <title>Inc</title>
    <desc>Created with Sketch.</desc>
    <defs></defs>
    <g id="Homepage" stroke="none" stroke-width="1" fill="none" fill-rule="evenodd">
        <g transform="translate(-623.000000, -5798.000000)" id="Inc" fill="#000000">
            <g transform="translate(623.000000, 5798.000000)">
                <polygon id="Fill-1" points="0 0 0 11.0928575 6.14362913 11.0928575 6.14362913 36.9900825 0 36.9900825 0 47.2941176 32.7575758 47.2941176 32.7575758 36.9824105 26.6179384 36.9824105 26.6179384 11.0928575 32.7575758 11.0928575 32.7575758 0"></polygon>
                <path d="M34.1515152,11.2941176 L34.1515152,21.5639695 L38.7830294,21.5639695 L38.7830294,37.0374513 L34.1515152,37.0374513 L34.1515152,47.2941176 L59.8136456,47.2941176 L59.8136456,37.0374513 L54.9214751,37.0374513 L54.9214751,28.1461892 C54.9214751,24.3848217 57.7612382,21.6101192 61.534672,21.6101192 C64.5070223,21.6101192 66.8200859,23.0638322 66.8200859,26.2958671 L66.8200859,37.0374513 L62.0603288,37.0374513 L62.0603288,47.2941176 L87.1212121,47.2941176 L87.1212121,37.1944642 C87.0975793,37.1415482 87.0760317,37.0867239 87.0485759,37.0339815 L82.953666,37.0339815 L82.953666,23.4602678 C82.953666,14.810684 76.6072073,11.6405868 68.8047227,11.6405868 C63.2515279,11.6405868 59.0184702,13.1593604 55.3168037,17.3876024 C55.051977,17.7165486 54.7204222,18.1110758 54.3909527,18.3754819 L54.3909527,11.2941176 L34.1515152,11.2941176 Z" id="Fill-2"></path>
                <path d="M107.359357,11.3118235 C96.1000632,11.3118235 85.041764,16.9198788 85.030303,29.6567797 C85.0338953,32.3662895 85.5359543,34.7541438 86.4317918,36.8330143 L86.5032946,36.8330143 L86.5032946,36.9935818 C89.879663,44.5732312 98.5559616,48 107.359357,48 C114.533242,48 124.498985,46.2483398 126.738323,35.0480256 L126.848485,33.8551399 L113.718658,33.847155 L113.272535,33.8452455 C113.272535,37.6322061 110.563811,39.4227496 107.488678,39.4227496 C101.629384,39.4227496 101.173682,34.4623451 101.173682,29.7095499 L101.173682,29.6135567 L101.173682,29.6059189 C101.173682,24.8529501 101.629384,19.8967117 107.488678,19.8967117 C112.096673,19.8967117 112.876875,23.9549877 113.042973,27.7978431 L126.672465,26.2773999 C125.217263,12.1804497 111.548599,11.2941176 108.127756,11.2941176 C107.637329,11.2941176 107.359357,11.3118235 107.359357,11.3118235" id="Fill-4"></path>
                <path d="M126.151515,42.001071 C126.151515,45.3169121 128.804658,48 132.077696,48 C135.347033,48 138,45.3169121 138,42.001071 C138,38.6873717 135.347033,36 132.077696,36 C128.804658,36 126.151515,38.6873717 126.151515,42.001071" id="Fill-7"></path>
            </g>
        </g>
    </g>
</svg>