<?xml version="1.0" encoding="UTF-8"?>
<svg width="242px" height="57px" viewBox="0 0 242 57" version="1.1" xmlns="http://www.w3.org/2000/svg" xmlns:xlink="http://www.w3.org/1999/xlink">
    <!-- Generator: Sketch 47.1 (45422) - http://www.bohemiancoding.com/sketch -->
    <title>product-hunt</title>
    <desc>Created with Sketch.</desc>
    <defs></defs>
    <g id="Homepage" stroke="none" stroke-width="1" fill="none" fill-rule="evenodd">
        <g transform="translate(-868.000000, -5794.000000)" id="product-hunt" fill-rule="nonzero">
            <g transform="translate(868.000000, 5794.000000)">
                <path d="M56.6531792,28.5 C56.6531792,44.24625 43.9770303,57 28.3265896,57 C12.6761488,57 0,44.24625 0,28.5 C0,12.75375 12.6761488,0 28.3265896,0 C43.9770303,0 56.6531792,12.75375 56.6531792,28.5" id="Fill-1" fill="#DA552F"></path>
                <path d="M31.9775723,28.1481481 L23.8922543,28.1481481 L23.8922543,19.7037037 L31.9775723,19.7037037 C34.3318266,19.7037037 36.2580347,21.6037037 36.2580347,23.9259259 C36.2580347,26.2481481 34.3318266,28.1481481 31.9775723,28.1481481 M31.9775723,14.0740741 L18.1849711,14.0740741 L18.1849711,42.2222222 L23.8922543,42.2222222 L23.8922543,33.7777778 L31.9775723,33.7777778 C37.4946127,33.7777778 41.9653179,29.3679012 41.9653179,23.9259259 C41.9653179,18.4839506 37.4946127,14.0740741 31.9775723,14.0740741" id="Fill-3" fill="#FFFFFF"></path>
                <path d="M86.2513445,25.00875 C86.2513445,23.44125 85.0660899,22.49125 83.5322309,22.49125 L79.4187002,22.49125 L79.4187002,27.5025 L83.5322309,27.5025 C85.0660899,27.5025 86.2513445,26.5525 86.2513445,25.00875 L86.2513445,25.00875 Z M75.5375723,38 L75.5375723,19 L84.0899978,19 C88.0640869,19 90.2254335,21.73125 90.2254335,25.00875 C90.2254335,28.2625 88.0408466,30.99375 84.0899978,30.99375 L79.4419404,30.99375 L79.4419404,38 L75.5375723,38 Z" id="Fill-5" fill="#DA552F"></path>
                <path d="M93.0231214,37.9764648 L93.0231214,24.2554193 L96.4991643,24.2554193 L96.4991643,26.0676329 C97.4492827,24.914406 99.071436,23.9259259 100.716763,23.9259259 L100.716763,27.3620711 C100.461853,27.3150006 100.160596,27.2914654 99.7666446,27.2914654 C98.6079636,27.2914654 97.0785048,27.9504521 96.5223379,28.821256 L96.5223379,38 L93.0231214,38 L93.0231214,37.9764648 Z" id="Fill-7" fill="#DA552F"></path>
                <path d="M112.502372,30.9511756 C112.502372,28.8766052 111.294068,27.0613562 109.109827,27.0613562 C106.948822,27.0613562 105.740518,28.8766052 105.740518,30.9511756 C105.740518,33.0728953 106.948822,34.8645698 109.109827,34.8645698 C111.294068,34.8645698 112.502372,33.0493207 112.502372,30.9511756 M102.115607,30.9511756 C102.115607,27.1556548 104.741344,23.9259259 109.08659,23.9259259 C113.478309,23.9259259 116.104046,27.1556548 116.104046,30.9511756 C116.104046,34.7466964 113.478309,38 109.08659,38 C104.741344,38 102.115607,34.7466964 102.115607,30.9511756" id="Fill-9" fill="#DA552F"></path>
                <path d="M128.542644,33.2975 L128.542644,28.52375 C127.938652,27.62125 126.634031,26.98 125.450208,26.98 C123.372478,26.98 121.947058,28.57125 121.947058,30.89875 C121.947058,33.25 123.372478,34.84125 125.450208,34.84125 C126.634031,34.84125 127.938652,34.2 128.542644,33.2975 Z M128.542644,38 L128.542644,35.93375 C127.455459,37.2875 125.981721,38 124.290545,38 C120.835714,38 118.202312,35.435 118.202312,30.89875 C118.202312,26.505 120.787395,23.82125 124.290545,23.82125 C125.909242,23.82125 127.455459,24.48625 128.542644,25.8875 L128.542644,19 L132.190751,19 L132.190751,38 L128.542644,38 Z" id="Fill-11" fill="#DA552F"></path>
                <path d="M144.02471,38 L144.02471,35.923893 C143.106963,36.9378057 141.506791,38 139.318319,38 C136.376825,38 134.988439,36.358427 134.988439,33.6788006 L134.988439,23.9259259 L138.518232,23.9259259 L138.518232,32.2544946 C138.518232,34.1616162 139.483043,34.7892764 140.989088,34.7892764 C142.353941,34.7892764 143.436411,34.0167715 144.048242,33.2201258 L144.048242,23.9259259 L147.578035,23.9259259 L147.578035,38 L144.02471,38 Z" id="Fill-13" fill="#DA552F"></path>
                <path d="M150.375723,30.927719 C150.375723,26.8394237 153.409648,23.9259259 157.590253,23.9259259 C160.385287,23.9259259 162.057529,25.1242194 162.965318,26.3460088 L160.624179,28.5076362 C159.979171,27.5677982 158.999715,27.0743832 157.757478,27.0743832 C155.583563,27.0743832 154.078545,28.6251159 154.078545,30.951215 C154.078545,33.277314 155.607452,34.8515427 157.757478,34.8515427 C158.999715,34.8515427 159.979171,34.2876399 160.624179,33.3947938 L162.965318,35.5564212 C162.057529,36.7782106 160.385287,38 157.590253,38 C153.409648,37.9530081 150.375723,35.0395103 150.375723,30.927719" id="Fill-15" fill="#DA552F"></path>
                <path d="M165.913934,34.2437437 L165.913934,27.2067067 L163.66474,27.2067067 L163.66474,24.0923423 L165.913934,24.0923423 L165.913934,20.4074074 L169.503073,20.4074074 L169.503073,24.1161161 L172.254746,24.1161161 L172.254746,27.2304805 L169.503073,27.2304805 L169.503073,33.3165666 C169.503073,34.1961962 169.957697,34.8380881 170.747308,34.8380881 C171.273715,34.8380881 171.800122,34.6478979 171.991542,34.4101602 L172.757225,37.1203704 C172.230818,37.5958458 171.273715,38 169.766276,38 C167.229951,37.9762262 165.913934,36.6924424 165.913934,34.2437437" id="Fill-17" fill="#DA552F"></path>
                <polygon id="Fill-19" fill="#DA552F" points="194.623313 38 194.623313 29.80625 185.814751 29.80625 185.814751 38 181.849711 38 181.849711 19 185.814751 19 185.814751 26.33875 194.623313 26.33875 194.623313 19 198.635838 19 198.635838 38"></polygon>
                <path d="M211.169218,38 L211.169218,35.923893 C210.251472,36.9378057 208.651299,38 206.462828,38 C203.521333,38 202.132948,36.358427 202.132948,33.6788006 L202.132948,23.9259259 L205.662741,23.9259259 L205.662741,32.2544946 C205.662741,34.1616162 206.627551,34.7892764 208.133596,34.7892764 C209.49845,34.7892764 210.580919,34.0167715 211.19275,33.2201258 L211.19275,23.9259259 L214.722543,23.9259259 L214.722543,38 L211.169218,38 Z" id="Fill-21" fill="#DA552F"></path>
                <path d="M227.279455,38 L227.279455,29.5602705 C227.279455,27.6978721 226.314645,27.0613562 224.8086,27.0613562 C223.420215,27.0613562 222.361277,27.8393201 221.749446,28.617284 L221.749446,38 L218.219653,38 L218.219653,24.2559712 L221.749446,24.2559712 L221.749446,25.9769216 C222.620129,24.9867858 224.267365,23.9259259 226.432305,23.9259259 C229.397331,23.9259259 230.809249,25.599727 230.809249,28.19294 L230.809249,38 L227.279455,38 Z" id="Fill-23" fill="#DA552F"></path>
                <path d="M235.156708,34.2437437 L235.156708,27.2067067 L232.907514,27.2067067 L232.907514,24.0923423 L235.156708,24.0923423 L235.156708,20.4074074 L238.745847,20.4074074 L238.745847,24.1161161 L241.497521,24.1161161 L241.497521,27.2304805 L238.745847,27.2304805 L238.745847,33.3165666 C238.745847,34.1961962 239.200472,34.8380881 239.990082,34.8380881 C240.516489,34.8380881 241.042896,34.6478979 241.234317,34.4101602 L242,37.1203704 C241.473593,37.5958458 240.516489,38 239.009051,38 C236.472726,37.9762262 235.156708,36.6924424 235.156708,34.2437437" id="Fill-25" fill="#DA552F"></path>
            </g>
        </g>
    </g>
</svg>