<?xml version="1.0" encoding="UTF-8"?>
<svg width="210px" height="82px" viewBox="0 0 210 82" version="1.1" xmlns="http://www.w3.org/2000/svg" xmlns:xlink="http://www.w3.org/1999/xlink">
    <!-- Generator: Sketch 47.1 (45422) - http://www.bohemiancoding.com/sketch -->
    <title>the-huffington-post</title>
    <desc>Created with Sketch.</desc>
    <defs></defs>
    <g id="Homepage" stroke="none" stroke-width="1" fill="none" fill-rule="evenodd">
        <g transform="translate(-1001.000000, -5666.000000)" id="the-huffington-post" fill-rule="nonzero" fill="#357160">
            <g transform="translate(1001.000000, 5666.000000)">
                <path d="M83.391,15.7580171 C83.391,18.8046325 83.4491,19.241265 85.1312,19.385641 L86.0587,19.4739487 C86.2309,19.5902906 86.1756,20.1124274 85.9999,20.1979316 C84.3493,20.1404615 83.3623,20.1124274 82.2017,20.1124274 C81.0411,20.1124274 80.0275,20.1418632 78.1718,20.1979316 C77.9982,20.1124274 77.9394,19.6169231 78.1718,19.4739487 L79.2162,19.385641 C80.8703,19.241265 81.0145,18.8039316 81.0145,15.7580171 L81.0145,2.78239316 C81.0145,1.88319658 81.0145,1.85376068 80.1437,1.85376068 L78.5491,1.85376068 C77.3031,1.85376068 75.7078,1.91123077 74.9833,2.5791453 C74.2868,3.21762393 73.9977,3.85470085 73.6799,4.58148718 C73.4489,4.75670085 73.0408,4.61092308 72.926,4.37823932 C73.3894,3.07324786 73.8241,1.21528205 74.0285,0.053965812 C74.116,-0.00420512821 74.4912,-0.0308376068 74.5794,0.053965812 C74.7523,0.983299145 75.7092,0.953863248 77.0434,0.953863248 L88.7852,0.953863248 C90.349,0.953863248 90.6115,0.894991453 91.0462,0.14157265 C91.1918,0.0827008547 91.5096,0.112136752 91.5691,0.228478632 C91.2492,1.41852991 91.0462,3.76919658 91.133,4.64105983 C91.0182,4.87234188 90.524,4.87234188 90.3805,4.69852991 C90.293,3.97384615 90.0914,2.8994359 89.6553,2.58054701 C88.9882,2.08644444 87.8885,1.85516239 86.2946,1.85516239 L84.2359,1.85516239 C83.3651,1.85516239 83.3945,1.88459829 83.3945,2.84196581 L83.3945,15.7580171 L83.3917,15.7580171 L83.391,15.7580171 Z M101.9004,10.737094 C100.5088,10.737094 100.45,10.7959658 100.45,11.6657265 L100.45,15.7580171 C100.45,18.8060342 100.5956,19.2132308 102.2189,19.3870427 L103.0596,19.4739487 C103.2318,19.5902906 103.1758,20.1124274 103.0008,20.1993333 C101.437,20.1404615 100.4486,20.1110256 99.3188,20.1110256 C98.0728,20.1110256 97.0872,20.1698974 95.9581,20.1993333 C95.7831,20.1110256 95.725,19.6477607 95.8986,19.4739487 L96.3921,19.3870427 C98.0168,19.096188 98.0728,18.8053333 98.0728,15.7580171 L98.0728,5.3082735 C98.0728,2.26235897 97.8712,1.76825641 96.3627,1.65191453 L95.6102,1.59444444 C95.4352,1.47880342 95.494,0.955965812 95.6676,0.868358974 C97.0886,0.897794872 98.0742,0.955965812 99.3202,0.955965812 C100.45,0.955965812 101.4384,0.92582906 102.6844,0.868358974 C102.8594,0.955965812 102.9168,1.47880342 102.7432,1.59444444 L102.1902,1.65191453 C100.5102,1.82712821 100.4514,2.26165812 100.4514,5.30897436 L100.4514,8.6471453 C100.4514,9.54704274 100.5102,9.57647863 101.9018,9.57647863 L110.194,9.57647863 C111.5842,9.57647863 111.643,9.54704274 111.643,8.6471453 L111.643,5.30897436 C111.643,2.26235897 111.5842,1.82712821 109.8748,1.65191453 L109.3239,1.59444444 C109.1517,1.47880342 109.2077,0.955965812 109.3827,0.868358974 C110.550873,0.924517141 111.720183,0.953727167 112.8897,0.955965812 C114.0188,0.955965812 115.0058,0.92582906 116.3092,0.868358974 C116.4842,0.955965812 116.5423,1.47880342 116.368,1.59444444 L115.759,1.65191453 C114.0769,1.82712821 114.0174,2.26165812 114.0174,5.30897436 L114.0174,15.7580171 C114.0174,18.8060342 114.0769,19.1816923 115.7583,19.3870427 L116.4555,19.4739487 C116.6305,19.5902906 116.5703,20.1124274 116.3974,20.1993333 C115.228973,20.1436565 114.059446,20.1142132 112.8897,20.1110256 C111.7025,20.1110256 110.6581,20.1404615 109.3827,20.1993333 C109.2077,20.1110256 109.1517,19.6477607 109.3239,19.4739487 L109.8748,19.3870427 C111.6437,19.096188 111.6437,18.8053333 111.6437,15.7580171 L111.6437,11.6657265 C111.6437,10.7959658 111.5842,10.737094 110.1947,10.737094 L101.9004,10.737094 L101.9004,10.737094 Z M123.718,5.30897436 C123.718,2.2882906 123.6585,1.85376068 121.9491,1.65191453 L121.4836,1.59234188 C121.3114,1.47740171 121.3702,0.954564103 121.5424,0.868358974 C122.7884,0.92582906 123.774,0.955965812 124.964,0.955965812 L130.4149,0.955965812 C132.2692,0.955965812 133.9807,0.955965812 134.3279,0.868358974 C134.5001,1.36105983 134.6758,3.45100855 134.7899,4.72796581 C134.6758,4.90317949 134.2131,4.96064957 134.0661,4.78683761 C133.6314,3.42087179 133.3703,2.40533333 131.8625,2.02757265 C131.2528,1.88459829 130.3246,1.85516239 129.0506,1.85516239 L126.9639,1.85516239 C126.0931,1.85516239 126.0931,1.91263248 126.0931,3.01577778 L126.0931,8.81955556 C126.0931,9.63254701 126.182,9.63254701 127.0507,9.63254701 L128.7307,9.63254701 C129.9487,9.63254701 130.8475,9.57507692 131.1968,9.46013675 C131.544,9.34309402 131.7477,9.16788034 131.8933,8.44389744 L132.1264,7.25244444 C132.2692,7.08003419 132.762,7.08003419 132.8789,7.28188034 C132.8789,7.97782906 132.7641,9.11041026 132.7641,10.211453 C132.7641,11.2571282 132.8789,12.3602735 132.8789,12.9987521 C132.7641,13.202 132.2699,13.202 132.1264,13.028188 L131.8639,11.8970085 C131.7477,11.3741709 131.5461,10.9389402 130.9658,10.7931624 C130.5591,10.6761197 129.864,10.6466838 128.7328,10.6466838 L127.0528,10.6466838 C126.1834,10.6466838 126.0945,10.6761197 126.0945,11.431641 L126.0945,15.5232308 C126.0945,17.0630085 126.1834,18.049812 126.6475,18.541812 C126.9933,18.8901368 127.603,19.2097265 130.1552,19.2097265 C132.3868,19.2097265 133.2282,19.0947863 133.8673,18.7751966 C134.3881,18.4829402 135.1707,17.4688034 135.926,15.9584615 C136.1276,15.8154872 136.5357,15.9009915 136.6505,16.1617094 C136.4475,17.1793504 135.7216,19.4136752 135.3443,20.1965299 C132.7361,20.1390598 130.1573,20.1096239 127.575,20.1096239 L124.9668,20.1096239 C123.7208,20.1096239 122.7352,20.1390598 121.0237,20.1965299 C120.8501,20.1096239 120.7899,19.6449573 120.9649,19.472547 L121.9225,19.3842393 C123.5731,19.241265 123.7194,18.8025299 123.7194,15.7566154 L123.7194,5.30897436 L123.718,5.30897436 L123.718,5.30897436 Z M6.3966,41.2200684 C5.005,41.2200684 4.9476,41.2775385 4.9476,42.1494017 L4.9476,46.2416923 C4.9476,49.2897094 5.0904,49.6948034 6.7144,49.8707179 L7.5558,49.9562222 C7.728,50.0725641 7.672,50.594 7.497,50.6830085 C5.9325,50.6241368 4.9469,50.5947009 3.815,50.5947009 C2.569,50.5947009 1.5834,50.6535726 0.4536,50.6830085 C0.2786,50.5947009 0.2212,50.1314359 0.3948,49.9562222 L0.8883,49.8707179 C2.5123,49.5784615 2.5683,49.2890085 2.5683,46.2416923 L2.5683,35.7919487 C2.5683,32.7453333 2.3667,32.2519316 0.8589,32.1348889 L0.1064,32.0781197 C-0.0686,31.9617778 -0.0105,31.4382393 0.1638,31.352735 C1.5848,31.3821709 2.5704,31.4382393 3.8164,31.4382393 C4.949,31.4382393 5.9339,31.4088034 7.1799,31.352735 C7.3549,31.4382393 7.413,31.9631795 7.2387,32.0781197 L6.6864,32.1355897 C5.0064,32.3108034 4.949,32.7460342 4.949,35.7926496 L4.949,39.1315214 C4.949,40.0307179 5.0064,40.0601538 6.398,40.0601538 L14.6902,40.0601538 C16.0804,40.0601538 16.1392,40.0307179 16.1392,39.1315214 L16.1392,35.7926496 C16.1392,32.7460342 16.0804,32.3115043 14.3717,32.1355897 L13.8194,32.0781197 C13.6472,31.9617778 13.7032,31.4382393 13.8782,31.352735 C15.2117,31.4102051 16.198,31.4382393 17.3852,31.4382393 C18.5164,31.4382393 19.5034,31.4088034 20.8068,31.352735 C20.9818,31.4382393 21.0392,31.9631795 20.8656,32.0781197 L20.2559,32.1355897 C18.5759,32.3108034 18.5164,32.7460342 18.5164,35.7926496 L18.5164,46.2423932 C18.5164,49.2904103 18.5752,49.6674701 20.2559,49.8714188 L20.951,49.9569231 C21.126,50.073265 21.0672,50.5947009 20.8936,50.6837094 C19.7244732,50.6280042 18.5542456,50.5985609 17.3838,50.5954017 C16.1966,50.5954017 15.1522,50.6248376 13.8768,50.6837094 C13.7018,50.5954017 13.6444,50.1321368 13.818,49.9569231 L14.371,49.8714188 C16.1378,49.5791624 16.1378,49.2897094 16.1378,46.2423932 L16.1378,42.1494017 C16.1378,41.2782393 16.079,41.2207692 14.6888,41.2207692 L6.3966,41.2207692 L6.3966,41.2200684 Z M41.9671,38.7236239 C41.9671,36.9245299 41.9076,33.586359 41.4162,32.7144957 C41.2132,32.3668718 40.6896,32.1629231 39.9672,32.105453 L39.242,32.0465812 C39.067,31.8433333 39.1258,31.4655726 39.2994,31.3506325 C40.4002026,31.4099167 41.5024061,31.4393634 42.6048,31.4389402 C43.8242,31.4389402 44.6061,31.4095043 45.6491,31.3506325 C45.8815,31.4950085 45.8521,31.8741709 45.7065,32.0465812 L45.0114,32.105453 C44.2883,32.1629231 43.7374,32.4243419 43.5624,32.8035043 C43.1564,33.7601709 43.1564,37.0969402 43.1564,38.7236239 L43.1564,42.0050256 C43.1564,44.530906 42.7504,47.1997607 41.1264,48.9413846 C39.8804,50.3052479 37.7356,51.0607692 35.5894,51.0607692 C33.5874,51.0607692 31.5896,50.6830085 30.1679,49.4635214 C28.63,48.1865641 27.9069,46.0657778 27.9069,42.6126667 L27.9069,35.7625128 C27.9069,32.7439316 27.8481,32.2512308 26.1681,32.105453 L25.4429,32.0465812 C25.2679,31.9302393 25.3267,31.4375385 25.5024,31.3506325 C26.9514,31.4095043 27.9363,31.4389402 29.0955,31.4389402 C30.2855,31.4389402 31.2431,31.4095043 32.6613,31.3506325 C32.8363,31.4389402 32.8923,31.931641 32.7201,32.0465812 L32.025,32.105453 C30.3429,32.2519316 30.2855,32.7439316 30.2855,35.7625128 L30.2855,42.0316581 C30.2855,46.706359 31.7345,49.7817094 36.1711,49.7817094 C40.3746,49.7817094 41.9685,46.4729744 41.9685,42.061094 L41.9685,38.7236239 L41.9671,38.7236239 L41.9671,38.7236239 Z M54.6154,39.6235214 C54.6154,40.4063761 54.7022,40.4063761 55.573,40.4063761 L57.5449,40.4063761 C58.7321,40.4063761 59.6596,40.348906 60.0075,40.2339658 C60.3253,40.1176239 60.5584,39.9711453 60.732,39.2163248 L60.9945,38.0557094 C61.1373,37.8818974 61.6315,37.8818974 61.747,38.0557094 C61.747,38.7516581 61.6308,39.9136752 61.6308,40.9873846 C61.6308,42.0330598 61.747,43.1341026 61.747,43.8041197 C61.6308,43.9765299 61.1961,43.9765299 60.9945,43.8041197 L60.7026,42.6701368 C60.557,42.148 60.3253,41.7408034 59.7751,41.5683932 C59.3698,41.4520513 58.6453,41.4226154 57.5435,41.4226154 L55.5716,41.4226154 C54.7008,41.4226154 54.614,41.4520513 54.614,42.2068718 L54.614,46.2402906 C54.614,49.2890085 54.6728,49.7235385 56.3829,49.8693162 L57.3685,49.9562222 C57.5435,50.0711624 57.4847,50.5932991 57.3111,50.6816068 C55.5982,50.622735 54.614,50.5932991 53.4534,50.5932991 C52.178,50.5932991 51.1924,50.622735 49.8302,50.6816068 C49.6552,50.5932991 49.5978,50.1300342 49.7714,49.9562222 L50.4959,49.8693162 C52.1759,49.6639658 52.2354,49.2876068 52.2354,46.2402906 L52.2354,35.790547 C52.2354,32.7439316 52.1766,32.3353333 50.4959,32.1334872 L50.0318,32.0760171 C49.8596,31.9596752 49.9156,31.4361368 50.0892,31.3506325 C51.3093,31.4081026 52.2928,31.4361368 53.4534,31.4361368 L58.7874,31.4361368 C60.6438,31.4361368 62.3245,31.4361368 62.7025,31.3506325 C62.7025,32.6850598 62.7305,34.0790598 62.79,35.182906 C62.7025,35.3560171 62.2965,35.4422222 62.0942,35.2684103 C61.8618,33.9620171 61.5139,32.8890085 60.0649,32.5112479 C59.4258,32.3360342 58.4696,32.3360342 57.2516,32.3360342 L55.4848,32.3360342 C54.614,32.3360342 54.614,32.394906 54.614,33.4980513 L54.614,39.6235214 L54.6154,39.6235214 Z M72.0349,39.6235214 C72.0349,40.4063761 72.1217,40.4063761 72.9918,40.4063761 L74.9644,40.4063761 C76.1509,40.4063761 77.0791,40.348906 77.4284,40.2339658 C77.7462,40.1176239 77.9793,39.9711453 78.1543,39.2163248 L78.4147,38.0557094 C78.5575,37.8818974 79.0524,37.8818974 79.1679,38.0557094 C79.1679,38.7516581 79.051,39.9136752 79.051,40.9873846 C79.051,42.0330598 79.1679,43.1341026 79.1679,43.8041197 C79.051,43.9765299 78.617,43.9765299 78.4147,43.8041197 L78.1235,42.6701368 C77.9772,42.148 77.7462,41.7408034 77.1953,41.5683932 C76.7907,41.4520513 76.0655,41.4226154 74.9644,41.4226154 L72.9918,41.4226154 C72.1217,41.4226154 72.0349,41.4520513 72.0349,42.2068718 L72.0349,46.2402906 C72.0349,49.2890085 72.0937,49.7235385 73.8038,49.8693162 L74.7887,49.9562222 C74.9637,50.0711624 74.9049,50.5932991 74.7313,50.6816068 C73.0184,50.622735 72.0349,50.5932991 70.8743,50.5932991 C69.5989,50.5932991 68.6133,50.622735 67.2511,50.6816068 C67.0761,50.5932991 67.018,50.1300342 67.1923,49.9562222 L67.9182,49.8693162 C69.5982,49.6639658 69.6577,49.2876068 69.6577,46.2402906 L69.6577,35.790547 C69.6577,32.7439316 69.5989,32.3353333 67.9182,32.1334872 L67.4541,32.0760171 C67.2805,31.9596752 67.3379,31.4361368 67.5115,31.3506325 C68.7309,31.4081026 69.7151,31.4361368 70.8757,31.4361368 L76.2118,31.4361368 C78.0668,31.4361368 79.7475,31.4361368 80.1248,31.3506325 C80.1248,32.6850598 80.1528,34.0790598 80.2116,35.182906 C80.1248,35.3560171 79.7181,35.4422222 79.5151,35.2684103 C79.2827,33.9620171 78.9348,32.8890085 77.4851,32.5112479 C76.8467,32.3360342 75.8891,32.3360342 74.6725,32.3360342 L72.9036,32.3360342 C72.0349,32.3360342 72.0349,32.394906 72.0349,33.4980513 L72.0349,39.6235214 L72.0349,39.6235214 Z M87.2284,35.8494188 C87.2284,32.7733675 87.1696,32.2799658 85.4595,32.1334872 L84.735,32.0760171 C84.56,31.9610769 84.6202,31.4382393 84.7924,31.3506325 C86.2428,31.4095043 87.2284,31.4375385 88.445,31.4375385 C89.6042,31.4375385 90.5905,31.4095043 92.0402,31.3506325 C92.2152,31.4375385 92.2712,31.9610769 92.0976,32.0760171 L91.3745,32.1334872 C89.6644,32.2778632 89.6056,32.7733675 89.6056,35.8494188 L89.6056,46.1842222 C89.6056,49.2602735 89.6644,49.6674701 91.3745,49.8707179 L92.0976,49.9562222 C92.2726,50.0725641 92.2152,50.5961026 92.0402,50.6816068 C90.5912,50.622735 89.6042,50.5961026 88.445,50.5961026 C87.2284,50.5961026 86.2428,50.6241368 84.7924,50.6816068 C84.6202,50.5961026 84.5614,50.1300342 84.735,49.9562222 L85.4595,49.8707179 C87.1696,49.6653675 87.2284,49.2602735 87.2284,46.1842222 L87.2284,35.8487179 L87.2284,35.8494188 Z M115.0072,45.6620855 C115.0072,46.5332479 115.0072,49.9856581 115.094,50.7418803 C115.0366,50.9142906 114.8616,51.0607692 114.5431,51.0607692 C114.1959,50.5666667 113.3531,49.5504274 110.8317,46.6776239 L104.1068,39.0158803 C103.3249,38.1159829 101.353,35.7344786 100.7433,35.096 L100.6859,35.096 C100.569,35.4443248 100.5396,36.1122393 100.5396,36.9834017 L100.5396,43.3114188 C100.5396,44.6752821 100.569,48.4486838 101.0611,49.3191453 C101.2361,49.6401368 101.815,49.8132479 102.5416,49.8707179 L103.4397,49.9590256 C103.6119,50.1917094 103.5853,50.5400342 103.3809,50.6844103 C102.250975,50.6296002 101.119947,50.600624 99.9887,50.5975043 C98.7693,50.5975043 97.9874,50.6269402 96.9724,50.6844103 C96.7708,50.5414359 96.74,50.1328376 96.915,49.9590256 L97.6969,49.8707179 C98.3647,49.783812 98.8267,49.6114017 98.973,49.2890085 C99.3776,48.2468376 99.3482,44.7054188 99.3482,43.3107179 L99.3482,34.9214872 C99.3482,34.1105983 99.3188,33.5001538 98.7119,32.8315385 C98.3059,32.4250427 97.6101,32.2217949 96.915,32.1355897 L96.4215,32.0767179 C96.2465,31.9043077 96.2465,31.4676752 96.4789,31.352735 C97.699,31.439641 99.2334,31.439641 99.7563,31.439641 C100.2204,31.439641 100.7139,31.4102051 101.0891,31.352735 C101.6701,32.8315385 105.0896,36.6645128 106.0465,37.7375214 L108.8584,40.9025812 C110.8604,43.136906 112.2814,44.7614872 113.6436,46.1554872 L113.701,46.1554872 C113.8158,46.0104103 113.8158,45.5443419 113.8158,44.9338974 L113.8158,38.7222222 C113.8158,37.358359 113.7864,33.5849573 113.2355,32.7144957 C113.0633,32.4537778 112.5992,32.2799658 111.4386,32.1334872 L110.9451,32.0746154 C110.7435,31.9022051 110.7729,31.4368376 111.0039,31.3506325 C112.3374,31.4081026 113.3237,31.4375385 114.4255,31.4375385 C115.6729,31.4375385 116.4275,31.4081026 117.4124,31.3506325 C117.6434,31.4936068 117.6434,31.9022051 117.4712,32.0746154 L117.0652,32.1334872 C116.137,32.2799658 115.5567,32.5098462 115.4405,32.7439316 C114.947,33.7868034 115.0065,37.3877949 115.0065,38.7222222 L115.0065,45.6620855 L115.0072,45.6620855 Z M138.5258,47.6349915 C138.5258,48.7956068 138.7008,49.4929573 139.2209,49.6962051 C139.26475,49.745594 139.28643,49.8108387 139.280873,49.8766856 C139.275315,49.9425325 139.243006,50.0032091 139.1915,50.0445299 C138.8436,50.0445299 138.3235,50.1594701 137.7712,50.3038462 C136.2368,50.7124444 134.148,51.0607692 132.5814,51.0607692 C129.1332,51.0607692 125.9713,50.1034017 123.7383,47.8382393 C122.0002,46.0966154 121.0727,43.8041197 121.0727,41.2481026 C121.0727,38.781094 121.884,36.2860513 123.6809,34.3692137 C125.6234,32.336735 128.4941,30.9728718 132.8719,30.9728718 C134.5253,30.9728718 136.0597,31.2917607 136.5539,31.4081026 C137.1027,31.5244444 138.0015,31.7269915 138.3501,31.6688205 C138.3501,32.6275897 138.5251,34.1379316 138.7862,35.877453 C138.6994,36.108735 138.1765,36.1388718 138.0022,35.9664615 C137.1923,32.8308376 135.016,31.8433333 132.0592,31.8433333 C126.4354,31.8433333 123.9693,35.8515214 123.9693,40.2045299 C123.9693,45.7763248 126.8386,50.1594701 132.6682,50.1594701 C134.4651,50.1594701 135.5382,49.7817094 135.8567,49.2883077 C135.9995,49.0850598 136.1472,48.5622222 136.1472,47.6349915 L136.1472,46.4729744 C136.1472,44.034 136.0583,43.8615897 134.2614,43.6562393 L132.9846,43.513265 C132.7536,43.3969231 132.783,42.8733846 132.9846,42.7878803 C133.8274,42.8467521 135.4206,42.8733846 137.1307,42.8733846 C138.2619,42.8733846 139.2475,42.8453504 140.2037,42.7878803 C140.4081,42.9028205 140.4361,43.339453 140.2324,43.513265 L139.7683,43.570735 C138.5489,43.7172137 138.5223,44.5295043 138.5223,46.0097094 L138.5223,47.6349915 L138.5258,47.6349915 L138.5258,47.6349915 Z M153.8565,46.2416923 C153.8565,49.2883077 153.9153,49.7249402 155.5974,49.8693162 L156.5249,49.9576239 C156.6971,50.0739658 156.6397,50.5954017 156.4661,50.6830085 C154.8148,50.6255385 153.8299,50.5961026 152.6679,50.5961026 C151.5101,50.5961026 150.4951,50.6255385 148.638,50.6830085 C148.4644,50.5961026 148.407,50.102 148.638,49.9576239 L149.6838,49.8693162 C151.3344,49.725641 151.4807,49.2876068 151.4807,46.2416923 L151.4807,33.2660684 C151.4807,32.3668718 151.4807,32.3374359 150.6113,32.3374359 L149.0167,32.3374359 C147.7693,32.3374359 146.1754,32.394906 145.4495,33.0628205 C144.7544,33.7005983 144.4653,34.3411795 144.1461,35.0651624 C143.913,35.2403761 143.5084,35.0945983 143.3915,34.8633162 C143.8584,33.5583248 144.2917,31.700359 144.4947,30.5390427 C144.5815,30.4808718 144.9588,30.4528376 145.0456,30.5390427 C145.2192,31.4683761 146.1768,31.4389402 147.511,31.4389402 L159.2514,31.4389402 C160.8166,31.4389402 161.0777,31.3800684 161.5124,30.6259487 C161.6566,30.5677778 161.9758,30.5972137 162.0346,30.7135556 C161.714,31.9050085 161.5117,34.2542735 161.5971,35.1254359 C161.4837,35.3588205 160.9909,35.3588205 160.8446,35.182906 C160.7578,34.4575214 160.5562,33.383812 160.1201,33.0642222 C159.453,32.5701197 158.3526,32.3388376 156.758,32.3388376 L154.7,32.3388376 C153.8313,32.3388376 153.8579,32.3682735 153.8579,33.3249402 L153.8579,46.2416923 L153.8565,46.2416923 L153.8565,46.2416923 Z M165.0544,41.2200684 C165.0544,35.4162906 169.4014,30.9735726 175.3759,30.9735726 C182.0728,30.9735726 185.4335,35.8199829 185.4335,40.9313162 C185.4335,46.793265 180.971,51.0607692 175.3759,51.0607692 C168.938,51.0593675 165.0544,46.4449402 165.0544,41.2207692 L165.0544,41.2200684 Z M182.5369,41.8291111 C182.5369,37.0394701 180.4187,31.8727692 174.8824,31.8727692 C171.8675,31.8727692 167.9538,33.9339829 167.9538,40.2900342 C167.9538,44.5862735 170.0412,50.1594701 175.7525,50.1594701 C179.2287,50.1594701 182.5369,47.5480855 182.5369,41.8291111 L182.5369,41.8291111 Z M207.4114,45.6620855 C207.4114,46.5332479 207.4114,49.9856581 207.4968,50.7418803 C207.4394,50.9142906 207.2637,51.0607692 206.9459,51.0607692 C206.598,50.5666667 205.7573,49.5504274 203.2359,46.6776239 L196.511,39.0165812 C195.727,38.1166838 193.7565,35.7351795 193.1468,35.0967009 L193.0894,35.0967009 C192.9732,35.4450256 192.9438,36.1129402 192.9438,36.9841026 L192.9438,43.3121197 C192.9438,44.6759829 192.9732,48.4493846 193.4653,49.3198462 C193.6403,49.6408376 194.2206,49.8139487 194.9451,49.8714188 L195.8439,49.9597265 C196.0175,50.1924103 195.9867,50.540735 195.7844,50.6851111 C194.655174,50.6303299 193.524846,50.6013537 192.3943,50.5982051 C191.1749,50.5982051 190.3923,50.627641 189.3773,50.6851111 C189.1764,50.5421368 189.1449,50.1335385 189.3206,49.9597265 L190.1025,49.8714188 C190.7696,49.7845128 191.2323,49.6121026 191.3793,49.2897094 C191.7846,48.2475385 191.7552,44.7061197 191.7552,43.3114188 L191.7552,34.9214872 C191.7552,34.1105983 191.7272,33.5001538 191.1175,32.8315385 C190.7108,32.4250427 190.0157,32.2217949 189.3206,32.1355897 L188.8271,32.0767179 C188.6535,31.9043077 188.6535,31.4676752 188.8845,31.352735 C190.1039,31.439641 191.639,31.439641 192.1619,31.439641 C192.6253,31.439641 193.1188,31.4102051 193.4947,31.352735 C194.075,32.8315385 197.4945,36.6645128 198.4521,37.7375214 L201.2654,40.9025812 C203.2639,43.136906 204.6863,44.7614872 206.0471,46.1554872 L206.1045,46.1554872 C206.2214,46.0104103 206.2214,45.5443419 206.2214,44.9338974 L206.2214,38.7222222 C206.2214,37.358359 206.1934,33.5849573 205.6404,32.7144957 C205.4668,32.4537778 205.0034,32.2799658 203.8442,32.1334872 L203.3507,32.0746154 C203.1491,31.9022051 203.1785,31.4368376 203.4095,31.3506325 C204.7423,31.4081026 205.7279,31.4375385 206.8311,31.4375385 C208.0771,31.4375385 208.8296,31.4081026 209.8166,31.3506325 C210.0476,31.4936068 210.0476,31.9022051 209.8754,32.0746154 L209.4673,32.1334872 C208.5391,32.2799658 207.9588,32.5098462 207.844,32.7439316 C207.3512,33.7868034 207.41,37.3877949 207.41,38.7222222 L207.41,45.6620855 L207.4114,45.6620855 Z M71.8417,76.7246667 C71.8417,79.7712821 71.9005,80.1504444 73.7548,80.3522906 L74.5402,80.4412991 C74.7124,80.5856752 74.6564,81.0783761 74.4807,81.1652821 C72.8273,81.107812 71.8725,81.0783761 70.7119,81.0783761 C69.4953,81.0783761 68.4509,81.107812 67.1755,81.1652821 C67.0005,81.0783761 66.9445,80.6137094 67.1167,80.4412991 L67.7264,80.3522906 C69.4071,80.1224103 69.4659,79.7712821 69.4659,76.7246667 L69.4659,66.0135043 C69.4659,63.5478974 69.4071,63.0537949 68.1037,62.9080171 L67.0593,62.7923761 C66.8549,62.6171624 66.8843,62.1826325 67.1167,62.0669915 C68.6546,61.8623419 70.4515,61.8357094 72.8581,61.8357094 C75.2647,61.8357094 77.063,62.1538974 78.4252,62.9949231 C79.758,63.8366496 80.745,65.3469915 80.745,67.350735 C80.745,70.0195897 79.093,71.3561197 77.8449,71.9665641 C76.5695,72.5756068 75.0316,72.8363248 73.8444,72.8363248 C73.64,72.7480171 73.64,72.3127863 73.815,72.2553162 C76.9468,71.6743077 78.078,69.9032479 78.078,67.3787692 C78.078,64.5634359 76.4239,62.734906 73.409,62.734906 C71.8739,62.734906 71.8445,62.8519487 71.8445,63.7805812 L71.8445,76.7253675 L71.8417,76.7246667 Z M84.8995,71.7023419 C84.8995,65.8985641 89.2493,61.4551453 95.2217,61.4551453 C101.92,61.4551453 105.2807,66.3022564 105.2807,71.412188 C105.2807,77.2734359 100.8168,81.5409402 95.2217,81.5409402 C88.7852,81.5423419 84.8995,76.9286154 84.8995,71.7023419 L84.8995,71.7023419 Z M102.382,72.3127863 C102.382,67.5217436 100.2645,62.3550427 94.7268,62.3550427 C91.7133,62.3550427 87.7982,64.4176581 87.7982,70.7730085 C87.7982,75.0706496 89.8856,80.6410427 95.5969,80.6410427 C99.0759,80.6431453 102.382,78.0317607 102.382,72.3127863 L102.382,72.3127863 Z M114.8441,81.5423419 C112.4081,81.5423419 110.8716,80.7875214 110.3193,80.4672308 C109.9721,79.829453 109.5962,77.7689402 109.5374,76.4050769 C109.6816,76.2032308 110.1177,76.1436581 110.2325,76.3195726 C110.6665,77.7983761 111.8558,80.6431453 115.2193,80.6431453 C117.6539,80.6431453 118.8425,79.0472991 118.8425,77.3042735 C118.8425,76.0259145 118.5821,74.6045812 116.4653,73.2393162 L113.7115,71.4402222 C112.2604,70.481453 110.5783,68.826735 110.5783,66.4480342 C110.5783,63.6894701 112.7231,61.4551453 116.4947,61.4551453 C117.3935,61.4551453 118.4379,61.6275556 119.1897,61.832906 C119.5677,61.9478462 119.9737,62.0053162 120.2047,62.0053162 C120.4672,62.701265 120.7297,64.3279487 120.7297,65.5460342 C120.6128,65.7212479 120.1487,65.8081538 120.0031,65.6343419 C119.6265,64.2410427 118.8439,62.3529402 116.0607,62.3529402 C113.2194,62.3529402 112.6097,64.2410427 112.6097,65.5754701 C112.6097,67.2575214 114.0013,68.4791111 115.0751,69.1456239 L117.3949,70.5963932 C119.2212,71.7275726 121.0181,73.4131282 121.0181,76.1702906 C121.0181,79.366188 118.6115,81.5423419 114.8441,81.5423419 L114.8441,81.5423419 Z M135.4416,76.7246667 C135.4416,79.7712821 135.5004,80.2079145 137.1811,80.3522906 L138.1086,80.4412991 C138.2808,80.5562393 138.2248,81.0783761 138.0512,81.1652821 C136.3992,81.107812 135.4122,81.0783761 134.2516,81.0783761 C133.0938,81.0783761 132.0774,81.107812 130.2217,81.1652821 C130.0481,81.0783761 129.9907,80.5856752 130.2217,80.4412991 L131.2647,80.3522906 C132.9188,80.2093162 133.063,79.7712821 133.063,76.7246667 L133.063,63.7497436 C133.063,62.8498462 133.063,62.8204103 132.1922,62.8204103 L130.599,62.8204103 C129.353,62.8204103 127.7577,62.8778803 127.0332,63.5464957 C126.3381,64.1835726 126.0476,64.823453 125.7284,65.5474359 C125.4974,65.7226496 125.0907,65.5768718 124.9738,65.3455897 C125.4393,64.0398974 125.8726,62.1819316 126.077,61.0213162 C126.1638,60.9624444 126.5411,60.9344103 126.6279,61.0213162 C126.8001,61.9506496 127.7577,61.9212137 129.0905,61.9212137 L140.8337,61.9212137 C142.4003,61.9212137 142.66,61.8623419 143.0954,61.1082222 C143.2389,61.0493504 143.5595,61.0794872 143.6169,61.1944274 C143.2991,62.3858803 143.0954,64.7344444 143.1829,65.6077094 C143.066,65.8389915 142.5732,65.8389915 142.4283,65.6651795 C142.3429,64.9411966 142.1399,63.8660855 141.7052,63.5478974 C141.0367,63.0537949 139.9363,62.821812 138.3417,62.821812 L136.2823,62.821812 C135.4122,62.821812 135.4416,62.8519487 135.4416,63.8100171 L135.4416,76.7246667 L135.4416,76.7246667 Z" id="Shape"></path>
            </g>
        </g>
    </g>
</svg>