<svg xmlns="http://www.w3.org/2000/svg" xmlns:xlink="http://www.w3.org/1999/xlink" width="214" height="29" viewBox="0 0 214 29">
    <defs>
        <path id="a" d="M0 1.622h135.96v27.44H0z"/>
        <path id="c" d="M1.708 1.635h75.43V29.05H1.709z"/>
    </defs>
    <g fill="none" fill-rule="evenodd">
        <g transform="translate(0 -.685)">
            <mask id="b" fill="#fff">
                <use xlink:href="#a"/>
            </mask>
            <path fill="#000" d="M100.938 28.45v-5.438h1.616v-8.701h-1.616V8.874h7.544c0 .905.178 1.994.178 3.08.179-.18.179-.362.179-.544.54-1.631 1.799-2.536 3.415-2.718h2.513c.18 0 .36.182.36.362v5.983c-.898 0-1.977-.182-2.873 0-1.977.363-2.876 1.45-3.054 3.443v4.352h2.156v5.437c-3.233.182-6.827.182-10.418.182zM65.555 8.693h2.156V4.885c0-.725.18-.907.898-1.087l5.569-1.27v6.164h3.052v5.439h-3.052v7.612c.178 1.27 1.077 1.814 2.154 1.631.18 0 .359 0 .718-.18v3.443c0 1.632 0 1.632-1.617 1.814-1.616.182-3.232.362-5.027 0-2.336-.543-3.413-1.994-3.413-4.35v-9.97h-1.617c.179-1.632.179-3.445.179-5.439zm58.731 7.432h4.67c0-1.993-.898-3.082-2.514-2.9-1.438.18-2.336 1.269-2.156 2.9zm11.674 3.807h-12.033c0 1.087 0 2.176.54 3.081.537.907 1.255 1.089 2.154 1.089.898 0 1.618-.544 1.975-1.27l.36-1.088h6.647c-.361 3.99-3.235 6.708-7.188 7.07-1.973.18-3.77.18-5.566-.544-2.694-.907-4.49-2.719-5.389-5.437-.896-2.9-.896-5.62 0-8.521 1.079-3.625 3.772-5.437 7.364-5.981 1.618-.182 3.415-.182 5.03.362 3.412 1.087 5.207 3.445 5.927 6.708.179 1.63.179 3.08.179 4.531zM30.533 16.124H35.2c0-1.087 0-1.993-1.076-2.538-.897-.544-1.795-.544-2.515 0-1.077.545-1.077 1.451-1.077 2.538zm11.854 3.807H30.352c0 1.087 0 2.176.54 3.081.359.725 1.257 1.089 1.975 1.089.72 0 1.617-.364 1.975-1.27.18-.363.18-.724.36-1.27h6.645c-.178 2.176-1.077 3.99-2.873 5.258a9.02 9.02 0 0 1-4.132 1.632c-1.975.362-4.13.182-6.106-.363-2.693-.906-4.49-2.72-5.208-5.256-.898-2.9-.898-5.803 0-8.701 1.077-3.445 3.592-5.439 7.183-5.983 1.619-.18 3.235-.18 4.851.362 3.592 1.089 5.567 3.445 6.285 7.252.36 1.45.36 2.718.54 4.17zm48.313-5.8h-1.257V8.692h8.442v14.32H99.5v5.439h-7.901v-1.994c-.36.362-.54.725-.899.905-1.975 1.813-5.388 2.178-7.722 1.089-1.797-.907-2.696-2.356-2.696-4.35l-.178-9.064v-.726h-1.617V8.874h8.622v11.602c0 .542 0 1.085.178 1.45.18.724.899 1.086 1.616 1.086.718 0 1.258-.362 1.617-1.087.18-.182.18-.542.18-.907v-6.887zM43.644 8.874h7.723l.18 2.718c.538-.544.897-1.088 1.258-1.45 2.153-1.812 4.668-2.175 7.363-1.268 1.976.725 2.874 2.356 2.874 4.53v9.608h1.616v5.439h-8.62V16.304c0-1.086-.362-1.63-1.08-1.811-.896-.182-1.616 0-2.153.725l-.361.544-.179.542v6.708h1.258v5.439h-9.879v-5.439h1.436v-8.701h-1.436V8.874zm-18.14-7.252v5.439h-1.078c-.539-.182-.717.18-.717.544-1.617 5.619-3.414 11.055-5.21 16.676-.36 1.27-.718 2.538-1.258 3.807 0 .18-.359.363-.537.363H8.442l-.18-.543c-2.155-6.707-4.31-13.597-6.286-20.303-.18-.544-.359-.544-.898-.544H-.001V1.622h11.495v5.439H9.16c1.257 5.076 2.514 10.15 3.772 15.046h.18l4.13-15.046h-2.335V1.622h10.596z" mask="url(#b)"/>
        </g>
        <g transform="translate(136.295 -.685)">
            <mask id="d" fill="#fff">
                <use xlink:href="#c"/>
            </mask>
            <path fill="#FF0113" d="M37.267 16.5c0-1.09-.179-2.177-1.079-2.72-.896-.544-1.795-.544-2.693.181-.718.544-.899 1.45-.899 2.538h4.671zm7.005 3.626H32.239c0 1.267 0 2.354.718 3.261.538.725 1.258.907 2.156.907.899 0 1.436-.543 1.795-1.267l.359-1.09h6.646c-.18 2.175-1.079 3.988-2.874 5.257-2.154 1.632-4.49 1.994-7.005 1.814-1.077 0-1.975-.182-3.052-.545-2.695-.724-4.311-2.538-5.208-5.076-.898-3.083-1.079-6.161.177-9.244 1.259-3.263 3.772-5.076 7.187-5.438 1.614-.183 3.411 0 5.027.362 3.414 1.089 5.21 3.625 5.928 7.07 0 1.269.179 2.538.179 3.99zm11.495-.182H54.15c-1.616.182-2.334 1.45-2.156 2.9.18 1.268 1.258 1.994 2.515 1.45.718-.182 1.08-.725 1.258-1.45v-2.9zm0-3.445v-1.813c0-1.087-.718-1.812-1.617-1.812-.898 0-1.797.725-1.797 1.631v.725h-6.465c-.18-2.538 1.079-4.712 3.413-5.8 3.413-1.45 7.005-1.45 10.416.181 2.156 1.087 3.235 2.719 3.235 5.075v8.158h1.616v5.439h-8.082c0-.725-.18-1.271-.18-2.178-.18.182-.36.365-.36.547-2.155 2.536-6.105 2.536-8.261 1.449-1.616-.907-2.334-2.538-2.515-4.35-.18-3.99 1.797-6.525 5.926-7.252l4.312-.362c-.18.362 0 .362.359.362zm21.194-1.994h-2.695c-.178 0-.359.18-.359.363v6.888c0 1.449.899 2.175 2.513 1.813h.36v4.35c0 .364 0 .544-.36.544-1.975.363-3.95.545-6.104.182-2.337-.544-3.414-1.813-3.414-4.17V14.324h-.72c-1.076 0-.896.182-.896-.904V8.885h2.156V5.26c0-1.27-.18-1.087 1.077-1.27a74.882 74.882 0 0 0 5.388-1.268v6.163h3.233c-.179 1.995-.179 3.807-.179 5.62zm-65.736-1.813c1.077 0 1.975 0 3.052-.18 1.26-.182 1.978-1.27 1.978-2.538 0-1.27-.718-2.356-1.797-2.538-1.077-.18-2.156-.18-3.233-.18v5.436zm0 5.076v5.259c0 .178.179.36.36.36h3.053c.718 0 1.436-.36 1.795-1.087.898-1.631 0-3.807-1.795-4.17-1.079-.362-2.156-.362-3.413-.362zm3.95-15.953c1.08.182 2.156.182 3.055.544 4.129 1.09 6.285 6.163 4.129 9.97-.537.907-1.255 1.452-2.154 1.994-.359.182-.72.363-1.257.725.18.182.36.182.537.182 2.874.907 4.133 3.083 4.312 5.801.359 3.987-2.156 6.888-6.107 7.252-1.257.18-2.514.18-3.591.18H1.708v-5.436H4.04V7.073H1.708V1.635c4.668.18 8.978.18 13.468.18z" mask="url(#d)"/>
        </g>
    </g>
</svg>
