<?xml version="1.0" encoding="UTF-8"?>
<svg width="18px" height="17px" viewBox="0 0 18 17" version="1.1" xmlns="http://www.w3.org/2000/svg" xmlns:xlink="http://www.w3.org/1999/xlink">
    <!-- Generator: Sketch 48.2 (47327) - http://www.bohemiancoding.com/sketch -->
    <title>Linkedin</title>
    <desc>Created with Sketch.</desc>
    <defs></defs>
    <g id="Profile-Box" stroke="none" stroke-width="1" fill="none" fill-rule="evenodd" transform="translate(-101.000000, -56.000000)">
        <path d="M101.453782,61.4513955 L104.962049,61.4513955 L104.962049,73 L101.453782,73 L101.453782,61.4513955 Z M114.547574,61.3403805 C117.040933,61.3403805 119,63.0015506 119,66.5788705 L119,73 L115.021849,73 L115.021849,67.0239444 C115.021849,65.4595957 114.399729,64.3920265 113.031065,64.3920265 C111.98444,64.3920265 111.402331,65.1123569 111.131526,65.8068344 C111.030035,66.0562381 111.045649,66.4034769 111.045649,66.7507156 L111.045649,73 L107.104581,73 C107.104581,73 107.155327,62.4140327 107.104581,61.4513955 L111.045649,61.4513955 L111.045649,63.2641341 C111.278395,62.4713144 112.537761,61.3403805 114.547574,61.3403805 Z M103.14302,56 C104.437517,56 105.233342,56.8622674 105.258715,58.0018189 C105.258715,59.1210937 104.437517,60.0071863 103.118623,60.0071863 L103.09325,60.0071863 C101.823638,60.0071863 101,59.1241353 101,58.0048604 C101,56.8642951 101.847547,56 103.14302,56 Z" id="Linkedin" fill="#187FB8"></path>
    </g>
</svg>