<?xml version="1.0" encoding="UTF-8"?>
<svg width="19px" height="16px" viewBox="0 0 19 16" version="1.1" xmlns="http://www.w3.org/2000/svg" xmlns:xlink="http://www.w3.org/1999/xlink">
    <!-- Generator: Sketch 48.2 (47327) - http://www.bohemiancoding.com/sketch -->
    <title>Twitter</title>
    <desc>Created with Sketch.</desc>
    <defs></defs>
    <g id="Profile-Box" stroke="none" stroke-width="1" fill="none" fill-rule="evenodd" transform="translate(-131.000000, -57.000000)">
        <path d="M149.475957,57.2957931 C148.722105,57.7581942 147.889114,58.0944859 146.998798,58.2749351 C146.28959,57.4900836 145.275999,57 144.153846,57 C142.002884,57 140.257256,58.8085931 140.257256,61.0390888 C140.257256,61.3559002 140.290738,61.6629714 140.357702,61.9587645 C137.118068,61.7901061 134.246229,60.1840056 132.322538,57.737176 C131.986703,58.3359393 131.794943,59.0305661 131.794943,59.7703053 C131.794943,61.1708372 132.482845,62.4073243 133.52941,63.1316843 C132.891224,63.112204 132.289056,62.928679 131.762476,62.6282721 L131.762476,62.6774855 C131.762476,64.6352568 133.10632,66.2685271 134.89101,66.6381404 C134.564307,66.7329788 134.219342,66.7806543 133.863723,66.7806543 C133.612608,66.7806543 133.367581,66.7560475 133.130163,66.7088847 C133.626305,68.3129345 135.065015,69.4812406 136.771073,69.5125116 C135.437375,70.5962321 133.755667,71.2421582 131.929885,71.2421582 C131.615358,71.2421582 131.304381,71.2237032 131,71.1867931 C132.724828,72.3310051 134.774838,73 136.975516,73 C144.146237,73 148.066163,66.8462721 148.066163,61.5081542 C148.066163,61.3323187 148.063119,61.1569959 148.056524,60.984749 C148.817985,60.4152062 149.479508,59.7041748 150,58.894204 C149.301952,59.2151165 148.550129,59.4324757 147.761781,59.5298773 C148.56687,59.0305661 149.184765,58.2390503 149.475957,57.2957931" id="Twitter" fill="#24A9E6"></path>
    </g>
</svg>