<?xml version="1.0" encoding="UTF-8"?>
<svg width="102px" height="45px" viewBox="0 0 102 45" version="1.1" xmlns="http://www.w3.org/2000/svg" xmlns:xlink="http://www.w3.org/1999/xlink">
    <!-- Generator: Sketch 48 (47235) - http://www.bohemiancoding.com/sketch -->
    <title>ebay</title>
    <desc>Created with Sketch.</desc>
    <defs></defs>
    <g id="Assessment-Library" stroke="none" stroke-width="1" fill="none" fill-rule="evenodd" transform="translate(-520.000000, -3884.000000)">
        <g id="ebay" transform="translate(520.000000, 3884.000000)" fill-rule="nonzero">
            <path d="M13.4179052,9.50704225 C6.09892196,9.50704225 0,12.8710726 0,23.0216685 C0,31.0630886 4.1011365,36.1267606 13.6065388,36.1267606 C24.7951065,36.1267606 25.5122602,28.1408451 25.5122602,28.1408451 L20.0910347,28.1408451 C20.0910347,28.1408451 18.9287749,32.4409534 13.2759974,32.4409534 C8.67195333,32.4409534 5.36065509,29.0709226 5.36065509,24.347779 L26.0795455,24.347779 L26.0795455,21.383532 C26.0795455,16.7106426 23.3417625,9.50704225 13.4179052,9.50704225 Z M13.2285794,13.2952329 C17.6111087,13.2952329 20.5987879,16.2043504 20.5987879,20.5644637 L5.48041146,20.5644637 C5.48041146,15.935453 9.38045417,13.2952329 13.2285794,13.2952329 Z" id="Shape" fill="#E53238"></path>
            <path d="M26.1947938,0 L26.1947938,31.0089821 C26.1947938,32.7690646 26.0795455,35.2405989 26.0795455,35.2405989 L31.1582932,35.2405989 C31.1582932,35.2405989 31.3408547,33.465679 31.3408547,31.843213 C31.3408547,31.843213 33.8501416,36.1267606 40.6732534,36.1267606 C47.8580887,36.1267606 52.7386364,30.6836729 52.7386364,22.8862661 C52.7386364,15.6319069 48.2558485,9.79748369 40.6848122,9.79748369 C33.5951674,9.79748369 31.3921896,13.9745732 31.3921896,13.9745732 L31.3921896,0 L26.1947938,0 Z M39.3739045,13.6329428 C44.2530923,13.6329428 47.3559593,17.5841334 47.3559593,22.8862661 C47.3559593,28.5719447 43.7723808,32.2913015 39.4089209,32.2913015 C34.2013262,32.2913015 31.3921896,27.8545581 31.3921896,22.9367131 C31.3921896,18.3541927 33.9126953,13.6329428 39.3739045,13.6329428 Z" id="Shape" fill="#0064D2"></path>
            <path d="M64.6720041,9.50704225 C53.928123,9.50704225 53.2391529,16.0033679 53.2391529,17.0417059 L58.5867769,17.0417059 C58.5867769,17.0417059 58.8670931,13.2490124 64.3032025,13.2490124 C67.8355253,13.2490124 70.5728306,15.0347747 70.5728306,18.4671828 L70.5728306,19.6890202 L64.3032025,19.6890202 C55.9798355,19.6890202 51.5795455,22.3781066 51.5795455,27.8349755 C51.5795455,33.2049432 55.6451446,36.1267606 61.1396813,36.1267606 C68.6278409,36.1267606 71.0399118,31.5575514 71.0399118,31.5575514 C71.0399118,33.3750158 71.1665607,35.1659996 71.1665607,35.1659996 L75.9204545,35.1659996 C75.9204545,35.1659996 75.7363914,32.9461046 75.7363914,31.5258492 L75.7363914,19.2500389 C75.7363914,11.2006819 69.8571798,9.50704225 64.6720041,9.50704225 Z M70.5728306,23.3545322 L70.5728306,24.9836487 C70.5728306,27.1084373 69.3853703,32.3911309 62.3957009,32.3911309 C58.5682017,32.3911309 56.9271694,30.2816339 56.9271694,27.8346025 C56.9271694,23.3832506 62.4534528,23.3545322 70.5728306,23.3545322 Z" id="Shape" fill="#F5AF02"></path>
            <polygon id="Shape" fill="#86B817" points="73.0227273 10.7746479 79.093841 10.7746479 87.8070292 29.9990084 96.5001088 10.7746479 102 10.7746479 86.1656166 45 80.3964737 45 84.9655721 35.4591351"></polygon>
        </g>
    </g>
</svg>