<?xml version="1.0" encoding="UTF-8"?>
<svg width="132px" height="41px" viewBox="0 0 132 41" version="1.1" xmlns="http://www.w3.org/2000/svg" xmlns:xlink="http://www.w3.org/1999/xlink">
    <!-- Generator: Sketch 48 (47235) - http://www.bohemiancoding.com/sketch -->
    <title>hubspot</title>
    <desc>Created with Sketch.</desc>
    <defs></defs>
    <g id="Assessment-Library" stroke="none" stroke-width="1" fill="none" fill-rule="evenodd" transform="translate(-320.000000, -3886.000000)">
        <g id="hubspot" transform="translate(320.000000, 3886.000000)" fill-rule="nonzero">
            <path d="M0,8.07575758 L4.60271147,8.07575758 L4.60271147,18.8878502 L14.3101218,18.8878502 L14.3101218,8.07575758 L18.9187633,8.07575758 L18.9187633,34.6161165 L14.3101218,34.6161165 L14.3101218,23.5769432 L4.60271147,23.5769432 L4.60271147,34.6161165 L0,34.6161165 L0,8.07575758 Z M33.5001182,25.9715129 C33.5001182,28.1932504 31.7881529,30.0011723 29.6873859,30.0011723 C27.5858453,30.0011723 25.8749114,28.1932504 25.8749114,25.9715129 L25.8749114,14.5449667 L21.5099156,14.5449667 L21.5099156,25.9715129 C21.5099156,30.7385711 25.1785231,34.6161165 29.6873859,34.6161165 C34.1952173,34.6161165 37.863567,30.7385711 37.863567,25.9715129 L37.863567,14.5449667 L33.5001182,14.5449667 L33.5001182,25.9715129 Z M50.048944,14.6788161 C47.8837204,14.6788161 46.3723439,15.3431566 44.9127903,16.8580272 L44.9127903,8.07575758 L40.5336141,8.07575758 L40.5336141,24.351689 C40.5336141,30.4438842 44.6995681,34.6161165 49.3798853,34.6161165 C54.5830737,34.6161165 59.1419548,30.3694628 59.1419548,24.6477389 C59.1419548,18.9985282 54.9381003,14.6788161 50.048944,14.6788161 Z M50.1577466,30.332661 C47.1904261,30.332661 44.9212986,27.7123737 44.9212986,24.6477389 C44.9212986,21.5825589 47.1904261,18.9614538 50.1577466,18.9614538 C52.6720667,18.9614538 54.9424833,21.5825589 54.9424833,24.6477389 C54.9424833,27.7123737 52.6720667,30.332661 50.1577466,30.332661 Z M66.4969598,15.8452965 C66.4969598,13.5177879 67.9637325,12.7798439 69.5694734,12.7798439 C70.8622134,12.7798439 72.5728896,13.8135652 73.6892766,15.0691877 L76.5519197,11.5250392 C75.1212427,9.49467095 72.2235352,8.09129611 69.8489569,8.09129611 C65.0995424,8.09129611 61.6774166,11.0081786 61.6774166,15.8452965 C61.6774166,24.8167546 72.1186,21.9729305 72.1186,26.9954204 C72.1186,28.5443668 70.6874073,29.9117576 69.0471177,29.9117576 C66.4621533,29.9117576 65.6237028,28.5825316 64.4369293,27.1791567 L61.258707,30.6491564 C63.2852201,33.2708067 65.7985089,34.600578 68.8019251,34.600578 C73.306147,34.600578 76.9378854,31.6468938 76.9378854,27.0311318 C76.9378854,17.0630268 66.4969598,20.164736 66.4969598,15.8452965 Z M88.4663215,14.4187502 C83.78652,14.4187502 79.6200503,18.588529 79.6200503,24.6820873 L79.6200503,41 L83.9989687,41 L83.9989687,32.1760217 C85.4587801,33.6898019 86.9693832,34.3552328 89.1353802,34.3552328 C94.0242786,34.3552328 98.2286488,30.0360659 98.2286488,24.3868552 C98.2286488,18.6643134 93.6684786,14.4187502 88.4663215,14.4187502 Z M89.2444406,30.0731403 C86.2773779,30.0731403 84.0079926,27.4493091 84.0079926,24.3868552 C84.0079926,21.3216751 86.2773779,18.70057 89.2444406,18.70057 C91.7582451,18.70057 94.0289195,21.3216751 94.0289195,24.3868552 C94.0289195,27.4493091 91.7582451,30.0731403 89.2444406,30.0731403 Z M130.462325,30.332661 C127.879423,30.332661 127.146166,29.1517326 127.146166,27.3419024 L127.146166,19.3305621 L131.161034,19.3305621 L131.161034,15.2698256 L127.146166,15.2698256 L127.146166,9.91584697 L122.712846,12.0198188 L122.712846,28.338822 C122.712846,32.5113269 125.43549,34.6161165 129.170101,34.6161165 C129.72881,34.6161165 130.497905,34.5779517 130.917388,34.4686368 L132,30.2601479 C131.511162,30.2958593 130.95271,30.332661 130.462325,30.332661 Z" id="Shape" fill="#45535E"></path>
            <path d="M119.10876,19.1804958 C118.274539,17.6417491 117.101097,16.4081699 115.634038,15.4794833 C114.537714,14.7952602 113.40091,14.3609941 112.119859,14.1744877 L112.119859,9.28521787 C113.40091,8.7020763 114.19593,7.41136399 114.19593,5.90557875 C114.19593,3.85318413 112.660719,2.19000834 110.747854,2.19000834 C108.833452,2.19000834 107.271338,3.85318413 107.271338,5.90557875 C107.271338,7.41136399 108.020497,8.7020763 109.301548,9.28521787 L109.301548,14.1766851 C108.276707,14.3354491 107.213947,14.6779726 106.243423,15.2042558 C104.261125,13.5902474 97.7610737,8.29527806 93.9586589,5.20267754 C94.0488448,4.85411106 94.1182778,4.49483213 94.1182778,4.11577637 C94.1182778,1.84254057 92.4011574,0 90.2799935,0 C88.1588297,0 86.4424779,1.84254057 86.4424779,4.11577637 C86.4424779,6.3887375 88.1606232,8.23182742 90.281787,8.23182742 C91.0053245,8.23182742 91.6745454,8.00494333 92.2520431,7.63193049 L93.0544932,8.28456562 L104.080753,16.8017836 C103.497875,17.3755861 102.954966,18.0282212 102.52069,18.760513 C101.640608,20.2533883 101.102823,21.8959633 101.102823,23.6876884 L101.102823,24.0615253 C101.102823,25.3192762 101.325726,26.5067095 101.705429,27.6221772 C102.039783,28.5961857 102.528632,29.4817478 103.134057,30.2824344 L99.4746072,34.2152752 C98.3914448,33.7830624 97.1726047,34.0696203 96.3575545,34.9481163 C95.7994432,35.5435117 95.4868481,36.3536333 95.4895145,37.1977298 C95.4897707,38.0473091 95.798504,38.8457983 96.3590918,39.4465193 C96.9140933,40.045303 97.6695575,40.3810217 98.4569405,40.3787767 C99.2445332,40.3809355 100.000207,40.0452469 100.555558,39.4465193 C101.113305,38.8511552 101.426007,38.0415297 101.42411,37.1977298 C101.42411,36.8689402 101.376711,36.5481162 101.28755,36.2432235 L105.069981,32.1876016 C105.58855,32.5716016 106.148625,32.8948977 106.750719,33.1736959 C107.938253,33.7241508 109.249024,34.0595327 110.683545,34.0595327 L110.946417,34.0595327 C112.532358,34.0595327 114.028369,33.6601508 115.434706,32.8432582 C116.916626,31.979945 118.076489,30.7993786 118.952728,29.29222 C119.833578,27.7809412 120.318584,26.1111731 120.318584,24.2741261 L120.318584,24.1823836 C120.318584,22.3752765 119.928376,20.7079806 119.10876,19.1804958 Z M114.487241,27.6881 C113.460607,28.9112415 112.280503,29.6646834 110.946417,29.6646834 L110.726588,29.6646834 C109.964619,29.6646834 109.219304,29.4388981 108.489618,29.0282543 C107.667183,28.5761342 107.04203,27.9311901 106.530379,27.1145721 C106.001561,26.3130615 105.714605,25.4379371 105.714605,24.5100746 L105.714605,24.2282549 C105.714605,23.3160489 105.877811,22.4510877 106.289285,21.6341951 C106.729198,20.7412166 107.323349,20.0468304 108.113501,19.4947275 C108.889305,18.94647 109.717889,18.6775602 110.640758,18.6775602 L110.726588,18.6775602 C111.563371,18.6775602 112.355573,18.8544529 113.103194,19.2645472 C113.864907,19.7018348 114.487241,20.2992596 114.969685,21.0851136 C115.438293,21.8712422 115.71705,22.7191735 115.806723,23.6429159 C115.820815,23.8349158 115.827989,24.0315853 115.827989,24.2194652 C115.827989,25.4730959 115.381158,26.6341602 114.487241,27.6881 Z" id="Shape" fill="#F8761F"></path>
        </g>
    </g>
</svg>