<?xml version="1.0" encoding="UTF-8"?>
<svg width="181px" height="25px" viewBox="0 0 181 25" version="1.1" xmlns="http://www.w3.org/2000/svg" xmlns:xlink="http://www.w3.org/1999/xlink">
    <!-- Generator: Sketch 48 (47235) - http://www.bohemiancoding.com/sketch -->
    <title>tesla</title>
    <desc>Created with Sketch.</desc>
    <defs></defs>
    <g id="Assessment-Library" stroke="none" stroke-width="1" fill="none" fill-rule="evenodd" transform="translate(-689.000000, -3894.000000)">
        <g id="tesla" transform="translate(689.000000, 3894.000000)" fill="#5E5E5E" fill-rule="nonzero">
            <path d="M154.689264,9.91735537 L154.689264,25 L159.236798,25 L159.236798,14.9449036 L175.867782,14.9449036 L175.867782,25 L180.415317,25 L180.415317,9.91735537 L154.689264,9.91735537 M158.71708,5.02754821 L176.257571,5.02754821 C178.726233,4.54545455 180.480282,2.20385675 181,0 L153.974651,0 C154.494369,2.20385675 156.313383,4.47658402 158.71708,5.02754821 M140.851765,25 C143.125533,23.9669421 144.359864,22.1763085 144.879582,20.1101928 L124.415676,20.1101928 L124.415676,0.0688705234 L119.803176,0.0688705234 L119.803176,25 L140.851765,25 M85.6966665,4.95867769 L101.937862,4.95867769 C104.406523,4.20110193 106.420432,2.20385675 106.94015,0.0688705234 L81.2140966,0.0688705234 L81.2140966,14.8071625 L102.262686,14.8071625 L102.262686,19.9724518 L85.7616313,19.9724518 C83.1630401,20.7300275 80.9542375,22.5895317 79.8498362,25 L106.81022,25 L106.81022,9.91735537 L85.7616313,9.91735537 L85.6966665,4.95867769 M45.6783615,5.02754821 L63.2188523,5.02754821 C65.687514,4.54545455 67.5065279,2.20385675 67.9612813,0 L40.8709677,0 C41.390686,2.20385675 43.2096999,4.47658402 45.6783615,5.02754821 M45.6783615,14.8760331 L63.2188523,14.8760331 C65.687514,14.3939394 67.5065279,12.0523416 67.9612813,9.84848485 L40.8709677,9.84848485 C41.390686,12.0523416 43.2096999,14.3250689 45.6783615,14.8760331 M45.6783615,25 L63.2188523,25 C65.687514,24.5179063 67.5065279,22.1763085 67.9612813,19.9724518 L40.8709677,19.9724518 C41.390686,22.1763085 43.2096999,24.5179063 45.6783615,25" id="Shape"></path>
            <path d="M0,0.0690607735 C0.521267735,2.27900552 2.34570481,4.48895028 4.75656808,5.04143646 L12.1846333,5.04143646 L12.5755841,5.17955801 L12.5755841,25 L17.2018353,25 L17.2018353,5.17955801 L17.5927861,5.04143646 L25.0208513,5.04143646 C27.496873,4.35082873 29.2561516,2.27900552 29.7774194,0.0690607735 L29.7774194,0 L0,0.0690607735" id="Shape"></path>
        </g>
    </g>
</svg>