<svg id="Layer_1" data-name="Layer 1" xmlns="http://www.w3.org/2000/svg" xmlns:xlink="http://www.w3.org/1999/xlink" viewBox="0 0 600 600"><defs><style>.cls-1,.cls-20{fill:none;}.cls-2{opacity:0.32;}.cls-3{fill:#d0ecfe;}.cls-15,.cls-4{fill:#2aacf4;}.cls-5{clip-path:url(#clip-path);}.cls-6{fill:#e6e8fd;}.cls-7{fill:#436cff;}.cls-8{fill:#818cf5;}.cls-9{fill:#2a57d3;}.cls-10{fill:#adb4f8;}.cls-11{fill:#959ff6;}.cls-12{fill:#01303a;}.cls-13{fill:#6673f2;}.cls-14{fill:#ecf7fe;}.cls-15,.cls-19{opacity:0.33;}.cls-16{clip-path:url(#clip-path-2);}.cls-17{fill:#b3b3f6;}.cls-18{fill:#9f9ff4;}.cls-20{stroke:#2aacf4;stroke-miterlimit:10;stroke-width:5px;}</style><clipPath id="clip-path"><rect class="cls-1" x="139.87" y="147.05" width="132.68" height="145.9" transform="translate(-55.94 71.01) rotate(-17.24)"/></clipPath><clipPath id="clip-path-2"><rect class="cls-1" x="342.74" y="63.04" width="114.08" height="125.45" transform="translate(104.58 -171.72) rotate(27.76)"/></clipPath></defs><title>1 Export and Import</title><g class="cls-2"><rect class="cls-3" x="286.41" y="246.49" width="137.57" height="162.35" rx="3.43" transform="translate(-121.22 246.68) rotate(-33.04)"/><rect class="cls-4" x="295.14" y="260.3" width="114.08" height="125.45" transform="translate(-119.18 244.28) rotate(-33.04)"/></g><rect class="cls-3" x="128.12" y="131.74" width="159.99" height="188.81" rx="3.98" transform="translate(-57.68 71.85) rotate(-17.24)"/><rect class="cls-4" x="139.87" y="147.05" width="132.68" height="145.9" transform="translate(-55.94 71.01) rotate(-17.24)"/><g class="cls-5"><path class="cls-6" d="M167.34,275.56c-3.29,8.8-4,43.1-2.35,48.48s12.17,57.93,21.26,56.17,11.34-17.1,11.34-17.1Z"/><path class="cls-7" d="M259.48,251.87l28.63,111.78-78.68,17.14-8,10.41c-12.6-25.64-25.54-56.68-30.16-85.83-1.47-9.25-4.1-31.61-5.24-41-.62-5.06,28.2-36.71,34.75-38.28s9.19-3.47,19.88-4.06c12.08-.65,35.45,5.23,41.32,9.5s35.23,76,36,83.47c1.89,18.26,2.56,51.25,2.56,51.25l-12.39-2.63"/><path class="cls-8" d="M216.05,350.87a.71.71,0,0,1-.74-.21.84.84,0,0,1,0-1.12A116.24,116.24,0,0,0,239.55,307a.69.69,0,0,1,.93-.44.85.85,0,0,1,.46,1,118,118,0,0,1-24.59,43.12A.7.7,0,0,1,216.05,350.87Z"/><path class="cls-8" d="M242.41,353.58a.67.67,0,0,1-.48,0,.85.85,0,0,1-.45-1c5-15.36,8.09-27.94,8-43.19a.72.72,0,0,1,.73-.76.83.83,0,0,1,.74.83c.11,15.48-3,28.2-8.06,43.72A.71.71,0,0,1,242.41,353.58Z"/><path class="cls-9" d="M209.69,373.77h-.05a.77.77,0,0,1-.89-.61c-3.29-13.86-6.21-27.18-9-40.07-2.11-9.65-4.29-19.64-6.65-30-2.85-12.43-9.85-35.6-18-43.59a.83.83,0,0,1-.09-1.11.68.68,0,0,1,1,0c8.43,8.25,15.57,31.81,18.46,44.43,2.37,10.32,4.55,20.31,6.67,30,2.81,12.87,5.73,26.19,9,40A.75.75,0,0,1,209.69,373.77Z"/><path class="cls-10" d="M190,211.72l5.51,17.76s17.77,11.15,25.14-7.42L214,204.27Z"/><path class="cls-10" d="M218,189.36a4.13,4.13,0,0,0-1.45,0c-2.18-13.53-8-29.37-27.05-22.76-11.39,4-11.21,16.62-8.18,29a3.24,3.24,0,0,0-2.64.72c-3.57,2.54,2.61,12.7,7.25,13.12,5,10.61,12.5,16.06,20.33,14.32,7.23-1.6,10.87-9.34,11.37-19.47C221.63,201.89,222.4,190.05,218,189.36Z"/><path class="cls-11" d="M207.45,224.26c-.32.1-.65.18-1,.26a14.68,14.68,0,0,1-12.07-2.84.84.84,0,0,1-.23-1.1.66.66,0,0,1,1-.19A13.28,13.28,0,0,0,206.1,223c3.88-.87,6.81-3.59,8.69-8.09a.67.67,0,0,1,1-.35.84.84,0,0,1,.37,1.06C214.24,220.1,211.26,223.08,207.45,224.26Z"/><path class="cls-10" d="M201.39,391.2s17.48,19.24,17.93,7.86-9.89-18.27-9.89-18.27h0Z"/><path class="cls-12" d="M181.35,195.58l3.79,3.57,2.6-.81-2.3-7.43s2.14-4.67,1.2-8.94l20.13-4.56s1,5.52,3.23,7.13l2.65,8.56,2.42-.75,1.51-3s-1.13-20.48-4.54-24.63-6.86-1.21-6.86-1.21-9.07-6.36-17.23-.7-13.53,14-13.61,18.61S181.35,195.58,181.35,195.58Z"/><path class="cls-10" d="M288.11,363.65s-6.34,15.81,1.16,22,11.23-19.4,11.23-19.4S289.57,363.33,288.11,363.65Z"/><path class="cls-9" d="M287.81,362.09a.73.73,0,0,1-.82-.33.8.8,0,0,1,.16-1.09c0-.05,1.43-1.18.85-4.55-.16-1-1.39-2.43-2.69-4-3.31-3.92-8.32-9.84-4.39-17.69,3.16-6.32-.06-12-2.9-17-1.69-3-3.15-5.57-2.89-7.83.34-3.11-7.36-28.5-13-47-4.56-15-7.36-24.3-7.56-26.21a.74.74,0,0,1,.65-.83.8.8,0,0,1,.81.74c.18,1.84,3.73,13.52,7.48,25.88,7.62,25.09,13.42,44.53,13.06,47.74-.2,1.7,1.13,4.06,2.68,6.78,2.89,5.13,6.5,11.52,2.95,18.62-3.43,6.87.77,11.85,4.15,15.84,1.58,1.88,2.83,3.36,3.08,4.79.75,4.42-1.34,6-1.43,6.08A.75.75,0,0,1,287.81,362.09Z"/><path class="cls-13" d="M225.73,405.45a.7.7,0,0,1-.49,0,.85.85,0,0,1-.43-1,15.6,15.6,0,0,0-.49-11.06,15,15,0,0,0-7.65-7.78.84.84,0,0,1-.46-1,.67.67,0,0,1,.92-.44,16.41,16.41,0,0,1,8.51,8.64,17.21,17.21,0,0,1,.54,12.3A.7.7,0,0,1,225.73,405.45Z"/><path class="cls-13" d="M287.92,398.35a.74.74,0,0,1-.86-.38.82.82,0,0,1,.24-1.08,19,19,0,0,0,7.53-8.8.69.69,0,0,1,1-.34.86.86,0,0,1,.37,1.07,20.54,20.54,0,0,1-8.1,9.47Z"/><path class="cls-6" d="M175.15,250.28c5.74,6.06,14.15,36.53,14.15,36.53L193.1,299s5.09-35.65-7.09-60.73Z"/></g><rect class="cls-14" x="45" y="483.37" width="488.1" height="18.63" rx="9.32"/><rect class="cls-3" x="130.94" y="316.45" width="254.34" height="176.23"/><rect class="cls-4" x="378.92" y="316.45" width="83.37" height="176.23"/><polygon class="cls-3" points="130.23 316.45 114.69 292.88 378.92 292.88 378.92 316.45 130.23 316.45"/><polygon class="cls-15" points="130.23 316.45 114.69 292.88 378.92 292.88 378.92 316.45 130.23 316.45"/><polygon class="cls-12" points="462.29 316.45 378.92 316.45 378.92 292.88 482.07 292.88 462.29 316.45"/><rect class="cls-3" x="328.41" y="49.49" width="137.57" height="162.35" rx="3.43" transform="translate(106.57 -169.96) rotate(27.76)"/><rect class="cls-4" x="342.74" y="63.04" width="114.08" height="125.45" transform="translate(104.58 -171.72) rotate(27.76)"/><g class="cls-16"><path class="cls-12" d="M433.48,81a26.9,26.9,0,0,0-21.64-8A60.79,60.79,0,0,0,392,78.78c-1.94.92-17.28,9.1-16.6,11.47,4.08,14.29,13.37,26.48,25,35.05,10.61,8.19,23.86,12.39,36.29,16.86,6.39-14.89,9-32.57,4.57-48A30,30,0,0,0,433.48,81Z"/><path class="cls-7" d="M358.49,152.38l-10.07,28.88c-19,10-37.13,30.54-85.53,104.81l77.53,41.06c50.64-102.07,44-126.59,44-126.59L405,176.62c8.35-2.31,13.07-10.49,15-14.2s6.41-16,6.41-16-17.39-23.06-22.95-26-31.83-3-31.83-3L361.49,131C353.91,140.85,358.49,152.38,358.49,152.38Z"/><path class="cls-6" d="M367.56,147.21c-.54,1.63-18.69,44.71-18.69,44.71l28.84,15.27,28.55-40.89Z"/><path class="cls-7" d="M426.46,146.43c4.14,6.25-.6,27.41-3.75,34.29s-19.06,35.65-28.63,31.66-45.66-31.12-45.66-31.12l5.87-9L394.39,189l20-30.47Z"/><path class="cls-7" d="M371.68,117.42c-11.39,0-26.83,25.2-31.11,34.34s-14.9,22.24-7.69,26.64,43.87,19.34,43.87,19.34l14.32-9.69-31.78-20.92Z"/><path class="cls-9" d="M395.4,151.22l-.12-.08a30.84,30.84,0,0,1-10.21-17.92.63.63,0,1,1,1.24-.21,29.58,29.58,0,0,0,9.79,17.17.62.62,0,0,1,.07.89A.63.63,0,0,1,395.4,151.22Z"/><path class="cls-9" d="M404.87,176.38a.58.58,0,0,1-.25-.24.63.63,0,0,1,.23-.86,25.5,25.5,0,0,0,12.47-19.69.63.63,0,0,1,.27-.46c.91-.63,1.82-1.34,2.73-2s1.85-1.44,2.78-2.08a.63.63,0,1,1,.71,1c-.9.63-1.81,1.34-2.72,2.05s-1.69,1.31-2.54,1.91a26.77,26.77,0,0,1-13.07,20.38A.63.63,0,0,1,404.87,176.38Z"/><path class="cls-9" d="M358.51,151.83a.61.61,0,0,1-.34-.51,26.77,26.77,0,0,1,9.51-22.26c0-1,.09-2.11.16-3.18s.15-2.3.16-3.4a.62.62,0,0,1,.63-.62.63.63,0,0,1,.63.63c0,1.13-.09,2.3-.16,3.47s-.15,2.3-.16,3.4a.63.63,0,0,1-.24.49,25.51,25.51,0,0,0-9.27,21.38.63.63,0,0,1-.58.68A.66.66,0,0,1,358.51,151.83Z"/><path class="cls-17" d="M402.79,109.76l-7.2,13.59s.73,15.29,13.07,7.27l6.79-14.16Z"/><path class="cls-17" d="M422.63,79c-12.54-4.67-21.59,7.89-24.44,20.09-2.13,9.1-1.61,19.7,6,23.49s17.61-4.09,22.3-9.69C434,103.88,442.74,86.48,422.63,79Z"/><path class="cls-17" d="M401.16,96.85s1.92-4.72-2.49-5.14-5.36,12-.71,13S401.16,96.85,401.16,96.85Z"/><path class="cls-17" d="M425.36,109.38s2.52-4.44,5.59-1.24-6.13,11.66-9.77,8.62S425.36,109.38,425.36,109.38Z"/><path class="cls-12" d="M436.78,90.78a9,9,0,0,0-2.61-2.18,3.36,3.36,0,0,0-.49-2.44c-2.91-4.39-12.81-9.19-18.06-9.57s-14.35,4.84-17.86,8.77c-3.74,4.18-5.22,9.85-6.57,15.28-.39,1.56-.75,3.34.14,4.69,3.25,4.9,14.84,1.43,19.09,0a43.64,43.64,0,0,0,17.51-10.71c-4.15,4.2-12.65,23.71-4.2,27.75.87.42,1.87-.21,2.64-.8,2.85-2.19,5.79-4.47,7.58-7.6S439,93.61,436.78,90.78Z"/><path class="cls-18" d="M404,123.15a11.3,11.3,0,0,1-4.37-4.06.63.63,0,1,1,1.07-.66,10.44,10.44,0,0,0,9.75,4.76.63.63,0,0,1,.14,1.26A11.48,11.48,0,0,1,404,123.15Z"/><path class="cls-17" d="M379.27,180.28s-.41,9.56,0,9.2,11.83-1.43,11.83-1.43,5.39-1,4.64-3.27,3.26-3.68,3.14-5a12.92,12.92,0,0,1,.66-3.77l-3.83,3.39-5.15-2s2.22-4.26,1.5-5.37-6.34,6.35-6.34,6.35Z"/></g><g id="Interface-Essential_Login_Logout_logout-1" data-name="Interface-Essential / Login/Logout / logout-1" class="cls-19"><g id="Group_41" data-name="Group 41"><g id="logout-1"><path id="Shape_129" data-name="Shape 129" class="cls-20" d="M242,408h63"/><path id="Shape_130" data-name="Shape 130" class="cls-20" d="M290,423l15-15-15-15"/><path id="Shape_131" data-name="Shape 131" class="cls-20" d="M275,426v18a5.76,5.76,0,0,1-5.46,6H220.46a5.74,5.74,0,0,1-5.45-6V372a5.74,5.74,0,0,1,5.45-6h49.09a5.76,5.76,0,0,1,5.46,6v18"/></g></g></g></svg>