<svg id="Layer_1" data-name="Layer 1" xmlns="http://www.w3.org/2000/svg" viewBox="0 0 662 600"><defs><style>.cls-1{fill:#ecf7fe;}.cls-2,.cls-3{fill:#2aacf4;}.cls-2{opacity:0.33;}.cls-4{fill:#01303a;}.cls-5{fill:#1b97ce;opacity:0.35;}.cls-6{fill:#3344c1;}.cls-7{fill:#505cef;}.cls-8{fill:#5b66f0;}</style></defs><title>3 Plug and Play</title><path class="cls-1" d="M621.35,468.07c-17-.7-28.44-3.34-35.45-8.16-5.2-3.57-11.17-10.12-11.19-29.26,0-4.79,0-9,0-12.8.08-23.78.12-33.62-5.11-85.91-1.55-15.59-8.25-29.52-19.9-41.4-9-9.18-20.92-17.1-35.47-23.56a191.78,191.78,0,0,0-48.4-13.92l-.51-.07-27.43,0,0-13.41a6.42,6.42,0,0,0-12.71-1.27l-12.21,0-63.29-39-45.76,0,0,19.82-60.36.07a7.47,7.47,0,0,0,0,14.94l60.36-.07L304,286l-60.36.07a7.47,7.47,0,0,0,0,14.94l60.36-.07,0,19.82,45.76-.05L413,281.55l12.22,0a6.42,6.42,0,0,0,12.71-1.29V268.89h8.7a150.71,150.71,0,0,1,60.43,12.27c21.76,9.49,44.11,25.65,46.77,52.36,5.15,51.48,5.12,60.41,5,84.28,0,3.77,0,8,0,12.88,0,20.42,5.77,33.87,18.07,42.32,9.63,6.62,23.39,10.08,43.8,10.94a7.94,7.94,0,1,0,.64-15.86Z"/><rect class="cls-2" x="16.9" y="147.45" width="261.86" height="228.83" rx="13.67" transform="translate(-113.86 409.99) rotate(-90.06)"/><rect class="cls-3" x="16.88" y="132.86" width="261.86" height="228.83" rx="13.67" transform="translate(-99.29 395.37) rotate(-90.06)"/><ellipse class="cls-4" cx="148.18" cy="247.03" rx="74.7" ry="74.81"/><path class="cls-5" d="M73.47,247.11c0,1.89.1,3.76.24,5.62a74.68,74.68,0,0,1,149-.17c.13-1.86.22-3.73.22-5.62a74.71,74.71,0,1,0-149.41.17Z"/><path class="cls-3" d="M148.21,276.82a11.45,11.45,0,1,1-11.42,11.46A11.43,11.43,0,0,1,148.21,276.82Z"/><path class="cls-3" d="M148.13,206.8a11.45,11.45,0,1,1-11.42,11.46A11.45,11.45,0,0,1,148.13,206.8Z"/><path class="cls-6" d="M303.46,274.23l-62.16.07a7.45,7.45,0,0,0-6.23,3.36l68.4-.08Z"/><path class="cls-6" d="M303.47,277.58l-68.4.08a7.47,7.47,0,0,0,1,9.46l67.38-.08Z"/><path class="cls-6" d="M303.48,289.17V287l-67.38.08a7.47,7.47,0,0,0,5.22,2.12Z"/><path class="cls-6" d="M303.39,207.48l-62.17.07a7.47,7.47,0,0,0-6.23,3.36l68.4-.08Z"/><path class="cls-6" d="M303.39,210.83l-68.4.08a7.47,7.47,0,0,0,1,9.46l67.38-.07Z"/><path class="cls-6" d="M303.4,222.42V220.3l-67.38.07a7.47,7.47,0,0,0,5.22,2.12Z"/><polygon class="cls-7" points="324.47 214.37 326.82 248.3 324.55 282.23 347.46 308.94 410.65 269.8 410.63 248.2 410.6 226.61 347.32 187.61 324.47 214.37"/><rect class="cls-8" x="321.96" y="226.65" width="112.15" height="43.19" transform="translate(-0.28 0.43) rotate(-0.06)"/><path class="cls-8" d="M429.1,221.45a6.41,6.41,0,0,1,6.43,6.41l0,40.63a6.41,6.41,0,0,1-6.4,6.43h0a6.42,6.42,0,0,1-6.43-6.41l-.05-40.64a6.42,6.42,0,0,1,6.41-6.42Z"/><rect class="cls-8" x="301.63" y="187.63" width="45.76" height="121.34" transform="translate(-0.28 0.37) rotate(-0.06)"/><path class="cls-8" d="M626.64,464.24a8,8,0,0,0-7.65-7.92c-17-.7-28.45-3.34-35.45-8.16-5.2-3.57-11.17-10.12-11.2-29.26q0-7.18,0-12.8c.08-23.78.12-33.62-5.11-85.91-1.56-15.59-8.25-29.52-19.9-41.4-9-9.18-20.93-17.1-35.47-23.56a192.28,192.28,0,0,0-48.41-13.92l-.5-.07-83.56.1,0,15.87,64.83-.08A150.74,150.74,0,0,1,504.7,269.4c21.75,9.49,44.1,25.65,46.77,52.36,5.14,51.48,5.11,60.41,5,84.28,0,3.77,0,8,0,12.88,0,20.42,5.77,33.87,18.08,42.32,9.63,6.62,23.39,10.08,43.79,10.94a8,8,0,0,0,8.3-7.94Z"/></svg>