<?xml version="1.0" encoding="UTF-8"?>
<svg width="60px" height="60px" viewBox="0 0 60 60" version="1.1" xmlns="http://www.w3.org/2000/svg" xmlns:xlink="http://www.w3.org/1999/xlink">
    <!-- Generator: Sketch 52.4 (67378) - http://www.bohemiancoding.com/sketch -->
    <title>ai-powered</title>
    <desc>Created with Sketch.</desc>
    <g id="UI" stroke="none" stroke-width="1" fill="none" fill-rule="evenodd">
        <g id="Features-UI-5" transform="translate(-1090.000000, -557.000000)" fill="#38AECB" fill-rule="nonzero">
            <g id="ai-powered" transform="translate(1090.000000, 557.000000)">
                <path d="M15.2890168,15.2890168 C15.18161,15.3964236 15.1433332,15.5549002 15.1812225,15.6735826 L17.5837225,22.6135826 C17.7406415,23.066868 17.6243297,23.5699701 17.2843781,23.9083843 L12.8332506,28.3384897 C12.7463376,28.4196713 12.7195761,28.5465924 12.7663129,28.6559543 C12.8130496,28.7653162 12.9232741,28.8336951 13.1396328,28.8252945 L20.9696328,28.9952945 C21.4735714,29.0062357 21.9216296,29.3187824 22.1059394,29.7879345 L24.8492084,36.7711585 C24.9118513,36.9240781 25.0650953,37.0199649 25.2300123,37.0094326 C25.3949292,36.9989003 25.5347305,36.8842984 25.581494,36.7097527 L27.831494,28.6922527 C27.9494806,28.2718269 28.2783095,27.9434467 28.698896,27.826034 L36.7283102,25.5846028 C36.8880181,25.542069 37.0027607,25.4023476 37.0134272,25.2374175 C37.0240936,25.0724873 36.9283039,24.9191503 36.7929345,24.8634394 L29.7929345,22.1134394 C29.3236589,21.9290811 29.0110836,21.4808426 29.0002866,20.9767682 L28.8344978,13.059356 C28.8412266,12.9404853 28.7727051,12.8301555 28.6631696,12.7834919 C28.553634,12.7368283 28.4265996,12.7638487 28.3131309,12.8846354 L23.9031309,17.2871354 C23.5646182,17.6250725 23.0629377,17.7402028 22.610951,17.5836769 L15.690799,15.1871846 C15.5485818,15.1448919 15.3942756,15.183758 15.2890168,15.2890168 Z M14.964666,22.6900574 L12.8101246,16.4655098 C12.476285,15.4283887 12.750838,14.2916617 13.5212499,13.5212499 C14.2916617,12.750838 15.4283887,12.476285 16.4655098,12.8101246 L16.491549,12.8188231 L22.6903304,14.9655002 L26.5144622,11.1489474 C27.3128848,10.2900275 28.5641177,10.0238885 29.6429946,10.4835043 C30.7218715,10.9431201 31.3967774,12.0298196 31.3322134,13.1032318 L31.4818868,20.0909717 L37.724595,22.5436006 C38.8703436,23.0138244 39.5881445,24.1628567 39.5082153,25.3987619 C39.4282861,26.6346671 38.5684619,27.6816703 37.386104,27.996466 L30.0484729,30.0448689 L27.9925883,37.3703476 C27.6727563,38.5666561 26.6251546,39.4254261 25.3893481,39.5043498 C24.1535417,39.5832736 23.0052071,38.8647454 22.5290606,37.7020655 L20.0831957,31.4762275 L13.1829851,31.3230112 C12.0134411,31.3890646 10.927778,30.7155625 10.4674419,29.6383963 C10.0071058,28.5612301 10.2706942,27.3111139 11.0981219,26.5391157 L14.964666,22.6900574 Z" id="Shape"></path>
                <path d="M29.7842226,29.5364748 C29.2684025,29.0776491 29.2221995,28.2875426 29.6810252,27.7717226 C30.1398509,27.2559025 30.9299574,27.2096995 31.4457774,27.6685252 L58.4463835,51.6886165 C60.3152507,53.5574838 60.3152507,56.5875162 58.4463835,58.4563835 C56.5775162,60.3252507 53.5474838,60.3252507 51.6282001,58.4029118 L27.6682001,31.4454118 C27.2095764,30.9294122 27.2560886,30.1393239 27.7720882,29.6807001 C28.2880878,29.2220764 29.0781761,29.2685886 29.5367999,29.7845882 L53.4463835,56.6886165 C54.33894,57.581173 55.78606,57.581173 56.6786165,56.6886165 C57.571173,55.79606 57.571173,54.34894 56.7317226,53.5064748 L29.7842226,29.5364748 Z" id="Shape"></path>
                <path d="M1.25,25 C0.559644063,25 0,24.4403559 0,23.75 C0,23.0596441 0.559644063,22.5 1.25,22.5 L6.25,22.5 C6.94035594,22.5 7.5,23.0596441 7.5,23.75 C7.5,24.4403559 6.94035594,25 6.25,25 L1.25,25 Z" id="Shape"></path>
                <path d="M22.5,1.25 C22.5,0.559644063 23.0596441,0 23.75,0 C24.4403559,0 25,0.559644063 25,1.25 L25,6.25 C25,6.94035594 24.4403559,7.5 23.75,7.5 C23.0596441,7.5 22.5,6.94035594 22.5,6.25 L22.5,1.25 Z" id="Shape"></path>
                <path d="M5,3.75 C5,3.05964406 5.55964406,2.5 6.25,2.5 C6.94035594,2.5 7.5,3.05964406 7.5,3.75 L7.5,8.75 C7.5,9.44035594 6.94035594,10 6.25,10 C5.55964406,10 5,9.44035594 5,8.75 L5,3.75 Z" id="Shape"></path>
                <path d="M8.75,5 C9.44035594,5 10,5.55964406 10,6.25 C10,6.94035594 9.44035594,7.5 8.75,7.5 L3.75,7.5 C3.05964406,7.5 2.5,6.94035594 2.5,6.25 C2.5,5.55964406 3.05964406,5 3.75,5 L8.75,5 Z" id="Shape"></path>
                <path d="M7.5,37.5 C7.5,36.8096441 8.05964406,36.25 8.75,36.25 C9.44035594,36.25 10,36.8096441 10,37.5 L10,42.5 C10,43.1903559 9.44035594,43.75 8.75,43.75 C8.05964406,43.75 7.5,43.1903559 7.5,42.5 L7.5,37.5 Z" id="Shape"></path>
                <path d="M11.25,38.75 C11.9403559,38.75 12.5,39.3096441 12.5,40 C12.5,40.6903559 11.9403559,41.25 11.25,41.25 L6.25,41.25 C5.55964406,41.25 5,40.6903559 5,40 C5,39.3096441 5.55964406,38.75 6.25,38.75 L11.25,38.75 Z" id="Shape"></path>
                <path d="M37.5,10 C36.8096441,10 36.25,9.44035594 36.25,8.75 C36.25,8.05964406 36.8096441,7.5 37.5,7.5 L42.5,7.5 C43.1903559,7.5 43.75,8.05964406 43.75,8.75 C43.75,9.44035594 43.1903559,10 42.5,10 L37.5,10 Z" id="Shape"></path>
                <path d="M41.25,11.25 C41.25,11.9403559 40.6903559,12.5 40,12.5 C39.3096441,12.5 38.75,11.9403559 38.75,11.25 L38.75,6.25 C38.75,5.55964406 39.3096441,5 40,5 C40.6903559,5 41.25,5.55964406 41.25,6.25 L41.25,11.25 Z" id="Shape"></path>
            </g>
        </g>
    </g>
</svg>