<?xml version="1.0" encoding="UTF-8"?>
<svg width="1046px" height="843px" viewBox="0 0 1046 843" version="1.1" xmlns="http://www.w3.org/2000/svg" xmlns:xlink="http://www.w3.org/1999/xlink">
    <!-- Generator: Sketch 52.4 (67378) - http://www.bohemiancoding.com/sketch -->
    <title>blob-1</title>
    <desc>Created with Sketch.</desc>
    <g id="UI" stroke="none" stroke-width="1" fill="none" fill-rule="evenodd" opacity="0.3">
        <g id="blob-1" fill="#A94FC0">
            <path d="M430.97986,758.509667 C289.909512,763.235117 162.438244,734.481669 62.8555731,642.77792 C45.4843308,626.781881 28.0702231,606.31494 23.6811025,585.881939 C19.5399894,566.608108 35.5058558,546.894367 49.914786,532.741515 C60.8347711,522.015266 82.6043194,515.173807 103.897755,517.502592 C121.406779,519.418879 137.364991,531.4988 154.061101,538.992945 C163.068979,543.036991 172.531537,550.737385 181.175058,550.156494 C188.529553,549.661758 195.861083,548.929444 203.178836,548.050928 C239.827304,543.650516 259.167297,506.435641 235.447369,482.211837 C234.369608,481.111408 233.227549,480.067109 232.015067,479.089385 C185.588673,441.621268 131.297992,411.303983 84.0571536,374.482026 C56.6661016,353.132652 33.3227773,326.466496 14.5277882,299.021031 C-9.95300269,263.273396 -2.2632389,228.08707 28.3565034,199.337538 C61.9967323,167.751431 104.173318,153.740864 146.036068,174.509347 C192.771706,197.696685 232.922897,231.118146 273.689515,262.229097 C294.114924,277.819165 307.326682,300.399505 328.150127,315.440011 C338.725658,323.079053 360.773832,325.492688 374.060605,321.537408 C381.206895,319.410955 386.487006,297.42195 382.861809,286.815795 C362.098069,226.044162 336.551765,166.435616 316.815266,105.445985 C310.693154,86.527216 309.368917,59.9667944 320.663975,45.0737955 C335.584229,25.396605 363.365663,4.09814145 388.705295,0.816434081 C431.932086,-4.78231011 469.012271,19.0603252 486.406477,52.5196423 C511.695588,101.161751 528.74687,152.870181 551.079794,202.694957 C561.392007,225.700849 573.524474,248.700213 589.551576,268.99354 C596.817278,278.192502 617.26565,286.951554 628.644909,284.6789 C640.293607,282.350115 655.219985,266.867087 656.452368,256.121258 C661.542646,211.767299 662.164196,167.032171 664.082426,122.426275 C666.52576,65.5942568 679.930413,44.4263305 719.539662,35.8735276 C766.330413,25.7699416 818.036917,45.9040126 842.632526,88.6915242 C925.393552,232.683288 938.418539,377.084939 837.666252,519.568997 C744.73845,650.992631 615.731678,738.584456 430.97986,758.509667" id="Fill-1"></path>
            <path d="M610.417054,753 C614.718362,753.21189 619.059313,753.187039 623.317928,753.677526 C652.35366,757.018069 664.816931,779.478445 649.241654,800.901605 C635.887931,819.271975 614.213671,828.130822 591.629138,834.518923 C551.136467,845.974082 510.142154,845.649706 469.382652,834.607865 C467.342542,834.054596 465.218571,833.638663 463.300441,832.860424 C449.733254,827.348659 436.589946,820.294803 436.016642,806.291729 C435.463159,792.769986 448.813833,786.537533 461.389935,782.202936 C509.20596,765.721268 559.929675,759.797495 610.417054,753" id="Fill-3"></path>
            <path d="M960.29693,520.420077 C950.152265,556.716816 934.051044,589.668729 904.371485,616.485653 C895.960353,624.085056 882.412376,631.106469 870.673831,631.817941 C828.946059,634.342435 812.242199,610.305306 832.751636,578.838543 C840.285375,567.278741 850.908204,557.219641 859.419522,546.083613 C877.155608,522.879774 894.333078,499.367502 911.947726,476.09757 C916.129763,470.57297 920.323944,464.750303 925.916185,460.37002 C941.562012,448.113002 956.004081,451.19864 959.355782,469.221303 C962.460053,485.909146 960.196743,503.325308 960.29693,520.420077" id="Fill-5"></path>
            <path d="M999.276968,344.94756 C1011.06908,335.96405 1027.2231,337.265137 1038.6307,348.120593 C1049.16965,358.14654 1048.32591,371.464394 1036.60541,380.150065 C1025.43132,388.430778 1005.29055,387.825956 996.112168,378.935194 C986.796792,369.913801 988.347279,353.273995 999.276968,344.94756" id="Fill-10"></path>
        </g>
    </g>
</svg>