<?xml version="1.0" encoding="UTF-8"?>
<svg width="1189px" height="703px" viewBox="0 0 1189 703" version="1.1" xmlns="http://www.w3.org/2000/svg" xmlns:xlink="http://www.w3.org/1999/xlink">
    <!-- Generator: Sketch 52.4 (67378) - http://www.bohemiancoding.com/sketch -->
    <title>blob-3</title>
    <desc>Created with Sketch.</desc>
    <g id="UI" stroke="none" stroke-width="1" fill="none" fill-rule="evenodd" opacity="0.297632068">
        <path d="M631.722374,44.2946845 C551.437577,44.2946845 525.433455,179.32112 409.111216,179.32112 C292.788978,179.32112 409.139851,-11.4338561 314.641063,1.46191965 C220.142276,14.3576954 6.20640367,221.335706 88.0934889,313.125792 C169.980574,404.915878 -36.1240641,433.068093 5.76854264,570.069449 C47.6611494,707.070804 234.88748,535.911199 355.422687,549.851547 C475.957893,563.791896 511.654186,720.612456 747.616695,701.009839 C983.579203,681.407222 1091.42314,513.521926 1138.58285,405.151919 C1185.74256,296.781912 1230.55572,173.205807 1119.39215,137.986765 C1008.22859,102.767722 921.846997,227.253468 808.877831,227.253468 C695.908665,227.253468 712.00717,44.2946845 631.722374,44.2946845 Z" id="blob-3" fill="#38AECB"></path>
    </g>
</svg>