<?xml version="1.0" encoding="UTF-8"?>
<svg width="1097px" height="797px" viewBox="0 0 1097 797" version="1.1" xmlns="http://www.w3.org/2000/svg" xmlns:xlink="http://www.w3.org/1999/xlink">
    <!-- Generator: Sketch 52.4 (67378) - http://www.bohemiancoding.com/sketch -->
    <title>blob-2</title>
    <desc>Created with Sketch.</desc>
    <g id="UI" stroke="none" stroke-width="1" fill="none" fill-rule="evenodd" opacity="0.3">
        <g id="blob-2" transform="translate(548.500000, 398.500000) rotate(270.000000) translate(-548.500000, -398.500000) translate(150.000000, -150.000000)" fill="#3858CB">
            <path d="M130.836155,1019.61057 C1.01004223,857.940178 111.560662,769.564848 92.2851692,651.188279 C73.0096766,532.81171 -33.5724593,509.129316 10.6477886,343.016263 C54.8680364,176.903209 199.72048,316.972921 255.559931,237.595981 C311.399381,158.21904 267.465382,44.8800591 339.465016,5.48020219 C411.464651,-33.9196547 436.80449,149.909221 452.850267,212.745397 C468.896044,275.581574 535.912283,271.162829 537.667771,199.489517 C539.423259,127.816206 624.061996,-39.7960035 729.510279,151.61013 C834.958563,343.016263 812.281512,684.835686 693.226999,876.595816 C574.172486,1068.35595 260.662267,1181.28096 130.836155,1019.61057 Z" id="Fill-1"></path>
        </g>
    </g>
</svg>