<?xml version="1.0" encoding="UTF-8"?>
<svg width="32px" height="32px" viewBox="0 0 32 32" version="1.1" xmlns="http://www.w3.org/2000/svg" xmlns:xlink="http://www.w3.org/1999/xlink">
    <!-- Generator: Sketch 52.4 (67378) - http://www.bohemiancoding.com/sketch -->
    <title>Icon/Marketing/Features/chat</title>
    <desc>Created with Sketch.</desc>
    <g id="Icon/Marketing/Features/chat" stroke="none" stroke-width="1" fill="none" fill-rule="evenodd">
        <path d="M20,25.9999999 C15.581722,25.9999999 12.0000001,22.418278 12.0000001,18 C12.0000001,13.581722 15.581722,10.0000001 20,10.0000001 L24,10.0000001 C28.418278,10.0000001 31.9999999,13.581722 31.9999999,18 C31.9942768,20.8676933 30.455634,23.4924293 27.9999999,24.9059091 L27.9999999,31 C27.9999999,31.8909048 26.9228581,32.3370716 26.2928933,31.7071067 L20.5857865,25.9999999 L20,25.9999999 Z M24,11.9999999 L20,11.9999999 C16.6862915,11.9999999 13.9999999,14.6862915 13.9999999,18 C13.9999999,21.3137085 16.6862915,24.0000001 20,24.0000001 L21,24.0000001 C21.2652165,24.0000001 21.5195704,24.1053569 21.7071067,24.2928933 L26.0000001,28.5857866 L26.0000001,24.3013333 C26.0000001,23.9145997 26.2229934,23.5625346 26.5726304,23.3972564 C28.66112,22.4099986 29.9950052,20.3090164 30,17.9990018 C29.9994606,14.685752 27.3133758,11.9999999 24,11.9999999 Z" id="Shape" fill="#3858CB" fill-rule="nonzero"></path>
        <path d="M5.99999994,18.5857866 L8.29289326,16.2928933 C8.68341753,15.902369 9.31658247,15.902369 9.70710674,16.2928933 C10.097631,16.6834175 10.097631,17.3165825 9.70710674,17.7071067 L5.70710674,21.7071067 C5.07714192,22.3370716 4.00000006,21.8909048 4.00000006,21 L4.00000006,14.9062104 C0.988668275,13.1750886 -0.581052593,9.66522822 0.194088858,6.22842328 C1.01699205,2.57985339 4.2621177,-0.00869604575 8,5.96046457e-08 L12.0001225,6.7109691e-08 C15.5380108,0.00043351389 18.6557795,2.32388993 19.667567,5.71401373 C19.8255128,6.24323157 19.5245374,6.8002878 18.9953196,6.95823365 C18.4661018,7.11617951 17.9090455,6.8152041 17.7510997,6.28598627 C16.9921747,3.74311095 14.6535884,2.00032505 12,1.99999994 L7.99767425,1.99999724 C5.19423558,1.99347712 2.76188138,3.93370063 2.14508183,6.66845276 C1.52828228,9.4032049 2.89231736,12.199671 5.4271455,13.3971505 C5.77690441,13.5623803 5.99999994,13.9145101 5.99999994,14.3013333 L5.99999994,18.5857866 Z" id="Shape" fill="#3858CB" fill-rule="nonzero"></path>
    </g>
</svg>