<?xml version="1.0" encoding="UTF-8"?>
<svg width="60px" height="60px" viewBox="0 0 60 60" version="1.1" xmlns="http://www.w3.org/2000/svg" xmlns:xlink="http://www.w3.org/1999/xlink">
    <!-- Generator: Sketch 52.4 (67378) - http://www.bohemiancoding.com/sketch -->
    <title>customize</title>
    <desc>Created with Sketch.</desc>
    <g id="UI" stroke="none" stroke-width="1" fill="none" fill-rule="evenodd">
        <g id="Features-UI-5" transform="translate(-690.000000, -557.000000)" fill="#3858CB" fill-rule="nonzero">
            <g id="customize" transform="translate(690.000000, 557.000000)">
                <path d="M44.7411165,4.74361652 C45.229239,4.25549404 46.0206303,4.25545635 46.5087993,4.74353234 L59.6337993,17.8660323 C60.122034,18.3541741 60.1220717,19.1456952 59.6338835,19.6338835 L50.8838835,28.3838835 C50.3957281,28.8720388 49.6042719,28.8720388 49.1161165,28.3838835 L29.1161165,8.38388348 C28.6278461,7.89561301 28.627978,7.10392947 29.1164113,6.61582185 L32.8664113,2.86832185 C33.3546143,2.38044434 34.1458432,2.38057625 34.6338835,2.86861652 C38.2492087,6.48394174 42.4673353,7.01739778 44.7411165,4.74361652 Z M33.7827949,5.48690478 L31.7680617,7.50029478 L50,25.732233 L56.9821489,18.7500842 L45.5479496,7.31806289 C42.3712286,9.53717758 37.7138744,8.86370475 33.7827949,5.48690478 Z" id="Shape"></path>
                <path d="M30.7312669,23.966 C31.2194867,24.454091 31.219591,25.2455472 30.7315,25.7337669 C30.243409,26.2219867 29.4519528,26.222091 28.9637331,25.734 L19.4812331,16.254 C19.1133476,15.8862116 19.0116968,15.3290295 19.2260082,14.8550266 C20.7258889,11.5376668 20.0149372,7.63820285 17.4408341,5.06361325 C15.3216854,2.9440641 12.3043615,2.08710036 9.45285187,2.68691667 L13.3836775,6.61591056 C13.618224,6.85034776 13.75,7.16837844 13.75,7.5 L13.75,12.5 C13.75,13.1903559 13.1903559,13.75 12.5,13.75 L7.5,13.75 C7.16858033,13.75 6.85072624,13.6183839 6.61632253,13.3840894 L2.68430543,9.45390458 C2.08331311,12.3057576 2.93963299,15.3239533 5.05916594,17.4438868 C7.63326913,20.0184764 11.5325986,20.7301648 14.8502418,19.2309109 C15.3240966,19.0167743 15.8810279,19.1183579 16.2487669,19.486 L25.7312669,28.966 C26.2194867,29.454091 26.219591,30.2455472 25.7315,30.7337669 C25.243409,31.2219867 24.4519528,31.222091 23.9637331,30.734 L15.0665872,21.8391998 C10.9902719,23.3121151 6.39262266,22.3134634 3.29123199,19.2114867 C-0.0183292487,15.9013001 -0.932410005,10.8877036 0.996008153,6.62252663 C1.35595296,5.82641905 2.40073599,5.63575703 3.01867747,6.25341056 L8.01759632,11.25 L11.25,11.25 L11.25,8.01793761 L6.25132253,3.02158944 C5.63313495,2.40368992 5.82374918,1.35834855 6.62024185,0.998410871 C10.8857831,-0.929201362 15.8992068,-0.0141733199 19.208768,3.29601331 C22.31006,6.39789129 23.3078782,10.9955351 21.8343969,15.0714755 L30.7312669,23.966 Z" id="Shape"></path>
                <path d="M29.2686165,36.0388835 C28.7804612,35.5507281 28.7804612,34.7592719 29.2686165,34.2711165 C29.7567719,33.7829612 30.5482281,33.7829612 31.0363835,34.2711165 L40.5188835,43.7536165 C40.8866778,44.1214108 40.9882783,44.6785255 40.7739918,45.1524734 C39.2741111,48.4698332 39.9850628,52.3692972 42.5591659,54.9438868 C44.6787246,57.0638459 47.6968058,57.9207311 50.5488028,57.3202351 L46.6157049,53.3834717 C46.3815363,53.1490848 46.25,52.8313189 46.25,52.5 L46.25,47.5 C46.25,46.8096441 46.8096441,46.25 47.5,46.25 L52.5,46.25 C52.8316215,46.25 53.1496522,46.381776 53.3840893,46.6163224 L57.315927,50.5499922 C57.916466,47.6984641 57.0600937,44.6807734 54.9408341,42.5611132 C52.3667309,39.9865236 48.4674014,39.2748352 45.1497582,40.7740891 C44.6758485,40.9882505 44.1188498,40.8866167 43.7511165,40.5188835 L34.2686165,31.0363835 C33.7804612,30.5482281 33.7804612,29.7567719 34.2686165,29.2686165 C34.7567719,28.7804612 35.5482281,28.7804612 36.0363835,29.2686165 L44.9335262,38.1657593 C49.0098134,36.6929034 53.6074061,37.6915653 56.708768,40.7935133 C60.0183292,44.1036999 60.93241,49.1172964 59.0039918,53.3824734 C58.6439451,54.1788065 57.5987392,54.369294 56.9809107,53.7511776 L51.9820625,48.75 L48.75,48.75 L48.75,51.9825741 L53.7492951,56.9865283 C54.3667883,57.6045971 54.1759125,58.6493043 53.3797582,59.0090891 C49.1142169,60.9367014 44.1007932,60.0216733 40.791232,56.7114867 C37.6899113,53.6095799 36.6921033,49.0118796 38.1656441,44.9359111 L29.2686165,36.0388835 Z" id="Shape"></path>
                <path d="M37.7136165,15.2161165 C38.2017719,14.7279612 38.9932281,14.7279612 39.4813835,15.2161165 C39.9695388,15.7042719 39.9695388,16.4957281 39.4813835,16.9838835 L3.23138351,53.2338834 C2.25460363,54.2106634 2.25460365,55.7943365 3.23138356,56.7711164 C4.20816348,57.7478963 5.79183661,57.7478964 6.76861652,56.7711165 L43.0186165,20.5211165 C43.5067719,20.0329612 44.2982281,20.0329612 44.7863835,20.5211165 C45.2745388,21.0092719 45.2745388,21.8007281 44.7863835,22.2888835 L8.53638345,58.5388835 C6.58329276,60.4919741 3.41670723,60.491974 1.46361661,58.5388834 C-0.489474006,56.5857928 -0.489474058,53.4192072 1.46361652,51.4661165 L37.7136165,15.2161165 Z" id="Shape"></path>
            </g>
        </g>
    </g>
</svg>