<?xml version="1.0" encoding="UTF-8"?>
<svg width="52px" height="60px" viewBox="0 0 52 60" version="1.1" xmlns="http://www.w3.org/2000/svg" xmlns:xlink="http://www.w3.org/1999/xlink">
    <!-- Generator: Sketch 52.4 (67378) - http://www.bohemiancoding.com/sketch -->
    <title>dynamic</title>
    <desc>Created with Sketch.</desc>
    <g id="UI" stroke="none" stroke-width="1" fill="none" fill-rule="evenodd">
        <g id="Features-UI-5" transform="translate(-294.000000, -557.000000)" fill="#A94FC0" fill-rule="nonzero">
            <g id="dynamic" transform="translate(290.000000, 557.000000)">
                <path d="M30,60 C22.776059,60 17.5,46.5167381 17.5,30 C17.5,13.4832619 22.776059,0 30,0 C37.223941,0 42.5,13.4832619 42.5,30 C42.5,46.5167381 37.223941,60 30,60 Z M30,57.5 C35.2024659,57.5 40,45.2396351 40,30 C40,14.7603649 35.2024659,2.5 30,2.5 C24.7975341,2.5 20,14.7603649 20,30 C20,45.2396351 24.7975341,57.5 30,57.5 Z" id="Oval"></path>
                <path d="M35.66653,38.2401601 C48.2258576,29.6000723 55.610842,18.6996909 52.660579,14.4165785 C49.70777,10.1297701 36.8877081,13.1232535 24.33347,21.7598399 C11.7729646,30.4007379 4.38930412,41.2984289 7.33958279,45.5836564 C10.2919013,49.8718466 23.1105235,46.8779631 35.66653,38.2401601 Z M37.08347,40.2998399 C23.4757928,49.6611313 9.37845346,52.9536686 5.28041721,47.0013436 C1.18306854,41.0500173 9.30321775,29.0653281 22.91653,19.7001601 C36.5221756,10.3402663 50.6208503,7.04822698 54.719421,12.9984215 C58.8173745,18.9477199 50.6957682,30.9353696 37.08347,40.2998399 Z" id="Shape"></path>
                <path d="M5.28057895,12.9984215 C9.37914969,7.04822698 23.4778244,10.3402663 37.08347,19.7001601 C50.6967822,29.0653281 58.8169315,41.0500173 54.7195828,47.0013436 C50.6215465,52.9536686 36.5242072,49.6611313 22.91653,40.2998399 C9.30423184,30.9353696 1.1826255,18.9477199 5.28057895,12.9984215 Z M24.33347,38.2401601 C36.8894765,46.8779631 49.7080987,49.8718466 52.6604172,45.5836564 C55.6106959,41.2984289 48.2270354,30.4007379 35.66653,21.7598399 C23.1122919,13.1232535 10.29223,10.1297701 7.33942105,14.4165785 C4.38915796,18.6996909 11.7741424,29.6000723 24.33347,38.2401601 Z" id="Shape"></path>
                <path d="M30,36.25 C26.5482203,36.25 23.75,33.4517797 23.75,30 C23.75,26.5482203 26.5482203,23.75 30,23.75 C33.4517797,23.75 36.25,26.5482203 36.25,30 C36.25,33.4517797 33.4517797,36.25 30,36.25 Z M30,33.75 C32.0710678,33.75 33.75,32.0710678 33.75,30 C33.75,27.9289322 32.0710678,26.25 30,26.25 C27.9289322,26.25 26.25,27.9289322 26.25,30 C26.25,32.0710678 27.9289322,33.75 30,33.75 Z" id="Oval"></path>
            </g>
        </g>
    </g>
</svg>