<?xml version="1.0" encoding="UTF-8"?>
<svg width="32px" height="32px" viewBox="0 0 32 32" version="1.1" xmlns="http://www.w3.org/2000/svg" xmlns:xlink="http://www.w3.org/1999/xlink">
    <!-- Generator: Sketch 52.4 (67378) - http://www.bohemiancoding.com/sketch -->
    <title>Icon/Marketing/Features/feedback</title>
    <desc>Created with Sketch.</desc>
    <g id="Icon/Marketing/Features/feedback" stroke="none" stroke-width="1" fill="none" fill-rule="evenodd">
        <path d="M7.64,19.3333333 L7.64,11.3333333 L5.76,11.3333333 C3.67065704,11.3333333 1.96,13.1152677 1.96,15.3333333 C1.96,17.5513989 3.67065704,19.3333333 5.76,19.3333333 L7.64,19.3333333 Z M8.64,21.3333333 L5.76,21.3333333 C2.54740937,21.3333333 -0.04,18.6381152 -0.04,15.3333333 C-0.04,12.0285514 2.54740937,9.33333333 5.76,9.33333333 L8.64,9.33333333 C9.19228475,9.33333333 9.64,9.78104858 9.64,10.3333333 L9.64,20.3333333 C9.64,20.8856181 9.19228475,21.3333333 8.64,21.3333333 Z" id="Shape" fill="#3858CB" fill-rule="nonzero"></path>
        <path d="M8.63991141,21.3333333 C8.08766126,21.3332844 7.64,20.8855835 7.64,20.3333333 L7.64,10.3333333 C7.64,9.78108318 8.08766126,9.33338226 8.63991141,9.33333334 C14.0688377,9.33285237 19.3773766,7.65864069 23.8980842,4.51996337 L25.3496042,3.51196337 C26.0127119,3.05147193 26.92,3.52601423 26.92,4.33333333 L26.92,26.3333333 C26.92,27.1406524 26.0127119,27.6151947 25.3496042,27.1547033 L23.8981704,26.1467631 C19.3773766,23.008026 14.0688377,21.3338143 8.63991141,21.3333333 Z M9.64,19.3510222 C15.0803556,19.543092 20.3695985,21.2954932 24.92,24.42186 L24.92,6.2448073 C20.3696588,9.37115519 15.0803889,11.1235737 9.64,11.3156445 L9.64,19.3510222 Z" id="Shape" fill="#3858CB" fill-rule="nonzero"></path>
        <path d="M28.76,13.3333333 C28.76,12.7810486 29.2077153,12.3333333 29.76,12.3333333 C30.3122847,12.3333333 30.76,12.7810486 30.76,13.3333333 L30.76,17.3333333 C30.76,17.8856181 30.3122847,18.3333333 29.76,18.3333333 C29.2077153,18.3333333 28.76,17.8856181 28.76,17.3333333 L28.76,13.3333333 Z" id="Shape" fill="#3858CB" fill-rule="nonzero"></path>
        <path d="M7.63999626,20.3327095 C7.64034077,19.7804249 8.08833521,19.332989 8.64061985,19.3333335 C9.1929045,19.333678 9.64034038,19.7816725 9.63999587,20.3339571 C9.638511,22.7143781 10.5741585,24.9885192 12.2238209,26.6229559 C12.6161516,27.0116655 12.619087,27.6448237 12.2303774,28.0371543 C11.8416678,28.4294849 11.2085097,28.4324203 10.8161791,28.0437107 C8.78485186,26.0311318 7.63818019,23.2440854 7.63999626,20.3327095 Z" id="Shape" fill="#3858CB" fill-rule="nonzero"></path>
    </g>
</svg>