<?xml version="1.0" encoding="UTF-8"?>
<svg width="32px" height="32px" viewBox="0 0 32 32" version="1.1" xmlns="http://www.w3.org/2000/svg" xmlns:xlink="http://www.w3.org/1999/xlink">
    <!-- Generator: Sketch 52.4 (67378) - http://www.bohemiancoding.com/sketch -->
    <title>Icon/Marketing/Features/insights</title>
    <desc>Created with Sketch.</desc>
    <g id="Icon/Marketing/Features/insights" stroke="none" stroke-width="1" fill="none" fill-rule="evenodd">
        <path d="M1,30.7599999 C0.447715283,30.7599999 5.96046446e-08,30.3122847 5.96046446e-08,29.76 C5.96046446e-08,29.2077153 0.447715283,28.7600001 1,28.7600001 L31,28.7600001 C31.5522847,28.7600001 31.9999999,29.2077153 31.9999999,29.76 C31.9999999,30.3122847 31.5522847,30.7599999 31,30.7599999 L1,30.7599999 Z" id="Shape" fill="#3858CB" fill-rule="nonzero"></path>
        <path d="M8,21.0800001 C9.09564288,21.0800001 9.99999994,21.9481828 9.99999994,23.04 L9.99999994,29.76 C9.99999994,30.3122847 9.55228472,30.7599999 9,30.7599999 L3,30.7599999 C2.44771528,30.7599999 2.00000006,30.3122847 2.00000006,29.76 L2.00000006,23.04 C2.00000006,21.9481828 2.90435712,21.0800001 4,21.0800001 L8,21.0800001 Z M4,23.0799999 C3.99107338,23.0799999 3.99999994,23.0714304 3.99999994,23.04 L3.99999994,28.7600001 L8.00000006,28.7600001 L8.00000006,23.0799999 L4,23.0799999 Z" id="Shape" fill="#3858CB" fill-rule="nonzero"></path>
        <path d="M18,11.4800001 C19.0956429,11.4800001 19.9999999,12.3481828 19.9999999,13.44 L19.9999999,29.76 C19.9999999,30.3122847 19.5522847,30.7599999 19,30.7599999 L13,30.7599999 C12.4477153,30.7599999 12.0000001,30.3122847 12.0000001,29.76 L12.0000001,13.44 C12.0000001,12.3481828 12.9043571,11.4800001 14,11.4800001 L18,11.4800001 Z M13.9999999,13.4799999 L13.9999999,28.7600001 L18.0000001,28.7600001 L18.0000001,13.4799999 L13.9999999,13.4799999 Z" id="Shape" fill="#3858CB" fill-rule="nonzero"></path>
        <path d="M28,17.2400001 C29.0956429,17.2400001 29.9999999,18.1081828 29.9999999,19.2 L29.9999999,29.76 C29.9999999,30.3122847 29.5522847,30.7599999 29,30.7599999 L23,30.7599999 C22.4477153,30.7599999 22.0000001,30.3122847 22.0000001,29.76 L22.0000001,19.2 C22.0000001,18.1081828 22.9043571,17.2400001 24,17.2400001 L28,17.2400001 Z M24,19.2399999 C23.9910734,19.2399999 23.9999999,19.2314304 23.9999999,19.2 L23.9999999,28.7600001 L28.0000001,28.7600001 L28.0000001,19.2399999 L24,19.2399999 Z" id="Shape" fill="#3858CB" fill-rule="nonzero"></path>
        <path d="M3,16.3599999 C1.35207237,16.3599999 5.96046446e-08,15.0620105 5.96046446e-08,13.44 C5.96046446e-08,11.8179895 1.35207237,10.5200001 3,10.5200001 C4.64792763,10.5200001 5.99999994,11.8179895 5.99999994,13.44 C5.99999994,15.0620105 4.64792763,16.3599999 3,16.3599999 Z M3,14.3600001 C3.56121137,14.3600001 4.00000006,13.9387629 4.00000006,13.44 C4.00000006,12.9412371 3.56121137,12.5199999 3,12.5199999 C2.43878863,12.5199999 1.99999994,12.9412371 1.99999994,13.44 C1.99999994,13.9387629 2.43878863,14.3600001 3,14.3600001 Z" id="Oval" fill="#3858CB" fill-rule="nonzero"></path>
        <path d="M12,5.79999994 C10.3520724,5.79999994 9.00000006,4.50201052 9.00000006,2.88 C9.00000006,1.25798948 10.3520724,-0.0399999404 12,-0.0399999404 C13.6479276,-0.0399999404 14.9999999,1.25798948 14.9999999,2.88 C14.9999999,4.50201052 13.6479276,5.79999994 12,5.79999994 Z M12,3.80000006 C12.5612114,3.80000006 13.0000001,3.37876292 13.0000001,2.88 C13.0000001,2.38123708 12.5612114,1.95999994 12,1.95999994 C11.4387886,1.95999994 10.9999999,2.38123708 10.9999999,2.88 C10.9999999,3.37876292 11.4387886,3.80000006 12,3.80000006 Z" id="Oval" fill="#3858CB" fill-rule="nonzero"></path>
        <path d="M29,10.5999999 C27.3520724,10.5999999 26.0000001,9.30201052 26.0000001,7.68 C26.0000001,6.05798948 27.3520724,4.76000006 29,4.76000006 C30.6479276,4.76000006 31.9999999,6.05798948 31.9999999,7.68 C31.9999999,9.30201052 30.6479276,10.5999999 29,10.5999999 Z M29,8.60000006 C29.5612114,8.60000006 30.0000001,8.17876292 30.0000001,7.68 C30.0000001,7.18123708 29.5612114,6.75999994 29,6.75999994 C28.4387886,6.75999994 27.9999999,7.18123708 27.9999999,7.68 C27.9999999,8.17876292 28.4387886,8.60000006 29,8.60000006 Z" id="Oval" fill="#3858CB" fill-rule="nonzero"></path>
        <path d="M5.02776371,12.6025579 C4.66953087,13.0229002 4.03837102,13.0732499 3.61802873,12.715017 C3.19768644,12.3567842 3.14733678,11.7256244 3.50556962,11.3052821 L9.97223629,3.71744206 C10.3304691,3.29709977 10.961629,3.24675012 11.3819713,3.60498296 C11.8023136,3.9632158 11.8526632,4.59437565 11.4944304,5.01471794 L5.02776371,12.6025579 Z" id="Shape" fill="#3858CB" fill-rule="nonzero"></path>
        <path d="M27.3530165,6.17489331 C27.884528,6.32493978 28.1937665,6.87745167 28.04372,7.40896317 C27.8936736,7.94047466 27.3411617,8.24971316 26.8096502,8.09966669 L13.6469835,4.38382669 C13.115472,4.23378022 12.8062335,3.68126833 12.95628,3.14975683 C13.1063264,2.61824534 13.6588383,2.30900684 14.1903498,2.45905331 L27.3530165,6.17489331 Z" id="Shape" fill="#3858CB" fill-rule="nonzero"></path>
    </g>
</svg>