<?xml version="1.0" encoding="UTF-8"?>
<svg width="48px" height="27px" viewBox="0 0 48 27" version="1.1" xmlns="http://www.w3.org/2000/svg" xmlns:xlink="http://www.w3.org/1999/xlink">
    <!-- Generator: Sketch 52.3 (67297) - http://www.bohemiancoding.com/sketch -->
    <title>button-loop-arrow</title>
    <desc>Created with Sketch.</desc>
    <g id="UI" stroke="none" stroke-width="1" fill="none" fill-rule="evenodd" stroke-linecap="round" stroke-linejoin="round">
        <g id="button-loop-arrow" transform="translate(0.000000, -10.000000)" stroke="#3858CB" stroke-width="2.99999982">
            <path d="M27.8,30.63 C29.7483606,33.251379 32.7422683,34.893647 36,35.128 C41.7989899,35.128 46.5,30.4269899 46.5,24.628 C46.5,18.8290101 41.7989899,14.128 36,14.128 C28.5,14.128 24,24.628 24,24.628 C24,24.628 19.5,35.128 12,35.128 C6.20101013,35.128 1.5,30.4269899 1.5,24.628 C1.5,18.8290101 6.20101013,14.128 12,14.128 C15.5157664,14.4521139 18.7561304,16.1680667 21,18.894" id="Shape"></path>
            <polyline id="Shape" points="19.768 11.496 21 18.894 13.602 20.128"></polyline>
        </g>
    </g>
</svg>