<?xml version="1.0" encoding="UTF-8"?>
<svg width="32px" height="32px" viewBox="0 0 32 32" version="1.1" xmlns="http://www.w3.org/2000/svg" xmlns:xlink="http://www.w3.org/1999/xlink">
    <!-- Generator: Sketch 52.4 (67378) - http://www.bohemiancoding.com/sketch -->
    <title>Icon/Marketing/Features/magic</title>
    <desc>Created with Sketch.</desc>
    <g id="Icon/Marketing/Features/magic" stroke="none" stroke-width="1" fill="none" fill-rule="evenodd">
        <path d="M9.20823515,9.20823515 L10.6888274,14.0036567 C10.788296,14.3258208 10.7187199,14.6764191 10.5037673,14.9361864 L7.77052772,18.2377353 L12.6805783,18.1030428 C13.0542298,18.0927928 13.4024036,18.2917881 13.5832177,18.6189376 L15.8949253,22.8039147 L17.5557816,18.1617983 C17.6566488,17.8798733 17.8785399,17.6579821 18.160465,17.557115 L22.8030051,15.8966704 L18.6177859,13.5846514 C18.2905336,13.4038691 18.0914574,13.0556378 18.1017094,12.6819117 L18.2363971,7.77309648 L14.9361598,10.5037893 C14.6763945,10.7187251 14.3258091,10.7882924 14.0036567,10.6888274 L9.20823515,9.20823515 Z M8.61849749,14.0773519 L7.09246904,9.13246897 C6.9391241,8.55775912 7.10368877,7.94488562 7.5242872,7.5242872 C7.94488562,7.10368877 8.55775912,6.9391241 9.13246897,7.09246904 L9.16967665,7.10317256 L14.0775823,8.61849446 L17.5724745,5.72811082 C18.046331,5.2955499 18.7322381,5.18667698 19.3167488,5.45124498 C19.9012595,5.71581298 20.2721053,6.30300562 20.2596239,6.95275501 L20.1176428,12.1285038 L24.5526279,14.5799782 C25.0932304,14.9178214 25.3883556,15.5389186 25.3088321,16.1714255 C25.2293085,16.8039325 24.7896206,17.3326434 24.215535,17.514885 L19.2794779,19.2809075 L17.5254842,24.1814429 C17.3331072,24.789944 16.804197,25.2308503 16.1710066,25.3105526 C15.5378163,25.3902549 14.9161389,25.0941778 14.5527823,24.5077291 L12.1271357,20.1189735 L6.94315336,20.2611498 C6.30167228,20.2734386 5.71447965,19.9025928 5.44991165,19.3180821 C5.18534365,18.7335714 5.29421656,18.0476643 5.69489941,17.6104802 L8.61849749,14.0773519 Z" id="Shape" fill="#3858CB" fill-rule="nonzero"></path>
        <path d="M17.7902266,19.2044401 C17.3997023,18.8139158 17.3997023,18.1807509 17.7902266,17.7902266 C18.1807509,17.3997023 18.8139158,17.3997023 19.2044401,17.7902266 L31.7071067,30.2928933 C32.097631,30.6834175 32.097631,31.3165825 31.7071067,31.7071067 C31.3165825,32.097631 30.6834175,32.097631 30.2928933,31.7071067 L17.7902266,19.2044401 Z" id="Shape" fill="#3858CB" fill-rule="nonzero"></path>
        <path d="M24,3.99999994 C23.4477153,3.99999994 23.0000001,3.55228472 23.0000001,3 C23.0000001,2.44771528 23.4477153,2.00000006 24,2.00000006 L28,2.00000006 C28.5522847,2.00000006 28.9999999,2.44771528 28.9999999,3 C28.9999999,3.55228472 28.5522847,3.99999994 28,3.99999994 L24,3.99999994 Z" id="Shape" fill="#3858CB" fill-rule="nonzero"></path>
        <path d="M25.0000001,1 C25.0000001,0.447715283 25.4477153,5.96046446e-08 26,5.96046446e-08 C26.5522847,5.96046446e-08 26.9999999,0.447715283 26.9999999,1 L26.9999999,5 C26.9999999,5.55228472 26.5522847,5.99999994 26,5.99999994 C25.4477153,5.99999994 25.0000001,5.55228472 25.0000001,5 L25.0000001,1 Z" id="Shape" fill="#3858CB" fill-rule="nonzero"></path>
        <path d="M3,27.9999999 C2.44771528,27.9999999 2.00000006,27.5522847 2.00000006,27 C2.00000006,26.4477153 2.44771528,26.0000001 3,26.0000001 L7,26.0000001 C7.55228472,26.0000001 7.99999994,26.4477153 7.99999994,27 C7.99999994,27.5522847 7.55228472,27.9999999 7,27.9999999 L3,27.9999999 Z" id="Shape" fill="#3858CB" fill-rule="nonzero"></path>
        <path d="M4.00000006,25 C4.00000006,24.4477153 4.44771528,24.0000001 5,24.0000001 C5.55228472,24.0000001 5.99999994,24.4477153 5.99999994,25 L5.99999994,29 C5.99999994,29.5522847 5.55228472,29.9999999 5,29.9999999 C4.44771528,29.9999999 4.00000006,29.5522847 4.00000006,29 L4.00000006,25 Z" id="Shape" fill="#3858CB" fill-rule="nonzero"></path>
        <path d="M12.9999999,4 C12.9999999,4.55228472 12.5522847,4.99999994 12,4.99999994 C11.4477153,4.99999994 11.0000001,4.55228472 11.0000001,4 L11.0000001,1 C11.0000001,0.447715283 11.4477153,5.96046446e-08 12,5.96046446e-08 C12.5522847,5.96046446e-08 12.9999999,0.447715283 12.9999999,1 L12.9999999,4 Z" id="Shape" fill="#3858CB" fill-rule="nonzero"></path>
        <path d="M1,13.9999999 C0.447715283,13.9999999 5.96046446e-08,13.5522847 5.96046446e-08,13 C5.96046446e-08,12.4477153 0.447715283,12.0000001 1,12.0000001 L4,12.0000001 C4.55228472,12.0000001 4.99999994,12.4477153 4.99999994,13 C4.99999994,13.5522847 4.55228472,13.9999999 4,13.9999999 L1,13.9999999 Z" id="Shape" fill="#3858CB" fill-rule="nonzero"></path>
    </g>
</svg>