<?xml version="1.0" encoding="UTF-8"?>
<svg width="32px" height="32px" viewBox="0 0 32 32" version="1.1" xmlns="http://www.w3.org/2000/svg" xmlns:xlink="http://www.w3.org/1999/xlink">
    <!-- Generator: Sketch 52.4 (67378) - http://www.bohemiancoding.com/sketch -->
    <title>Icon/Marketing/Features/pallet</title>
    <desc>Created with Sketch.</desc>
    <g id="Icon/Marketing/Features/pallet" stroke="none" stroke-width="1" fill="none" fill-rule="evenodd">
        <path d="M26.8184663,24.718919 C26.052569,24.7725902 25.5807821,24.7928604 25.0569613,24.7810615 C22.3397517,24.7198569 20.5756131,23.607913 20.3656795,20.9095664 C20.2303005,19.1450319 21.3221645,18.1157512 23.8201053,16.7928944 C24.0838864,16.6532016 25.0337336,16.1633865 25.2143903,16.0685461 C27.4404949,14.8998952 28.5013591,14.0317367 28.8707744,12.8730849 C29.3596171,11.3398553 28.5180501,9.14318399 25.8137117,6.01080035 C21.1298138,0.585125034 12.2726333,0.714913578 6.89849252,6.08902267 C1.70920028,11.348282 1.6970423,19.7975237 6.8804128,25.0812351 C9.60008366,27.9281347 14.1747079,29.8979668 18.3877873,29.9961045 C22.6885355,30.0962844 25.9807108,28.3143297 27.5366347,24.6720025 C27.3556648,24.6820851 27.1238376,24.6975197 26.8184663,24.718919 Z M25.1019995,22.7815686 C25.5475831,22.7916053 25.9705678,22.7734319 26.6786566,22.7238117 C27.8110755,22.644456 28.0615179,22.6344736 28.4715232,22.6901815 C29.4251976,22.8197584 30.0681039,23.5247148 29.7261527,24.5384638 C28.0194924,29.5949096 23.7567178,32.1217087 18.3412127,31.9955621 C13.604589,31.8852292 8.52477359,29.6978619 5.44348913,26.4723045 C-0.495296627,20.4186986 -0.481341904,10.7208004 5.47955989,4.67955989 C11.6487358,-1.48961598 21.8518183,-1.63912668 27.3275975,4.70383831 C30.4391561,8.30789728 31.5232725,11.1376752 30.7762677,13.4806171 C30.1929665,15.3101109 28.817072,16.4360744 26.1440245,17.8393596 C25.9534051,17.9394302 25.0079128,18.4269995 24.7561115,18.5603481 C22.9497826,19.5169418 22.3112599,20.1186567 22.3596956,20.7549682 C22.4743155,22.2257972 23.2915803,22.7407893 25.1019995,22.7815686 Z" id="Shape" fill="#3858CB" fill-rule="nonzero"></path>
        <path d="M9.58666667,20.772 C7.91508482,20.772 6.56,19.4169152 6.56,17.7453333 C6.56,16.0737515 7.91508482,14.7186667 9.58666667,14.7186667 C11.2582485,14.7186667 12.6133333,16.0737515 12.6133333,17.7453333 C12.6133333,19.4169152 11.2582485,20.772 9.58666667,20.772 Z M9.58666667,18.772 C10.153679,18.772 10.6133333,18.3123457 10.6133333,17.7453333 C10.6133333,17.178321 10.153679,16.7186667 9.58666667,16.7186667 C9.01965432,16.7186667 8.56,17.178321 8.56,17.7453333 C8.56,18.3123457 9.01965432,18.772 9.58666667,18.772 Z" id="Oval" fill="#3858CB" fill-rule="nonzero"></path>
        <path d="M14.6,27.2186667 C12.9284182,27.2186667 11.5733333,25.8635818 11.5733333,24.192 C11.5733333,22.5204182 12.9284182,21.1653333 14.6,21.1653333 C16.2715818,21.1653333 17.6266667,22.5204182 17.6266667,24.192 C17.6266667,25.8635818 16.2715818,27.2186667 14.6,27.2186667 Z M14.6,25.2186667 C15.1670123,25.2186667 15.6266667,24.7590123 15.6266667,24.192 C15.6266667,23.6249877 15.1670123,23.1653333 14.6,23.1653333 C14.0329877,23.1653333 13.5733333,23.6249877 13.5733333,24.192 C13.5733333,24.7590123 14.0329877,25.2186667 14.6,25.2186667 Z" id="Oval" fill="#3858CB" fill-rule="nonzero"></path>
        <path d="M19.448,10.9093333 C17.7764182,10.9093333 16.4213333,9.55424851 16.4213333,7.88266667 C16.4213333,6.21108482 17.7764182,4.856 19.448,4.856 C21.1195818,4.856 22.4746667,6.21108482 22.4746667,7.88266667 C22.4746667,9.55424851 21.1195818,10.9093333 19.448,10.9093333 Z M19.448,8.90933333 C20.0150123,8.90933333 20.4746667,8.44967901 20.4746667,7.88266667 C20.4746667,7.31565432 20.0150123,6.856 19.448,6.856 C18.8809877,6.856 18.4213333,7.31565432 18.4213333,7.88266667 C18.4213333,8.44967901 18.8809877,8.90933333 19.448,8.90933333 Z" id="Oval" fill="#3858CB" fill-rule="nonzero"></path>
        <path d="M10.8533333,13.0586667 C9.18175149,13.0586667 7.82666667,11.7035818 7.82666667,10.032 C7.82666667,8.36041816 9.18175149,7.00533333 10.8533333,7.00533333 C12.5249152,7.00533333 13.88,8.36041816 13.88,10.032 C13.88,11.7035818 12.5249152,13.0586667 10.8533333,13.0586667 Z M10.8533333,11.0586667 C11.4203457,11.0586667 11.88,10.5990123 11.88,10.032 C11.88,9.46498766 11.4203457,9.00533333 10.8533333,9.00533333 C10.286321,9.00533333 9.82666667,9.46498766 9.82666667,10.032 C9.82666667,10.5990123 10.286321,11.0586667 10.8533333,11.0586667 Z" id="Oval" fill="#3858CB" fill-rule="nonzero"></path>
    </g>
</svg>