<?xml version="1.0" encoding="UTF-8"?>
<svg width="32px" height="32px" viewBox="0 0 32 32" version="1.1" xmlns="http://www.w3.org/2000/svg" xmlns:xlink="http://www.w3.org/1999/xlink">
    <!-- Generator: Sketch 52.4 (67378) - http://www.bohemiancoding.com/sketch -->
    <title>Icon/Marketing/Features/responsive</title>
    <desc>Created with Sketch.</desc>
    <g id="Icon/Marketing/Features/responsive" stroke="none" stroke-width="1" fill="none" fill-rule="evenodd">
        <g id="Group" fill="#3858CB" fill-rule="nonzero">
            <g id="responsive-design">
                <path d="M20.1586526,25 L15.8413474,25 L15.1885696,28.76 L20.8114304,28.76 L20.1586526,25 Z M22,30.76 L14,30.76 C13.3793255,30.76 12.9085702,30.2004745 13.0147381,29.5889476 L14.0147381,23.8289476 C14.0979189,23.3498259 14.5137114,23 15,23 L21,23 C21.4862886,23 21.9020811,23.3498259 21.9852619,23.8289476 L22.9852619,29.5889476 C23.0914298,30.2004745 22.6206745,30.76 22,30.76 Z" id="Shape"></path>
                <path d="M11,30.76 C10.4477153,30.76 10,30.3122847 10,29.76 C10,29.2077153 10.4477153,28.76 11,28.76 L25,28.76 C25.5522847,28.76 26,29.2077153 26,29.76 C26,30.3122847 25.5522847,30.76 25,30.76 L11,30.76 Z" id="Shape"></path>
                <path d="M15,7.72 C14.4477153,7.72 14,7.27228475 14,6.72 C14,6.16771525 14.4477153,5.72 15,5.72 L29,5.72 C30.6479277,5.72 32,7.01798945 32,8.64 L32,22.08 C32,23.7020106 30.6479277,25 29,25 L7,25 C5.35207234,25 4,23.7020106 4,22.08 L4,20.16 C4,19.6077153 4.44771525,19.16 5,19.16 C5.55228475,19.16 6,19.6077153 6,20.16 L6,22.08 C6,22.5787629 6.43878866,23 7,23 L29,23 C29.5612113,23 30,22.5787629 30,22.08 L30,8.64 C30,8.14123712 29.5612113,7.72 29,7.72 L15,7.72 Z" id="Shape"></path>
                <path d="M5,21.16 C4.44771525,21.16 4,20.7122847 4,20.16 C4,19.6077153 4.44771525,19.16 5,19.16 L31,19.16 C31.5522847,19.16 32,19.6077153 32,20.16 C32,20.7122847 31.5522847,21.16 31,21.16 L5,21.16 Z" id="Shape"></path>
                <path d="M3,1.96 C2.44771525,1.96 2,2.40771525 2,2.96 L2,14.32 C2,14.8722847 2.44771525,15.32 3,15.32 L9,15.32 C9.55228475,15.32 10,14.8722847 10,14.32 L10,2.96 C10,2.40771525 9.55228475,1.96 9,1.96 L3,1.96 Z M3,-0.04 L9,-0.04 C10.6568542,-0.04 12,1.30314575 12,2.96 L12,14.32 C12,15.9768542 10.6568542,17.32 9,17.32 L3,17.32 C1.34314575,17.32 2.22044605e-16,15.9768542 0,14.32 L0,2.96 C4.4408921e-16,1.30314575 1.34314575,-0.04 3,-0.04 Z" id="Rectangle-path"></path>
                <path d="M1,13.48 C0.44771525,13.48 0,13.0322847 0,12.48 C0,11.9277153 0.44771525,11.48 1,11.48 L11,11.48 C11.5522847,11.48 12,11.9277153 12,12.48 C12,13.0322847 11.5522847,13.48 11,13.48 L1,13.48 Z" id="Shape"></path>
            </g>
        </g>
    </g>
</svg>