<?xml version="1.0" encoding="UTF-8"?>
<svg width="32px" height="32px" viewBox="0 0 32 32" version="1.1" xmlns="http://www.w3.org/2000/svg" xmlns:xlink="http://www.w3.org/1999/xlink">
    <!-- Generator: Sketch 52.4 (67378) - http://www.bohemiancoding.com/sketch -->
    <title>Icon/Marketing/Features/search</title>
    <desc>Created with Sketch.</desc>
    <g id="Icon/Marketing/Features/search" stroke="none" stroke-width="1" fill="none" fill-rule="evenodd">
        <g id="Regular" fill="#3858CB" fill-rule="nonzero">
            <path d="M14,28 C6.2680135,28 0,21.7319865 0,14 C0,6.2680135 6.2680135,0 14,0 C21.7319865,0 28,6.2680135 28,14 C28,21.7319865 21.7319865,28 14,28 Z M14,26 C20.627417,26 26,20.627417 26,14 C26,7.372583 20.627417,2 14,2 C7.372583,2 2,7.372583 2,14 C2,20.627417 7.372583,26 14,26 Z" id="Oval"></path>
            <path d="M22.4848932,23.8991068 C22.0943689,23.5085825 22.0943689,22.8754175 22.4848932,22.4848932 C22.8754175,22.0943689 23.5085825,22.0943689 23.8991068,22.4848932 L31.7071068,30.2928932 C32.0976311,30.6834175 32.0976311,31.3165825 31.7071068,31.7071068 C31.3165825,32.0976311 30.6834175,32.0976311 30.2928932,31.7071068 L22.4848932,23.8991068 Z" id="Shape"></path>
            <path d="M14,16.9933333 C10.9624339,16.9933333 8.5,14.5308995 8.5,11.4933333 C8.5,8.45576721 10.9624339,5.99333333 14,5.99333333 C17.0375661,5.99333333 19.5,8.45576721 19.5,11.4933333 C19.5,14.5308995 17.0375661,16.9933333 14,16.9933333 Z M14,14.9933333 C15.9329966,14.9933333 17.5,13.42633 17.5,11.4933333 C17.5,9.56033671 15.9329966,7.99333333 14,7.99333333 C12.0670034,7.99333333 10.5,9.56033671 10.5,11.4933333 C10.5,13.42633 12.0670034,14.9933333 14,14.9933333 Z" id="Oval"></path>
            <path d="M20.7419621,19.9882248 C21.1122369,20.3979992 21.0802162,21.0303539 20.6704419,21.4006287 C20.2606675,21.7709036 19.6283127,21.7388829 19.2580379,21.3291085 C17.9144296,19.8421691 16.0040639,18.9936398 14,18.9936398 C11.9959361,18.9936398 10.0855704,19.8421691 8.74196208,21.3291085 C8.37168727,21.7388829 7.73933249,21.7709036 7.32955815,21.4006287 C6.91978381,21.0303539 6.88776311,20.3979992 7.25803792,19.9882248 C8.98083957,18.0816411 11.4303489,16.9936398 14,16.9936398 C16.5696511,16.9936398 19.0191604,18.0816411 20.7419621,19.9882248 Z" id="Shape"></path>
        </g>
    </g>
</svg>