<?xml version="1.0" encoding="UTF-8"?>
<svg width="32px" height="32px" viewBox="0 0 32 32" version="1.1" xmlns="http://www.w3.org/2000/svg" xmlns:xlink="http://www.w3.org/1999/xlink">
    <!-- Generator: Sketch 52.4 (67378) - http://www.bohemiancoding.com/sketch -->
    <title>Icon/Marketing/Features/share-candidate</title>
    <desc>Created with Sketch.</desc>
    <g id="Icon/Marketing/Features/share-candidate" stroke="none" stroke-width="1" fill="none" fill-rule="evenodd">
        <g id="Icon/24/share-candidates" fill="#3858CB" fill-rule="nonzero">
            <path d="M16.7817659,15.3664078 C17.0668878,15.8394025 16.9145869,16.4539774 16.4415922,16.7390993 C15.9685975,17.0242212 15.3540226,16.8719202 15.0689007,16.3989255 C13.7891041,14.2758441 11.4852905,12.9842182 8.99216061,12.9999693 C5.44359776,12.9721499 2.43563555,15.6041168 1.99216061,19.1249693 C1.92314199,19.6729244 1.4229859,20.0611792 0.875030728,19.9921606 C0.327075553,19.923142 -0.0611792355,19.4229859 0.00783938741,18.8750307 C0.578021456,14.3482204 4.44540143,10.9642629 8.9936419,11.0000202 C12.1781528,10.9797724 15.1377008,12.6390338 16.7817659,15.3664078 Z M9,11 C5.96243388,11 3.5,8.53756612 3.5,5.5 C3.5,2.46243388 5.96243388,-4.08557736e-14 9,-4.08557736e-14 C12.0375661,-4.08557736e-14 14.5,2.46243388 14.5,5.5 C14.5,8.53756612 12.0375661,11 9,11 Z M9,9 C10.9329966,9 12.5,7.43299662 12.5,5.5 C12.5,3.56700338 10.9329966,2 9,2 C7.06700338,2 5.5,3.56700338 5.5,5.5 C5.5,7.43299662 7.06700338,9 9,9 Z M21.2249358,26.3668384 C20.4968424,27.3572333 19.3234843,28 18,28 C15.790861,28 14,26.209139 14,24 C14,21.790861 15.790861,20 18,20 C19.0932347,20 20.0840349,20.4385737 20.8060559,21.1493761 L24.1633205,19.1350173 C24.057041,18.7752024 24,18.3942625 24,18 C24,15.790861 25.790861,14 28,14 C30.209139,14 32,15.790861 32,18 C32,20.209139 30.209139,22 28,22 C26.9062557,22 25.9150413,21.5610173 25.1929345,20.8496297 L21.8362778,22.8636237 C21.9428153,23.2238383 22,23.6052411 22,24 C22,24.1727497 21.9890491,24.3429417 21.9678036,24.5099196 L24.7750642,25.6331616 C25.5031576,24.6427667 26.6765157,24 28,24 C30.209139,24 32,25.790861 32,28 C32,30.209139 30.209139,32 28,32 C25.790861,32 24,30.209139 24,28 C24,27.8272503 24.0109509,27.6570583 24.0321964,27.4900804 L21.2249358,26.3668384 Z M19.8368222,24.7925437 C19.8425836,24.7755805 19.8488279,24.7586761 19.8555618,24.7418463 C19.8623006,24.7250046 19.8694458,24.708447 19.8769818,24.6921803 C19.9565486,24.4764929 20,24.2433208 20,24 C20,23.6612279 19.9157711,23.3421285 19.7671127,23.0625012 C19.7460544,23.0345313 19.7262542,23.0051855 19.7078404,22.9744958 C19.6897268,22.9443064 19.6733919,22.9135453 19.6588052,22.8823345 C19.2994391,22.3500202 18.6905953,22 18,22 C16.8954305,22 16,22.8954305 16,24 C16,25.1045695 16.8954305,26 18,26 C18.8230103,26 19.5299133,25.5028856 19.8368222,24.7925437 Z M26.1230182,27.3078197 C26.0434514,27.5235071 26,27.7566792 26,28 C26,29.1045695 26.8954305,30 28,30 C29.1045695,30 30,29.1045695 30,28 C30,26.8954305 29.1045695,26 28,26 C27.1769897,26 26.4700867,26.4971144 26.1631778,27.2074563 C26.1574164,27.2244195 26.1511721,27.2413239 26.1444382,27.2581537 C26.1376994,27.2749954 26.1305542,27.291553 26.1230182,27.3078197 Z M26.3319191,19.1038017 C26.6900269,19.6438942 27.303427,20 28,20 C29.1045695,20 30,19.1045695 30,18 C30,16.8954305 29.1045695,16 28,16 C26.8954305,16 26,16.8954305 26,18 C26,18.3440665 26.0868821,18.6678405 26.2399041,18.9505799 C26.2573727,18.9745815 26.273928,18.9995628 26.2894929,19.0255042 C26.3049187,19.0512139 26.3190545,19.0773382 26.3319191,19.1038017 Z" id="Icon"></path>
        </g>
    </g>
</svg>