<?xml version="1.0" encoding="UTF-8"?>
<svg width="32px" height="32px" viewBox="0 0 32 32" version="1.1" xmlns="http://www.w3.org/2000/svg" xmlns:xlink="http://www.w3.org/1999/xlink">
    <!-- Generator: Sketch 52.4 (67378) - http://www.bohemiancoding.com/sketch -->
    <title>Icon/Marketing/Features/timer</title>
    <desc>Created with Sketch.</desc>
    <g id="Icon/Marketing/Features/timer" stroke="none" stroke-width="1" fill="none" fill-rule="evenodd">
        <g id="alarm-clock" fill="#3858CB" fill-rule="nonzero">
            <path d="M16,30 C8.82029825,30 3,24.1797017 3,17 C3,9.82029825 8.82029825,4 16,4 C23.1797017,4 29,9.82029825 29,17 C29,24.1797017 23.1797017,30 16,30 Z M16,28 C22.0751322,28 27,23.0751322 27,17 C27,10.9248678 22.0751322,6 16,6 C9.92486775,6 5,10.9248678 5,17 C5,23.0751322 9.92486775,28 16,28 Z" id="Oval"></path>
            <path d="M8.89436263,31.4473427 C8.64730208,31.9412855 8.04660015,32.1414232 7.55265731,31.8943626 C7.05871446,31.6473021 6.85857682,31.0466001 7.10563737,30.5526573 L8.95363737,26.8579906 C9.20069792,26.3640478 9.80139985,26.1639102 10.2953427,26.4109707 C10.7892855,26.6580313 10.9894232,27.2587332 10.7423626,27.752676 L8.89436263,31.4473427 Z" id="Shape"></path>
            <path d="M16,16 C16.5522847,16 17,16.4477153 17,17 C17,17.5522847 16.5522847,18 16,18 L11.4786667,18 C10.9263819,18 10.4786667,17.5522847 10.4786667,17 C10.4786667,16.4477153 10.9263819,16 11.4786667,16 L16,16 Z" id="Shape"></path>
            <path d="M15,10 C15,9.44771525 15.4477153,9 16,9 C16.5522847,9 17,9.44771525 17,10 L17,17 C17,17.5522847 16.5522847,18 16,18 C15.4477153,18 15,17.5522847 15,17 L15,10 Z" id="Shape"></path>
            <path d="M2.62469505,5.78086881 C2.19343311,6.12587836 1.56414074,6.05595698 1.21913119,5.62469505 C0.874121642,5.19343311 0.944043017,4.56414074 1.37530495,4.21913119 L6.37530495,0.219131191 C6.80656689,-0.125878358 7.43585926,-0.0559569826 7.78086881,0.375304952 C8.12587836,0.806566888 8.05595698,1.43585926 7.62469505,1.78086881 L2.62469505,5.78086881 Z" id="Shape"></path>
            <path d="M24.8944272,30.5527864 C25.1414164,31.0467649 24.9411921,31.6474379 24.4472136,31.8944272 C23.9532351,32.1414164 23.3525621,31.9411921 23.1055728,31.4472136 L21.2575728,27.7512136 C21.0105836,27.2572351 21.2108079,26.6565621 21.7047864,26.4095728 C22.1987649,26.1625836 22.7994379,26.3628079 23.0464272,26.8567864 L24.8944272,30.5527864 Z" id="Shape"></path>
            <path d="M30.624695,4.21913119 C31.055957,4.56414074 31.1258784,5.19343311 30.7808688,5.62469505 C30.4358593,6.05595698 29.8065669,6.12587836 29.375305,5.78086881 L24.375305,1.78086881 C23.944043,1.43585926 23.8741216,0.806566888 24.2191312,0.375304952 C24.5641407,-0.0559569826 25.1934331,-0.125878358 25.624695,0.219131191 L30.624695,4.21913119 Z" id="Shape"></path>
        </g>
    </g>
</svg>