<?xml version="1.0" encoding="UTF-8"?>
<svg width="32px" height="32px" viewBox="0 0 32 32" version="1.1" xmlns="http://www.w3.org/2000/svg" xmlns:xlink="http://www.w3.org/1999/xlink">
    <!-- Generator: Sketch 52.4 (67378) - http://www.bohemiancoding.com/sketch -->
    <title>Icon/Marketing/Features/upload</title>
    <desc>Created with Sketch.</desc>
    <g id="Icon/Marketing/Features/upload" stroke="none" stroke-width="1" fill="none" fill-rule="evenodd">
        <path d="M23,32 C18.0294373,32 14,27.9705627 14,23 C14,18.0294373 18.0294373,14 23,14 C27.9705627,14 32,18.0294373 32,23 C32,27.9705627 27.9705627,32 23,32 Z M23,30 C26.8659932,30 30,26.8659932 30,23 C30,19.1340068 26.8659932,16 23,16 C19.1340068,16 16,19.1340068 16,23 C16,26.8659932 19.1340068,30 23,30 Z" id="Oval" fill="#3858CB" fill-rule="nonzero"></path>
        <path d="M24,27 C24,27.5522847 23.5522847,28 23,28 C22.4477153,28 22,27.5522847 22,27 L22,19 C22,18.4477153 22.4477153,18 23,18 C23.5522847,18 24,18.4477153 24,19 L24,27 Z" id="Shape" fill="#3858CB" fill-rule="nonzero"></path>
        <path d="M22.2928932,18.2928932 C22.6834175,17.9023689 23.3165825,17.9023689 23.7071068,18.2928932 C24.0976311,18.6834175 24.0976311,19.3165825 23.7071068,19.7071068 L20.7071068,22.7071068 C20.3165825,23.0976311 19.6834175,23.0976311 19.2928932,22.7071068 C18.9023689,22.3165825 18.9023689,21.6834175 19.2928932,21.2928932 L22.2928932,18.2928932 Z" id="Shape" fill="#3858CB" fill-rule="nonzero"></path>
        <path d="M22.2928932,19.7071068 C21.9023689,19.3165825 21.9023689,18.6834175 22.2928932,18.2928932 C22.6834175,17.9023689 23.3165825,17.9023689 23.7071068,18.2928932 L26.7071068,21.2928932 C27.0976311,21.6834175 27.0976311,22.3165825 26.7071068,22.7071068 C26.3165825,23.0976311 25.6834175,23.0976311 25.2928932,22.7071068 L22.2928932,19.7071068 Z" id="Shape" fill="#3858CB" fill-rule="nonzero"></path>
        <path d="M5,10 C4.44771525,10 4,9.55228475 4,9 C4,8.44771525 4.44771525,8 5,8 L19,8 C19.5522847,8 20,8.44771525 20,9 C20,9.55228475 19.5522847,10 19,10 L5,10 Z" id="Shape" fill="#3858CB" fill-rule="nonzero"></path>
        <path d="M5,16 C4.44771525,16 4,15.5522847 4,15 C4,14.4477153 4.44771525,14 5,14 L13,14 C13.5522847,14 14,14.4477153 14,15 C14,15.5522847 13.5522847,16 13,16 L5,16 Z" id="Shape" fill="#3858CB" fill-rule="nonzero"></path>
        <path d="M5,22 C4.44771525,22 4,21.5522847 4,21 C4,20.4477153 4.44771525,20 5,20 L10,20 C10.5522847,20 11,20.4477153 11,21 C11,21.5522847 10.5522847,22 10,22 L5,22 Z" id="Shape" fill="#3858CB" fill-rule="nonzero"></path>
        <path d="M10,26 C10.5522847,26 11,26.4477153 11,27 C11,27.5522847 10.5522847,28 10,28 L3,28 C1.34314575,28 4.4408921e-16,26.6568542 0,25 L0,3 C-2.22044605e-16,1.34314575 1.34314575,4.4408921e-16 3,0 L17.1722135,2.27938095e-08 C17.9673079,0.000169785452 18.7298167,0.315963527 19.2924401,0.878226552 L23.122,4.70778649 C23.6840365,5.27018327 23.9998302,6.03269207 24,6.828 L24,10 C24,10.5522847 23.5522847,11 23,11 C22.4477153,11 22,10.5522847 22,10 L22,6.82821351 C21.9999434,6.56318204 21.8946789,6.30901244 21.7075599,6.12177345 L17.8784532,2.29266664 C17.6909876,2.10532115 17.436818,2.00005656 17.172,2 L3,2 C2.44771525,2 2,2.44771525 2,3 L2,25 C2,25.5522847 2.44771525,26 3,26 L10,26 Z" id="Shape" fill="#3858CB" fill-rule="nonzero"></path>
    </g>
</svg>