<?xml version="1.0" encoding="UTF-8"?>
<svg width="32px" height="32px" viewBox="0 0 32 32" version="1.1" xmlns="http://www.w3.org/2000/svg" xmlns:xlink="http://www.w3.org/1999/xlink">
    <!-- Generator: Sketch 52.4 (67378) - http://www.bohemiancoding.com/sketch -->
    <title>Icon/Marketing/Features/video</title>
    <desc>Created with Sketch.</desc>
    <g id="Icon/Marketing/Features/video" stroke="none" stroke-width="1" fill="none" fill-rule="evenodd">
        <path d="M2.99999988,16.9999999 C2.44771516,16.9999999 1.99999994,17.4477152 1.99999994,17.9999999 L1.99999994,28.0000001 C1.99999994,28.5522848 2.44771516,29.0000001 2.99999988,29.0000001 L21.0000001,29.0000001 C21.5522848,29.0000001 22.0000001,28.5522848 22.0000001,28.0000001 L22.0000001,17.9999999 C22.0000001,17.4477152 21.5522848,16.9999999 21.0000001,16.9999999 L2.99999988,16.9999999 Z M2.99999988,15.0000001 L21.0000001,15.0000001 C22.6568543,15.0000001 23.9999999,16.3431457 23.9999999,17.9999999 L23.9999999,28.0000001 C23.9999999,29.6568543 22.6568543,30.9999999 21.0000001,30.9999999 L2.99999988,30.9999999 C1.34314573,30.9999999 5.96046443e-08,29.6568543 5.96046441e-08,28.0000001 L5.96046446e-08,17.9999999 C5.96046444e-08,16.3431457 1.34314573,15.0000001 2.99999988,15.0000001 Z" id="Rectangle-path" fill="#3858CB" fill-rule="nonzero"></path>
        <path d="M22.6488972,27.3790035 C22.2585827,27.2326454 22.0000001,26.8595192 22.0000001,26.4426667 L22.0000001,20.4453333 C22.0000001,20.0284808 22.2585827,19.6553546 22.6488972,19.5089965 L29.2968626,17.0161772 C29.9103794,16.7851007 30.5982125,16.8695963 31.1375598,17.2422942 C31.676907,17.6149922 31.999184,18.2284997 31.9999999,18.8853333 L31.9999998,28.0005003 C31.9996718,28.6561098 31.6780441,29.2699297 31.1391794,29.6433581 C30.6003147,30.0167865 29.9126451,30.1024007 29.2982305,29.8723368 L22.6488972,27.3790035 Z M30.0000008,27.9994998 L30.0000008,18.8885001 L23.9999999,21.13835 L23.9999999,25.74965 L30.0000008,27.9994998 Z" id="Shape" fill="#3858CB" fill-rule="nonzero"></path>
        <path d="M6,20.9999999 C5.44771528,20.9999999 5.00000006,20.5522847 5.00000006,20 C5.00000006,19.4477153 5.44771528,19.0000001 6,19.0000001 L17,19.0000001 C17.5522847,19.0000001 17.9999999,19.4477153 17.9999999,20 C17.9999999,20.5522847 17.5522847,20.9999999 17,20.9999999 L6,20.9999999 Z" id="Shape" fill="#3858CB" fill-rule="nonzero"></path>
        <path d="M6,12.9999999 C2.68629153,12.9999999 5.96046446e-08,10.3137085 5.96046446e-08,7 C5.96046446e-08,3.68629153 2.68629153,1.00000006 6,1.00000006 C9.31370847,1.00000006 11.9999999,3.68629153 11.9999999,7 C11.9999999,10.3137085 9.31370847,12.9999999 6,12.9999999 Z M6,11.0000001 C8.20913903,11.0000001 10.0000001,9.20913903 10.0000001,7 C10.0000001,4.79086097 8.20913903,2.99999994 6,2.99999994 C3.79086097,2.99999994 1.99999994,4.79086097 1.99999994,7 C1.99999994,9.20913903 3.79086097,11.0000001 6,11.0000001 Z" id="Oval" fill="#3858CB" fill-rule="nonzero"></path>
        <path d="M19,12.9999999 C16.2385763,12.9999999 14.0000001,10.7614237 14.0000001,8 C14.0000001,5.23857628 16.2385763,3.00000006 19,3.00000006 C21.7614237,3.00000006 23.9999999,5.23857628 23.9999999,8 C23.9999999,10.7614237 21.7614237,12.9999999 19,12.9999999 Z M19,11.0000001 C20.6568543,11.0000001 22.0000001,9.65685428 22.0000001,8 C22.0000001,6.34314572 20.6568543,4.99999994 19,4.99999994 C17.3431457,4.99999994 15.9999999,6.34314572 15.9999999,8 C15.9999999,9.65685428 17.3431457,11.0000001 19,11.0000001 Z" id="Oval" fill="#3858CB" fill-rule="nonzero"></path>
    </g>
</svg>