<?xml version="1.0" encoding="UTF-8"?>
<svg width="30px" height="30px" viewBox="0 0 30 30" version="1.1" xmlns="http://www.w3.org/2000/svg" xmlns:xlink="http://www.w3.org/1999/xlink">
    <!-- Generator: Sketch 48.1 (47250) - http://www.bohemiancoding.com/sketch -->
    <title>coding</title>
    <desc>Created with Sketch.</desc>
    <defs></defs>
    <g id="Assessment-Library" stroke="none" stroke-width="1" fill="none" fill-rule="evenodd" transform="translate(-995.000000, -3205.000000)">
        <g id="coding" transform="translate(995.000000, 3205.000000)" fill="#FFFFFF" fill-rule="nonzero">
            <path d="M28.75,24.375 L28.75,8.125 C28.75,7.78267797 28.467322,7.5 28.125,7.5 L1.875,7.5 C1.53267797,7.5 1.25,7.78267797 1.25,8.125 L1.25,24.375 C1.25,24.717322 1.53267797,25 1.875,25 L28.125,25 C28.467322,25 28.75,24.717322 28.75,24.375 Z M30,24.375 C30,25.407678 29.157678,26.25 28.125,26.25 L1.875,26.25 C0.842322031,26.25 0,25.407678 0,24.375 L0,8.125 C0,7.09232203 0.842322031,6.25 1.875,6.25 L28.125,6.25 C29.157678,6.25 30,7.09232203 30,8.125 L30,24.375 Z" id="Stroke-5240"></path>
            <path d="M3.125,23.75 C2.77982203,23.75 2.5,23.470178 2.5,23.125 L2.5,9.375 C2.5,9.02982203 2.77982203,8.75 3.125,8.75 L26.875,8.75 C27.220178,8.75 27.5,9.02982203 27.5,9.375 L27.5,23.125 C27.5,23.470178 27.220178,23.75 26.875,23.75 L3.125,23.75 Z M26.25,22.5 L26.25,10 L3.75,10 L3.75,22.5 L26.25,22.5 Z" id="Stroke-5241"></path>
            <path d="M8.75,30 L21.25,30 C21.595178,30 21.875,29.720178 21.875,29.375 C21.875,29.029822 21.595178,28.75 21.25,28.75 L8.75,28.75 C8.40482203,28.75 8.125,29.029822 8.125,29.375 C8.125,29.720178 8.40482203,30 8.75,30 Z" id="Stroke-5242"></path>
            <polygon id="Stroke-5243" points="12.5 25.625 12.5 29.375 13.75 29.375 13.75 25.625"></polygon>
            <polygon id="Stroke-5244" points="16.25 25.625 16.25 29.375 17.5 29.375 17.5 25.625"></polygon>
            <path d="M21.2393292,1.96914636 C19.4023022,0.743100975 17.2491762,0.07775 15.001125,0.07775 C12.7501275,0.07775 10.5981256,0.742648604 8.76042083,1.96914636 C8.47331359,2.16076386 8.39590387,2.54884693 8.58752136,2.83595417 C8.77913886,3.12306141 9.16722193,3.20047113 9.45432917,3.00885364 C11.0885084,1.91819035 12.9995197,1.32775 15.001125,1.32775 C16.9997639,1.32775 18.9119039,1.91863236 20.5454208,3.00885364 C20.8325281,3.20047113 21.2206111,3.12306141 21.4122286,2.83595417 C21.6038461,2.54884693 21.5264364,2.16076386 21.2393292,1.96914636 Z" id="Stroke-5245"></path>
            <path d="M19.8525453,4.04799877 C18.4245403,3.09507202 16.7505643,2.577875 15.000625,2.577875 C13.2527531,2.577875 11.576621,3.09531072 10.1466698,4.04768867 C9.85937885,4.23903058 9.78159677,4.6270392 9.97293867,4.91433017 C10.1642806,5.20162115 10.5522892,5.27940323 10.8395802,5.08806133 C12.0663,4.27103981 13.5018459,3.827875 15.000625,3.827875 C16.501187,3.827875 17.934201,4.27062364 19.1587047,5.08775123 C19.4458244,5.27935003 19.8339024,5.20191503 20.0255012,4.91479532 C20.2171,4.6276756 20.139665,4.23959757 19.8525453,4.04799877 Z" id="Stroke-5246"></path>
        </g>
    </g>
</svg>