<?xml version="1.0" encoding="UTF-8"?>
<svg width="32px" height="31px" viewBox="0 0 32 31" version="1.1" xmlns="http://www.w3.org/2000/svg" xmlns:xlink="http://www.w3.org/1999/xlink">
    <!-- Generator: Sketch 48.1 (47250) - http://www.bohemiancoding.com/sketch -->
    <title>immersive</title>
    <desc>Created with Sketch.</desc>
    <defs></defs>
    <g id="Assessment-Library" stroke="none" stroke-width="1" fill="none" fill-rule="evenodd" transform="translate(-414.000000, -3325.000000)">
        <g id="immersive" transform="translate(414.000000, 3324.000000)" fill="#FFFFFF" fill-rule="nonzero">
            <path d="M9.18181818,18.7245455 C9.18181818,17.2179214 7.96116949,15.9972727 6.45454545,15.9972727 C4.94707097,15.9972727 3.72727273,17.2174081 3.72727273,18.7245455 C3.72727273,20.2316828 4.94707097,21.4518182 6.45454545,21.4518182 C7.96116949,21.4518182 9.18181818,20.2311695 9.18181818,18.7245455 Z M10.5454545,18.7245455 C10.5454545,20.9842851 8.71428506,22.8154545 6.45454545,22.8154545 C4.19387103,22.8154545 2.36363636,20.984714 2.36363636,18.7245455 C2.36363636,16.4643769 4.19387103,14.6336364 6.45454545,14.6336364 C8.71428506,14.6336364 10.5454545,16.4648059 10.5454545,18.7245455 Z" id="Stroke-3706"></path>
            <path d="M6.45468182,22.8154545 C7.994362,22.8154545 9.41041499,23.5498711 10.3038278,24.7689433 C10.5264175,25.0726695 10.9530808,25.1384437 11.256807,24.915854 C11.5605332,24.6932644 11.6263073,24.266601 11.4037177,23.9628748 C10.2561726,22.3970363 8.43366629,21.4518182 6.45468182,21.4518182 C3.06537669,21.4518182 0.318318182,24.1998256 0.318318182,27.5881818 C0.318318182,27.9647396 0.62357858,28.27 1.00013636,28.27 L8.6065,28.27 C8.98305778,28.27 9.28831818,27.9647396 9.28831818,27.5881818 C9.28831818,27.211624 8.98305778,26.9063636 8.6065,26.9063636 L1.73030158,26.9063636 C2.06116768,24.5938377 4.05014773,22.8154545 6.45468182,22.8154545 Z" id="Stroke-3707"></path>
            <path d="M28.2727273,18.7245455 C28.2727273,17.2179214 27.0520786,15.9972727 25.5454545,15.9972727 C24.0379801,15.9972727 22.8181818,17.2174081 22.8181818,18.7245455 C22.8181818,20.2316828 24.0379801,21.4518182 25.5454545,21.4518182 C27.0520786,21.4518182 28.2727273,20.2311695 28.2727273,18.7245455 Z M29.6363636,18.7245455 C29.6363636,20.9842851 27.8051941,22.8154545 25.5454545,22.8154545 C23.2847801,22.8154545 21.4545455,20.984714 21.4545455,18.7245455 C21.4545455,16.4643769 23.2847801,14.6336364 25.5454545,14.6336364 C27.8051941,14.6336364 29.6363636,16.4648059 29.6363636,18.7245455 Z" id="Stroke-3708"></path>
            <path d="M23.3929545,26.9059545 C23.0163968,26.9059545 22.7111364,27.2112149 22.7111364,27.5877727 C22.7111364,27.9643305 23.0163968,28.2695909 23.3929545,28.2695909 L31.0006818,28.2695909 C31.3772396,28.2695909 31.6825,27.9643305 31.6825,27.5877727 C31.6825,24.1994165 28.9354415,21.4514091 25.5461364,21.4514091 C23.5650887,21.4514091 21.74096,22.3974377 20.5930096,23.9638294 C20.3704199,24.2675556 20.4361941,24.6942189 20.7399203,24.9168086 C21.0436465,25.1393982 21.4703098,25.0736241 21.6928995,24.7698979 C22.5867138,23.5502778 24.0043859,22.8150455 25.5461364,22.8150455 C27.9506705,22.8150455 29.9396505,24.5934286 30.2705166,26.9059545 L23.3929545,26.9059545 Z" id="Stroke-3709"></path>
            <path d="M20.2426818,17.5327273 C20.2426818,15.1905126 18.3432608,13.2918182 16.0004091,13.2918182 C13.655512,13.2918182 11.7567727,15.1898311 11.7567727,17.5327273 C11.7567727,19.8764868 13.6550115,21.7736364 16.0004091,21.7736364 C18.3437612,21.7736364 20.2426818,19.8758054 20.2426818,17.5327273 Z M21.6063182,17.5327273 C21.6063182,20.6290963 19.0967016,23.1372727 16.0004091,23.1372727 C12.9020711,23.1372727 10.3931364,20.6297777 10.3931364,17.5327273 C10.3931364,14.4365987 12.9025132,11.9281818 16.0004091,11.9281818 C19.0962595,11.9281818 21.6063182,14.4372802 21.6063182,17.5327273 Z" id="Stroke-3710"></path>
            <path d="M9.52902303,12.3373733 C11.0693814,10.3496886 13.4353771,9.16381818 16.0005455,9.16381818 C18.5619492,9.16381818 20.9287118,10.3497357 22.467977,12.3360097 C22.6986365,12.6336537 23.1269111,12.6879553 23.4245551,12.4572958 C23.7221991,12.2266362 23.7765007,11.7983616 23.5458412,11.5007176 C21.7509432,9.18457391 18.9880802,7.80018182 16.0005455,7.80018182 C13.0091867,7.80018182 10.2471162,9.18457049 8.45115879,11.5020812 C8.22049926,11.7997252 8.27480089,12.2279999 8.57244488,12.4586594 C8.87008887,12.6893189 9.2983635,12.6350173 9.52902303,12.3373733 Z" id="Stroke-3711"></path>
            <path d="M6.96682869,10.0782291 C9.15402238,7.3631378 12.4428063,5.75459091 16.0004091,5.75459091 C19.5493797,5.75459091 22.8340391,7.35849445 25.0238459,10.0669048 C25.2605979,10.359726 25.6899018,10.4051789 25.982723,10.1684269 C26.2755441,9.9316748 26.3209971,9.50237089 26.084245,9.20954974 C23.6382644,6.18429692 19.9656503,4.39095455 16.0004091,4.39095455 C12.0258088,4.39095455 8.34830925,6.18962259 5.90489858,9.22277095 C5.66867035,9.51601485 5.71489068,9.94523682 6.00813458,10.1814651 C6.30137848,10.4176933 6.73060046,10.371473 6.96682869,10.0782291 Z" id="Stroke-3712"></path>
            <path d="M4.24163416,8.02863847 C7.06848183,4.46318451 11.356627,2.3455 16.0005455,2.3455 C20.6468401,2.3455 24.94033,4.46951882 27.7686349,8.04317481 C28.0023228,8.33844712 28.4311298,8.38837115 28.7264021,8.15468326 C29.0216744,7.92099537 29.0715984,7.4921884 28.8379105,7.1969161 C25.7536466,3.29984759 21.0680758,0.981863636 16.0005455,0.981863636 C10.9359411,0.981863636 6.2560004,3.29303494 3.17309311,7.18145244 C2.93914915,7.4765219 2.98870116,7.90537202 3.28377062,8.13931598 C3.57884008,8.37325994 4.0076902,8.32370793 4.24163416,8.02863847 Z" id="Stroke-3713"></path>
            <path d="M16.0004091,23.1382273 C12.2541134,23.1382273 9.17823015,25.9988152 8.83497995,29.6550455 L23.1644585,29.6550455 C22.8210957,25.9993659 19.7447418,23.1382273 16.0004091,23.1382273 Z M23.8781364,31.0186818 L8.12131818,31.0186818 C7.7447604,31.0186818 7.4395,30.7134214 7.4395,30.3368636 C7.4395,25.6078127 11.2708893,21.7745909 16.0004091,21.7745909 C20.7278835,21.7745909 24.5599545,25.6084949 24.5599545,30.3368636 C24.5599545,30.7134214 24.2546941,31.0186818 23.8781364,31.0186818 Z" id="Stroke-3714"></path>
        </g>
    </g>
</svg>