<?xml version="1.0" encoding="UTF-8"?>
<svg width="30px" height="30px" viewBox="0 0 30 30" version="1.1" xmlns="http://www.w3.org/2000/svg" xmlns:xlink="http://www.w3.org/1999/xlink">
    <!-- Generator: Sketch 48.1 (47250) - http://www.bohemiancoding.com/sketch -->
    <title>job</title>
    <desc>Created with Sketch.</desc>
    <defs></defs>
    <g id="Assessment-Library" stroke="none" stroke-width="1" fill="none" fill-rule="evenodd" transform="translate(-705.000000, -3325.000000)">
        <g id="job" transform="translate(705.000000, 3325.000000)" fill="#FFFFFF" fill-rule="nonzero">
            <path d="M18.0217391,30.00125 C17.6735596,30.00125 17.3913043,29.721428 17.3913043,29.37625 L17.3913043,20.62625 C17.3913043,20.281072 17.6735596,20.00125 18.0217391,20.00125 L29.3695652,20.00125 C29.7177447,20.00125 30,20.281072 30,20.62625 L30,29.37625 C30,29.721428 29.7177447,30.00125 29.3695652,30.00125 L18.0217391,30.00125 Z M18.6521739,28.75125 L28.7391304,28.75125 L28.7391304,21.25125 L18.6521739,21.25125 L18.6521739,28.75125 Z" id="Stroke-9213"></path>
            <path d="M22.4347826,20.62625 L22.4347826,19.37625 C22.4347826,19.0307063 22.7168638,18.75125 23.0652174,18.75125 L24.326087,18.75125 C24.6744406,18.75125 24.9565217,19.0307063 24.9565217,19.37625 L24.9565217,20.62625 C24.9565217,20.971428 25.238777,21.25125 25.5869565,21.25125 C25.935136,21.25125 26.2173913,20.971428 26.2173913,20.62625 L26.2173913,19.37625 C26.2173913,18.340157 25.3706047,17.50125 24.326087,17.50125 L23.0652174,17.50125 C22.0206997,17.50125 21.173913,18.340157 21.173913,19.37625 L21.173913,20.62625 C21.173913,20.971428 21.4561683,21.25125 21.8043478,21.25125 C22.1525273,21.25125 22.4347826,20.971428 22.4347826,20.62625 Z" id="Stroke-9214"></path>
            <path d="M18.0217391,25.00125 L29.3695652,25.00125 C29.7177447,25.00125 30,24.721428 30,24.37625 C30,24.031072 29.7177447,23.75125 29.3695652,23.75125 L18.0217391,23.75125 C17.6735596,23.75125 17.3913043,24.031072 17.3913043,24.37625 C17.3913043,24.721428 17.6735596,25.00125 18.0217391,25.00125 Z" id="Stroke-9215"></path>
            <path d="M23.0652174,24.37625 L23.0652174,25.62625 C23.0652174,25.971428 23.3474727,26.25125 23.6956522,26.25125 C24.0438317,26.25125 24.326087,25.971428 24.326087,25.62625 L24.326087,24.37625 C24.326087,24.031072 24.0438317,23.75125 23.6956522,23.75125 C23.3474727,23.75125 23.0652174,24.031072 23.0652174,24.37625 Z" id="Stroke-9216"></path>
            <path d="M7.93478261,10 C5.14934222,10 2.89130435,7.76142797 2.89130435,5 C2.89130435,2.23857203 5.14934222,0 7.93478261,0 C10.720223,0 12.9782609,2.23857203 12.9782609,5 C12.9782609,7.76142797 10.720223,10 7.93478261,10 Z M7.93478261,8.75 C10.023864,8.75 11.7173913,7.07107203 11.7173913,5 C11.7173913,2.92892797 10.023864,1.25 7.93478261,1.25 C5.84570126,1.25 4.15217391,2.92892797 4.15217391,5 C4.15217391,7.07107203 5.84570126,8.75 7.93478261,8.75 Z" id="Stroke-9217"></path>
            <path d="M1,23.75 C0.651820484,23.75 0.369565217,23.470178 0.369565217,23.125 C0.369565217,16.4687792 3.72190542,10.625 7.93478261,10.625 C12.1468039,10.625 15.5,16.4695372 15.5,23.125 C15.5,23.470178 15.2177447,23.75 14.8695652,23.75 L11.0869565,23.75 L11.0869565,29.375 C11.0869565,29.720178 10.8047013,30 10.4565217,30 L5.41304348,30 C5.06486396,30 4.7826087,29.720178 4.7826087,29.375 L4.7826087,23.75 L1,23.75 Z M7.93478261,11.875 C4.72416794,11.875 1.83682094,16.714708 1.64100773,22.5 L5.41304348,22.5 C5.76122299,22.5 6.04347826,22.779822 6.04347826,23.125 L6.04347826,28.75 L9.82608696,28.75 L9.82608696,23.125 C9.82608696,22.779822 10.1083422,22.5 10.4565217,22.5 L14.2285522,22.5 C14.0326657,16.7153754 11.1446015,11.875 7.93478261,11.875 Z" id="Stroke-9218"></path>
            <polygon id="Stroke-9219" points="5.41304348 23.75 10.4565217 23.75 10.4565217 22.5 5.41304348 22.5"></polygon>
            <path d="M5.32944814,12.2061385 L4.30536925,12.9353615 L7.42349969,17.2391115 C7.67504011,17.5862962 8.19603815,17.5862962 8.44757857,17.2391115 L11.565709,12.9353615 L10.5416301,12.2061385 L7.93553913,15.8031542 L5.32944814,12.2061385 Z" id="Stroke-9220"></path>
        </g>
    </g>
</svg>