<?xml version="1.0" encoding="UTF-8"?>
<svg width="28px" height="30px" viewBox="0 0 28 30" version="1.1" xmlns="http://www.w3.org/2000/svg" xmlns:xlink="http://www.w3.org/1999/xlink">
    <!-- Generator: Sketch 48.1 (47250) - http://www.bohemiancoding.com/sketch -->
    <title>personality</title>
    <desc>Created with Sketch.</desc>
    <defs></defs>
    <g id="Assessment-Library" stroke="none" stroke-width="1" fill="none" fill-rule="evenodd" transform="translate(-996.000000, -3325.000000)">
        <g id="personality" transform="translate(996.000000, 3325.000000)" fill="#FFFFFF" fill-rule="nonzero">
            <path d="M0.00190909091,12.57775 C0.00190909091,5.51942932 5.57040618,0.00025 12.7291818,0.00025 C19.2180425,0.00025 24.9002727,4.35570047 24.9002727,10.50775 C24.9002727,10.712371 24.8048116,10.5343821 26.1875173,12.9601549 C26.4223258,13.3720951 26.6128926,13.7218124 26.7831665,14.0586127 C27.3865965,15.2521923 27.6889952,16.1958766 27.6297207,17.008797 C27.6265429,17.0499217 27.6255112,17.0879821 27.6245544,17.1803185 C27.6201182,17.6084304 27.5838919,17.8258123 27.3839397,18.1059153 C27.1081407,18.4952967 26.6427215,18.7358799 26.1553583,18.7572428 C25.9953485,18.7635777 25.8204453,18.7675174 25.6328162,18.7693226 C25.3836556,18.7717199 25.12257,18.7703427 24.8606282,18.7661722 C24.8584323,18.9480361 24.8541853,19.1441184 24.8473755,19.3513862 C24.8260263,20.0011809 24.7827912,20.6416629 24.7122755,21.244235 C24.5338921,22.7685604 24.2183529,23.8570098 23.6387522,24.4256266 C22.7157832,25.3334072 21.5518786,25.6254319 19.0928182,25.6525212 L19.0928182,29.37525 C19.0928182,29.720428 18.8079085,30.00025 18.4564545,30.00025 L5.72918182,30.00025 C5.37772789,30.00025 5.09281818,29.720428 5.09281818,29.37525 L5.09281818,22.52518 C1.59606635,20.350387 0.00190909091,16.9281402 0.00190909091,12.57775 Z M17.8200909,25.029 C17.8200909,24.6824789 18.1071383,24.4021036 18.4599545,24.4040095 C21.0400418,24.4179465 22.0586744,24.2106742 22.738728,23.5418124 C23.0417703,23.2445126 23.3022283,22.3460651 23.4478722,21.1015062 C23.5140091,20.5363522 23.5550084,19.9289908 23.5753103,19.3110715 C23.5892184,18.8877577 23.59193,18.5139272 23.5882771,18.2201759 C23.5786655,17.7795625 23.8807885,17.487195 24.247038,17.5006893 C24.3129684,17.5031185 24.4322395,17.5068241 24.5895425,17.5105447 C24.9375543,17.5187761 25.2916602,17.5225451 25.6203487,17.5193826 C25.7957939,17.5176946 25.9580163,17.5140405 26.1013464,17.5083719 C26.1984575,17.504114 26.2952338,17.4540887 26.3404823,17.3902128 C26.343788,17.3855818 26.3500219,17.3481746 26.351893,17.1675977 C26.3531325,17.0479817 26.35466,16.9916292 26.3604434,16.9168603 C26.3988203,16.3904896 26.1525443,15.6219454 25.6432292,14.6145245 C25.4835907,14.2987609 25.3023596,13.9661759 25.0769735,13.570766 C25.1328922,13.668868 24.3087528,12.2469697 24.1284862,11.9108595 C23.7912699,11.2821139 23.6275455,10.8715535 23.6275455,10.50775 C23.6275455,5.12338837 18.5745518,1.25025 12.7291818,1.25025 C6.27592616,1.25025 1.27463636,6.20724553 1.27463636,12.57775 C1.27463636,16.6440917 2.7611869,19.7200302 6.05376655,21.6376639 C6.24704165,21.7502294 6.36554545,21.9545601 6.36554545,22.17525 L6.36554545,28.75025 L17.8200909,28.75025 L17.8200909,25.029 Z" id="Stroke-7925"></path>
            <path d="M11.4023614,9.61978836 C11.3018139,9.84900823 11.0720523,9.9975 10.8179273,9.9975 L8.12213112,9.9975 L10.5887613,12.0147043 C10.796739,12.184788 10.8724318,12.4654599 10.7774462,12.714356 L9.6000638,15.7995183 L12.3574334,13.8674604 C12.578569,13.7125132 12.8754674,13.7125132 13.0966029,13.8674604 L15.8539726,15.7995183 L14.6765902,12.714356 C14.5816046,12.4654599 14.6572973,12.184788 14.8652751,12.0147043 L17.3319052,9.9975 L14.6361091,9.9975 C14.3812025,9.9975 14.1508918,9.84810492 14.0508271,9.61784647 L12.7331979,6.58585574 L11.4023614,9.61978836 Z M10.3991766,8.7475 L12.1514932,4.75271164 C12.3728113,4.24816869 13.1016291,4.24937863 13.3212092,4.75465353 L15.0564029,8.7475 L19.0906545,8.7475 C19.685968,8.7475 19.9553346,9.47866771 19.4978522,9.85279574 L16.0269711,12.691274 L17.7774462,17.278144 C17.9979051,17.8558251 17.3233266,18.3645852 16.8119789,18.0062896 L12.7270182,15.1440035 L8.6420575,18.0062896 C8.13070974,18.3645852 7.45613128,17.8558251 7.67659018,17.278144 L9.42706529,12.691274 L5.95618418,9.85279574 C5.49870177,9.47866771 5.76806838,8.7475 6.36338182,8.7475 L10.3991766,8.7475 Z" id="Stroke-7926"></path>
        </g>
    </g>
</svg>