<?xml version="1.0" encoding="UTF-8"?>
<svg width="30px" height="30px" viewBox="0 0 30 30" version="1.1" xmlns="http://www.w3.org/2000/svg" xmlns:xlink="http://www.w3.org/1999/xlink">
    <!-- Generator: Sketch 48.1 (47250) - http://www.bohemiancoding.com/sketch -->
    <title>skill</title>
    <desc>Created with Sketch.</desc>
    <defs></defs>
    <g id="Assessment-Library" stroke="none" stroke-width="1" fill="none" fill-rule="evenodd" transform="translate(-415.000000, -3205.000000)">
        <g id="skill" transform="translate(414.000000, 3205.000000)" fill="#FFFFFF" fill-rule="nonzero">
            <path d="M6.0282331,25.4917003 L7.51892119,29.5885801 C7.69911065,30.0837974 8.37363553,30.1474282 8.64325404,29.6946431 L12.748254,22.8008931 L11.674246,22.1613569 L8.2431801,27.9233326 L7.02482881,24.5749199 C6.92167768,24.2914281 6.63074987,24.1220763 6.33329735,24.1723728 L2.83169011,24.7644627 L6.80351459,17.8978098 L5.72148541,17.2719402 L1.08398541,25.2894402 C0.819081768,25.7474164 1.20753667,26.3068362 1.72920265,26.2186272 L6.0282331,25.4917003 Z" id="Stroke-6161"></path>
            <path d="M28.965261,24.7639873 L25.4640513,24.1721183 C25.1666625,24.1218456 24.8757941,24.2911244 24.7725976,24.5745286 L23.5522594,27.9258917 L20.1301356,22.1990296 L19.0571144,22.8402204 L23.1533644,29.6952204 C23.423414,30.1471434 24.0970215,30.0831572 24.2771524,29.5884714 L25.769024,25.4914078 L30.0694487,26.2183817 C30.5913955,26.3066152 30.9798294,25.7466004 30.7143251,25.2886472 L26.1305751,17.3823972 L25.0491749,18.0093528 L28.965261,24.7639873 Z" id="Stroke-6162"></path>
            <path d="M26.625,11.875 C26.625,6.00767797 21.867322,1.25 16,1.25 C10.1318704,1.25 5.375,6.0072355 5.375,11.875 C5.375,17.743572 10.131428,22.5 16,22.5 C21.8677645,22.5 26.625,17.7431296 26.625,11.875 Z M27.875,11.875 C27.875,18.433507 22.558099,23.75 16,23.75 C9.44107203,23.75 4.125,18.433928 4.125,11.875 C4.125,5.31690104 9.44149299,0 16,0 C22.557678,0 27.875,5.31732203 27.875,11.875 Z" id="Stroke-6163"></path>
            <path d="M14.684017,9.6545085 C14.578147,9.86624851 14.3617325,10 14.125,10 L11.8838835,10 L13.9419417,12.0580583 C14.1024404,12.218557 14.1633085,12.4534545 14.1009525,12.6717007 L13.2978344,15.482614 L15.6686237,14.0000805 C15.8713539,13.8733065 16.1286461,13.8733065 16.3313763,14.0000805 L18.7021656,15.482614 L17.8990475,12.6717007 C17.8366915,12.4534545 17.8975596,12.218557 18.0580583,12.0580583 L20.1161165,10 L17.875,10 C17.6382675,10 17.421853,9.86624851 17.315983,9.6545085 L16,7.02254249 L14.684017,9.6545085 Z M13.7387288,8.75 L15.440983,5.3454915 C15.6713107,4.88483617 16.3286893,4.88483617 16.559017,5.3454915 L18.2612712,8.75 L21.625,8.75 C22.1818155,8.75 22.4606698,9.4232137 22.0669417,9.81694174 L19.2019817,12.6819017 L20.3509525,16.7032993 C20.5082424,17.2538142 19.9040674,17.7084837 19.4186237,17.4049195 L16,15.2671402 L12.5813763,17.4049195 C12.0959326,17.7084837 11.4917576,17.2538142 11.6490475,16.7032993 L12.7980183,12.6819017 L9.93305826,9.81694174 C9.53933022,9.4232137 9.81818447,8.75 10.375,8.75 L13.7387288,8.75 Z" id="Stroke-6164"></path>
        </g>
    </g>
</svg>