<?xml version="1.0" encoding="UTF-8"?>
<svg width="30px" height="30px" viewBox="0 0 30 30" version="1.1" xmlns="http://www.w3.org/2000/svg" xmlns:xlink="http://www.w3.org/1999/xlink">
    <!-- Generator: Sketch 48.1 (47250) - http://www.bohemiancoding.com/sketch -->
    <title>work</title>
    <desc>Created with Sketch.</desc>
    <defs></defs>
    <g id="Assessment-Library" stroke="none" stroke-width="1" fill="none" fill-rule="evenodd" transform="translate(-705.000000, -3205.000000)">
        <g id="work" transform="translate(705.000000, 3204.000000)" fill="#FFFFFF" fill-rule="nonzero">
            <path d="M2.68250691,24.5651404 C2.4383598,24.3210746 2.43832682,23.9252897 2.68243326,23.6811833 L18.3074333,8.05618326 C18.5515397,7.81207683 18.9473246,7.81210979 19.1913904,8.05625689 L22.9426404,11.8087569 C23.1866624,12.0528603 23.1866136,12.4485589 22.9425314,12.6926021 L7.31753138,28.3151021 C7.07347674,28.5591177 6.67783269,28.5591348 6.43375691,28.3151404 L2.68250691,24.5651404 Z M6.87558672,26.9893505 L21.6167798,12.250516 L18.7493014,9.3820821 L4.00833213,24.1230513 L6.87558672,26.9893505 Z" id="Stroke-9191"></path>
            <path d="M28.2956793,29.5284452 C28.0778246,29.7162185 27.750085,29.7600329 26.645343,29.7513683 C26.5870825,29.7509163 26.538333,29.7505551 26.4954667,29.7502712 L15.3230176,19.3935179 C15.069874,19.1588562 14.6744296,19.1738387 14.4397679,19.4269824 C14.2051062,19.680126 14.2200887,20.0755704 14.4732324,20.3102321 L25.8244824,30.8327321 C25.9400425,30.9398552 26.0918012,30.999375 26.249375,30.999375 C26.3604091,30.999375 26.4455089,30.9998583 26.6355394,31.0013298 C28.0847029,31.0126958 28.5623435,30.9488416 29.111773,30.4752773 C29.7559486,29.9200493 29.999375,28.9523098 29.999375,27.249375 C29.999375,27.0585729 29.9122188,26.878222 29.7627191,26.759667 L17.5639691,17.085917 C17.2935108,16.8714405 16.9003936,16.9168227 16.685917,17.1872809 C16.4714405,17.4577392 16.5168227,17.8508564 16.7872809,18.065333 L28.7464929,27.5491265 C28.7232316,28.7149928 28.5602147,29.3004367 28.2956793,29.5284452 Z" id="Stroke-9192"></path>
            <path d="M27.6830583,7.06694174 C28.4151834,7.79906686 28.4151834,9.20187038 27.6833415,9.93277524 L21.4330583,16.1830583 C21.1889806,16.4271359 21.1889806,16.8228641 21.4330583,17.0669417 C21.6771359,17.3110194 22.0728641,17.3110194 22.3169417,17.0669417 L28.5669417,10.8169417 C29.7873166,9.59812962 29.7873166,7.40343314 28.5669417,6.18305826 C28.3228641,5.93898058 27.9271359,5.93898058 27.6830583,6.18305826 C27.4389806,6.42713594 27.4389806,6.82286406 27.6830583,7.06694174 Z" id="Stroke-9193"></path>
            <path d="M2.37055826,27.7455583 L0.183058262,29.9330583 C-0.0610194206,30.1771359 -0.0610194206,30.5728641 0.183058262,30.8169417 C0.427135944,31.0610194 0.822864056,31.0610194 1.06694174,30.8169417 L3.25444174,28.6294417 C3.49851942,28.3853641 3.49851942,27.9896359 3.25444174,27.7455583 C3.01036406,27.5014806 2.61463594,27.5014806 2.37055826,27.7455583 Z" id="Stroke-9194"></path>
            <path d="M29.8169417,4.93305826 C30.0610194,5.17713594 30.0610194,5.57286406 29.8169417,5.81694174 L22.9419417,12.6919417 C22.6978641,12.9360194 22.3021359,12.9360194 22.0580583,12.6919417 L18.3080583,8.94194174 C18.0639806,8.69786406 18.0639806,8.30213594 18.3080583,8.05805826 L25.1830583,1.18305826 C25.4271359,0.938980579 25.8228641,0.938980579 26.0669417,1.18305826 L29.8169417,4.93305826 Z M25.625,2.50888348 L19.6338835,8.5 L22.5,11.3661165 L28.4911165,5.375 L25.625,2.50888348 Z" id="Stroke-9195"></path>
            <path d="M2.75873624,27.2488972 L4.50319174,25.5044417 C4.74726942,25.2603641 4.74726942,24.8646359 4.50319174,24.6205583 C4.25911406,24.3764806 3.86338594,24.3764806 3.61930826,24.6205583 L1.43305826,26.8068083 C1.18903809,27.0508284 1.18897217,27.446443 1.43291102,27.6905444 L3.30791102,29.5667944 C3.55196485,29.811011 3.94780654,29.8110769 4.19194174,29.5669417 L6.37944174,27.3794417 C6.62351942,27.1353641 6.62351942,26.7396359 6.37944174,26.4955583 C6.13536406,26.2514806 5.73963594,26.2514806 5.49555826,26.4955583 L3.75014729,28.2409692 L2.75873624,27.2488972 Z" id="Stroke-9196"></path>
            <path d="M3.21320681,3.19312364 C1.26922776,5.89227611 1.40519629,9.29722994 3.26233599,11.9802222 C5.24378966,14.8428098 8.13111844,15.4006195 9.99703484,12.898121 C11.2370062,11.2405427 10.8863448,8.82752206 9.22659145,7.58993964 C8.88189731,7.33312719 8.44655478,7.1537538 7.53858554,6.86398864 C7.21615895,6.7616913 7.05054728,6.70877923 6.88169738,6.65281218 C4.76177967,5.95014351 3.55134484,5.0032689 3.21320681,3.19312364 Z M4.37424539,1.65570333 C4.26420361,3.89302007 5.07901001,4.73841558 7.27498143,5.46629305 C7.43634188,5.51977764 7.59450435,5.57030973 7.91862118,5.67315997 C8.95862509,6.00506208 9.4798023,6.21980177 9.97360117,6.58770393 C12.1874179,8.23841947 12.652051,11.4357176 10.9985512,13.6460943 C8.54667919,16.9344565 4.65032086,16.1817101 2.23453901,12.6916528 C-0.220369918,9.14506886 -0.070357472,4.44889689 3.3156001,1.17564298 C3.72295364,0.78184846 4.40207873,1.08980905 4.37424539,1.65570333 Z" id="Stroke-9197"></path>
            <path d="M10.999194,13.646238 C11.0259503,13.6104882 11.0518815,13.5744676 11.0772216,13.5378632 L12.6024343,14.7472305 C12.872905,14.9616913 13.2660196,14.9162864 13.4804805,14.6458157 C13.6949413,14.375345 13.6495364,13.9822304 13.3790657,13.7677695 L11.2965657,12.1165195 C11.037955,11.9114626 10.6644777,11.9428286 10.4436912,12.188147 L10.4099412,12.225647 L10.316771,12.3616802 C10.1992586,12.5940343 10.1043601,12.7557221 9.99787261,12.8980037 C9.64095519,13.3764009 9.2508294,13.7438354 8.82858912,14.0129432 C8.48321165,14.2330638 8.43934917,14.7203328 8.73986377,14.9985947 L10.5798638,16.7023447 C10.8331386,16.9368648 11.2285746,16.9216611 11.4630947,16.6683862 C11.6976148,16.4151114 11.6824111,16.0196754 11.4291362,15.7851553 L10.1365765,14.5883083 C10.4436557,14.3186798 10.7315217,14.0050156 10.999194,13.646238 Z" id="Stroke-9198"></path>
        </g>
    </g>
</svg>